<mxfile host="Electron" modified="2024-07-25T15:44:33.522Z" agent="Mozilla/5.0 (Windows NT 10.0; Win64; x64) AppleWebKit/537.36 (KHTML, like Gecko) draw.io/24.5.3 Chrome/124.0.6367.207 Electron/30.0.6 Safari/537.36" etag="hKHAeoNKsLDGg_yJSog2" version="24.5.3" type="device">
  <diagram name="without logos" id="HDjzLdn3NUBT8ObKhGXY">
    <mxGraphModel dx="2074" dy="-2939" grid="0" gridSize="10" guides="1" tooltips="1" connect="1" arrows="1" fold="1" page="1" pageScale="1" pageWidth="1169" pageHeight="827" math="0" shadow="0">
      <root>
        <mxCell id="uZPeagV1LzCzwJO0KJH_-0" />
        <mxCell id="uZPeagV1LzCzwJO0KJH_-1" parent="uZPeagV1LzCzwJO0KJH_-0" />
        <mxCell id="uZPeagV1LzCzwJO0KJH_-3" value="&lt;p style=&quot;margin-top: 6pt ; margin-bottom: 0pt ; margin-left: 0in ; direction: ltr ; unicode-bidi: embed ; vertical-align: baseline ; word-break: normal ; font-size: 14px&quot;&gt;&lt;br&gt;&lt;/p&gt;" style="rounded=1;whiteSpace=wrap;html=1;align=center;fontStyle=1;verticalAlign=middle;strokeColor=#0070F2;fillColor=#EBF8FF;strokeWidth=1.5;fontSize=12;fontFamily=Helvetica;container=0;recursiveResize=0;collapsible=0;fontColor=default;arcSize=2;" parent="uZPeagV1LzCzwJO0KJH_-1" vertex="1">
          <mxGeometry x="401" y="4231" width="335" height="515" as="geometry" />
        </mxCell>
        <mxCell id="uZPeagV1LzCzwJO0KJH_-11" style="edgeStyle=orthogonalEdgeStyle;rounded=0;orthogonalLoop=1;jettySize=auto;html=1;exitX=0.5;exitY=1;exitDx=0;exitDy=0;" parent="uZPeagV1LzCzwJO0KJH_-1" edge="1">
          <mxGeometry relative="1" as="geometry">
            <mxPoint x="27" y="4159" as="sourcePoint" />
            <mxPoint x="27" y="4159" as="targetPoint" />
          </mxGeometry>
        </mxCell>
        <mxCell id="uZPeagV1LzCzwJO0KJH_-12" value="&lt;p class=&quot;p1&quot; style=&quot;margin: 0px; font-variant-numeric: normal; font-variant-east-asian: normal; font-variant-alternates: normal; font-kerning: auto; font-optical-sizing: auto; font-feature-settings: normal; font-variation-settings: normal; font-variant-position: normal; font-stretch: normal; line-height: normal; font-size: 16px;&quot;&gt;&lt;font style=&quot;font-size: 16px;&quot; color=&quot;#0170f2&quot;&gt;Federated Machine Learning reference architecture&lt;/font&gt;&lt;/p&gt;" style="text;whiteSpace=wrap;html=1;fontFamily=Helvetica;fontSize=16;fontStyle=1;verticalAlign=middle;fontColor=default;align=left;" parent="uZPeagV1LzCzwJO0KJH_-1" vertex="1">
          <mxGeometry x="67" y="4189" width="613" height="14.5" as="geometry" />
        </mxCell>
        <mxCell id="uZPeagV1LzCzwJO0KJH_-17" style="edgeStyle=orthogonalEdgeStyle;rounded=0;orthogonalLoop=1;jettySize=auto;html=1;entryX=0.5;entryY=0;entryDx=0;entryDy=0;endArrow=none;endFill=0;strokeColor=#595959;strokeWidth=2;align=center;verticalAlign=middle;fontFamily=Helvetica;fontSize=11;fontColor=default;labelBackgroundColor=default;exitX=1.006;exitY=0.456;exitDx=0;exitDy=0;exitPerimeter=0;" parent="uZPeagV1LzCzwJO0KJH_-1" source="8XwpJnI2xtcuIQ5Sg1Dp-10" target="uZPeagV1LzCzwJO0KJH_-22" edge="1">
          <mxGeometry relative="1" as="geometry">
            <mxPoint x="429.19000000000005" y="4344" as="sourcePoint" />
          </mxGeometry>
        </mxCell>
        <mxCell id="uZPeagV1LzCzwJO0KJH_-18" style="edgeStyle=orthogonalEdgeStyle;rounded=0;orthogonalLoop=1;jettySize=auto;html=1;endArrow=none;endFill=0;strokeColor=#595959;strokeWidth=2;align=center;verticalAlign=middle;fontFamily=Helvetica;fontSize=11;fontColor=default;labelBackgroundColor=default;" parent="uZPeagV1LzCzwJO0KJH_-1" target="uZPeagV1LzCzwJO0KJH_-22" edge="1">
          <mxGeometry relative="1" as="geometry">
            <mxPoint x="321.5" y="4551" as="sourcePoint" />
          </mxGeometry>
        </mxCell>
        <mxCell id="uZPeagV1LzCzwJO0KJH_-20" style="edgeStyle=none;rounded=0;orthogonalLoop=1;jettySize=auto;html=1;entryX=0;entryY=0.5;entryDx=0;entryDy=0;dashed=1;startArrow=classic;startFill=1;endArrow=classic;endFill=1;strokeColor=#C0399F;strokeWidth=1;fontSize=16;" parent="uZPeagV1LzCzwJO0KJH_-1" edge="1">
          <mxGeometry relative="1" as="geometry">
            <mxPoint x="41" y="4279" as="sourcePoint" />
            <mxPoint x="41" y="4279" as="targetPoint" />
          </mxGeometry>
        </mxCell>
        <mxCell id="uZPeagV1LzCzwJO0KJH_-21" value="" style="edgeStyle=orthogonalEdgeStyle;rounded=0;orthogonalLoop=1;jettySize=auto;html=1;strokeColor=#595959;strokeWidth=2;align=center;verticalAlign=middle;fontFamily=Helvetica;fontSize=11;fontColor=#FFFFFF;labelBackgroundColor=default;startArrow=none;endArrow=block;endFill=1;endSize=3;" parent="uZPeagV1LzCzwJO0KJH_-1" source="uZPeagV1LzCzwJO0KJH_-22" edge="1">
          <mxGeometry relative="1" as="geometry">
            <mxPoint x="445" y="4428" as="targetPoint" />
            <Array as="points">
              <mxPoint x="412.5" y="4428" />
              <mxPoint x="412.5" y="4428" />
            </Array>
          </mxGeometry>
        </mxCell>
        <mxCell id="uZPeagV1LzCzwJO0KJH_-22" value="&lt;p style=&quot;line-height: 70%;&quot;&gt;&lt;span style=&quot;font-family: Slack-Lato, Slack-Fractions, appleLogo, sans-serif; font-variant-ligatures: common-ligatures; text-align: left;&quot;&gt;&lt;font style=&quot;font-size: 8px;&quot;&gt;Data Federation &lt;br&gt;&amp;amp; Replication&lt;/font&gt;&lt;/span&gt;&lt;/p&gt;" style="rounded=1;whiteSpace=wrap;html=1;arcSize=50;fillColor=default;fontColor=default;strokeColor=#475f75;fontFamily=Helvetica;fontSize=12;autosize=1;absoluteArcSize=1;strokeWidth=1.5;labelBackgroundColor=none;container=0;verticalAlign=middle;fontStyle=1;spacing=0;gradientColor=none;align=center;" parent="uZPeagV1LzCzwJO0KJH_-1" vertex="1">
          <mxGeometry x="339" y="4414" width="79.38" height="26" as="geometry" />
        </mxCell>
        <mxCell id="uZPeagV1LzCzwJO0KJH_-41" value="" style="rounded=1;whiteSpace=wrap;html=1;strokeColor=#0070F2;fillColor=#EBF8FF;arcSize=24;absoluteArcSize=1;imageWidth=64;imageHeight=64;strokeWidth=1.5;" parent="uZPeagV1LzCzwJO0KJH_-1" vertex="1">
          <mxGeometry x="796" y="4231" width="341.5" height="517" as="geometry" />
        </mxCell>
        <mxCell id="uZPeagV1LzCzwJO0KJH_-42" value="" style="rounded=1;whiteSpace=wrap;html=1;strokeColor=#0070F2;fillColor=#ffffff;arcSize=14;absoluteArcSize=1;imageWidth=64;imageHeight=64;strokeWidth=1.5;" parent="uZPeagV1LzCzwJO0KJH_-1" vertex="1">
          <mxGeometry x="823" y="4281" width="292.12" height="439" as="geometry" />
        </mxCell>
        <mxCell id="uZPeagV1LzCzwJO0KJH_-43" style="edgeStyle=orthogonalEdgeStyle;rounded=0;orthogonalLoop=1;jettySize=auto;html=1;fontColor=#FFFFFF;strokeColor=#595959;endArrow=block;endFill=1;strokeWidth=2;endSize=3;startArrow=none;exitX=0.001;exitY=0.303;exitDx=0;exitDy=0;exitPerimeter=0;" parent="uZPeagV1LzCzwJO0KJH_-1" source="uZPeagV1LzCzwJO0KJH_-66" edge="1">
          <mxGeometry relative="1" as="geometry">
            <mxPoint x="697" y="4417" as="targetPoint" />
            <mxPoint x="844" y="4416" as="sourcePoint" />
            <Array as="points">
              <mxPoint x="845" y="4417" />
            </Array>
          </mxGeometry>
        </mxCell>
        <mxCell id="uZPeagV1LzCzwJO0KJH_-44" value="&lt;p style=&quot;line-height: 70%;&quot;&gt;&lt;b data-stringify-type=&quot;bold&quot; style=&quot;box-sizing: inherit; font-family: Slack-Lato, Slack-Fractions, appleLogo, sans-serif; font-size: 8px; font-variant-ligatures: common-ligatures; text-align: left;&quot;&gt;Connectivity for Machine Learning&lt;/b&gt;&lt;/p&gt;" style="rounded=1;whiteSpace=wrap;html=1;arcSize=50;fillColor=default;fontColor=default;strokeColor=#475f75;fontFamily=Helvetica;fontSize=12;autosize=1;absoluteArcSize=1;strokeWidth=1.5;labelBackgroundColor=none;verticalAlign=middle;fontStyle=1;gradientColor=none;align=center;" parent="uZPeagV1LzCzwJO0KJH_-1" vertex="1">
          <mxGeometry x="725" y="4403" width="95" height="27" as="geometry" />
        </mxCell>
        <mxCell id="uZPeagV1LzCzwJO0KJH_-46" value="&lt;p style=&quot;margin: 0px; font-variant-numeric: normal; font-variant-east-asian: normal; font-variant-alternates: normal; font-kerning: auto; font-optical-sizing: auto; font-feature-settings: normal; font-variation-settings: normal; font-variant-position: normal; font-stretch: normal; font-size: 14px; line-height: normal;&quot; class=&quot;p1&quot;&gt;Machine Learning platforms&lt;/p&gt;" style="text;whiteSpace=wrap;html=1;fontFamily=Helvetica;fontSize=14;fontStyle=1;verticalAlign=middle;fontColor=default;align=left;" parent="uZPeagV1LzCzwJO0KJH_-1" vertex="1">
          <mxGeometry x="810" y="4247" width="200" height="14.5" as="geometry" />
        </mxCell>
        <mxCell id="uZPeagV1LzCzwJO0KJH_-66" value="&lt;p style=&quot;margin-top: 0pt; margin-bottom: 0pt; margin-left: 0in; direction: ltr; unicode-bidi: embed; word-break: normal; font-size: 14px;&quot;&gt;&lt;/p&gt;&lt;div style=&quot;font-size: 14px;&quot;&gt;&lt;br style=&quot;font-size: 14px;&quot;&gt;&lt;/div&gt;&lt;p style=&quot;font-size: 14px;&quot;&gt;&lt;/p&gt;" style="rounded=1;whiteSpace=wrap;html=1;strokeColor=#0070F2;strokeWidth=1.5;fillColor=#EBF8FF;align=center;verticalAlign=top;fontStyle=1;fontSize=14;fontFamily=Helvetica;fontColor=default;arcSize=4;" parent="uZPeagV1LzCzwJO0KJH_-1" vertex="1">
          <mxGeometry x="845" y="4340" width="250.12" height="261" as="geometry" />
        </mxCell>
        <mxCell id="uZPeagV1LzCzwJO0KJH_-67" value="&#xa;Training, Deployment, Prediction&amp;nbsp;&#xa;&#xa;" style="rounded=1;whiteSpace=wrap;html=1;strokeColor=#0070F2;strokeWidth=1.5;fillColor=#EBF8FF;align=center;verticalAlign=middle;arcSize=17;spacing=2;fontStyle=1;fontFamily=Helvetica;fontSize=13;fontColor=default;spacingTop=14;" parent="uZPeagV1LzCzwJO0KJH_-1" vertex="1">
          <mxGeometry x="846" y="4630" width="248" height="58.19" as="geometry" />
        </mxCell>
        <mxCell id="uZPeagV1LzCzwJO0KJH_-71" style="edgeStyle=orthogonalEdgeStyle;rounded=0;orthogonalLoop=1;jettySize=auto;html=1;strokeColor=#595959;strokeWidth=2;align=center;verticalAlign=middle;fontFamily=Helvetica;fontSize=11;fontColor=#FFFFFF;labelBackgroundColor=default;startArrow=none;endArrow=block;endFill=1;endSize=3;exitX=0;exitY=0.5;exitDx=0;exitDy=0;entryX=1.009;entryY=0.441;entryDx=0;entryDy=0;entryPerimeter=0;" parent="uZPeagV1LzCzwJO0KJH_-1" source="uZPeagV1LzCzwJO0KJH_-70" target="uZPeagV1LzCzwJO0KJH_-6" edge="1">
          <mxGeometry relative="1" as="geometry">
            <mxPoint x="1293.9299999999998" y="4530" as="targetPoint" />
            <Array as="points">
              <mxPoint x="778" y="4542" />
              <mxPoint x="778" y="4616" />
            </Array>
          </mxGeometry>
        </mxCell>
        <mxCell id="uZPeagV1LzCzwJO0KJH_-102" value="&lt;p style=&quot;line-height: 100%; font-size: 12px;&quot;&gt;&lt;b style=&quot;font-size: 12px;&quot;&gt;&lt;font face=&quot;arial black&quot; style=&quot;font-size: 12px;&quot; color=&quot;#ffffff&quot;&gt;1&lt;/font&gt;&lt;/b&gt;&lt;/p&gt;" style="ellipse;whiteSpace=wrap;html=1;aspect=fixed;rotation=0;gradientColor=#0057D2;strokeColor=none;gradientDirection=east;fillColor=#2395FF;rounded=0;pointerEvents=0;fontFamily=Helvetica;fontSize=12;fontColor=default;spacingTop=4;spacingBottom=4;spacingLeft=4;spacingRight=4;verticalAlign=middle;container=0;flipV=1;" parent="uZPeagV1LzCzwJO0KJH_-1" vertex="1">
          <mxGeometry x="340.38" y="4298.47" width="27.56" height="27.558999999999997" as="geometry" />
        </mxCell>
        <mxCell id="uZPeagV1LzCzwJO0KJH_-103" value="&lt;p style=&quot;line-height: 100%; font-size: 12px;&quot;&gt;&lt;font face=&quot;arial black&quot; color=&quot;#ffffff&quot; style=&quot;font-size: 12px;&quot;&gt;&lt;b style=&quot;font-size: 12px;&quot;&gt;2&lt;/b&gt;&lt;/font&gt;&lt;/p&gt;" style="ellipse;whiteSpace=wrap;html=1;aspect=fixed;rotation=0;gradientColor=#0057D2;strokeColor=none;gradientDirection=east;fillColor=#2395FF;rounded=0;pointerEvents=0;fontFamily=Helvetica;fontSize=12;fontColor=default;spacingTop=4;spacingBottom=4;spacingLeft=4;spacingRight=4;verticalAlign=middle;container=0;flipV=1;" parent="uZPeagV1LzCzwJO0KJH_-1" vertex="1">
          <mxGeometry x="339.2" y="4515" width="29.92" height="29.9212" as="geometry" />
        </mxCell>
        <mxCell id="uZPeagV1LzCzwJO0KJH_-104" value="&lt;p style=&quot;line-height: 100%; font-size: 12px;&quot;&gt;&lt;b style=&quot;font-size: 12px;&quot;&gt;&lt;font face=&quot;arial black&quot; style=&quot;font-size: 12px;&quot; color=&quot;#ffffff&quot;&gt;4&lt;/font&gt;&lt;/b&gt;&lt;/p&gt;" style="ellipse;whiteSpace=wrap;html=1;aspect=fixed;rotation=0;gradientColor=#0057D2;strokeColor=none;gradientDirection=east;fillColor=#2395FF;rounded=0;pointerEvents=0;fontFamily=Helvetica;fontSize=12;fontColor=default;spacingTop=4;spacingBottom=4;spacingLeft=4;spacingRight=4;verticalAlign=middle;container=0;" parent="uZPeagV1LzCzwJO0KJH_-1" vertex="1">
          <mxGeometry x="742" y="4566" width="29.92" height="29.9212" as="geometry" />
        </mxCell>
        <mxCell id="uZPeagV1LzCzwJO0KJH_-105" value="&lt;p style=&quot;line-height: 100%; font-size: 12px;&quot;&gt;&lt;b style=&quot;font-size: 12px;&quot;&gt;&lt;font face=&quot;arial black&quot; style=&quot;font-size: 12px;&quot; color=&quot;#ffffff&quot;&gt;3&lt;/font&gt;&lt;/b&gt;&lt;/p&gt;" style="ellipse;whiteSpace=wrap;html=1;aspect=fixed;rotation=0;gradientColor=#0057D2;strokeColor=none;gradientDirection=east;fillColor=#2395FF;rounded=0;pointerEvents=0;fontFamily=Helvetica;fontSize=12;fontColor=default;spacingTop=4;spacingBottom=4;spacingLeft=4;spacingRight=4;verticalAlign=middle;container=0;" parent="uZPeagV1LzCzwJO0KJH_-1" vertex="1">
          <mxGeometry x="750" y="4367" width="29.92" height="29.9212" as="geometry" />
        </mxCell>
        <mxCell id="uZPeagV1LzCzwJO0KJH_-5" value="&lt;span style=&quot;caret-color: rgba(0, 0, 0, 0); color: rgba(0, 0, 0, 0); font-family: monospace; font-size: 0px; font-style: normal; font-variant-caps: normal; font-weight: 400; letter-spacing: normal; text-align: start; text-indent: 0px; text-transform: none; word-spacing: 0px; -webkit-text-stroke-width: 0px; background-color: rgb(248, 249, 250); text-decoration: none; float: none; display: inline !important;&quot;&gt;%3CmxGraphModel%3E%3Croot%3E%3CmxCell%20id%3D%220%22%2F%3E%3CmxCell%20id%3D%221%22%20parent%3D%220%22%2F%3E%3CmxCell%20id%3D%222%22%20value%3D%22%26lt%3Bp%20style%3D%26quot%3Bcaret-color%3A%20rgb(0%2C%200%2C%200)%3B%20color%3A%20rgb(0%2C%200%2C%200)%3B%20margin-top%3A%200pt%3B%20margin-bottom%3A%200pt%3B%20margin-left%3A%200in%3B%20direction%3A%20ltr%3B%20unicode-bidi%3A%20embed%3B%20word-break%3A%20normal%3B%26quot%3B%26gt%3B%26lt%3Bspan%20style%3D%26quot%3Bcolor%3A%20rgb(89%2C%2089%2C%2089)%3B%20font-size%3A%2016px%3B%20font-weight%3A%20700%3B%26quot%3B%26gt%3BSAP%20Data%20Warehouse%26amp%3Bnbsp%3BCloud%26lt%3B%2Fspan%26gt%3B%26lt%3Bbr%26gt%3B%26lt%3B%2Fp%26gt%3B%22%20style%3D%22rounded%3D0%3BwhiteSpace%3Dwrap%3Bhtml%3D1%3BstrokeColor%3D%23B3B3B3%3BstrokeWidth%3D2%3BfillColor%3Dnone%3Balign%3Dleft%3BverticalAlign%3Dtop%3BfontSize%3D11%3BfontFamily%3DArial%3Bcontainer%3D1%3BrecursiveResize%3D0%3Bcollapsible%3D0%3BfontColor%3D%23595959%3B%22%20vertex%3D%221%22%20parent%3D%221%22%3E%3CmxGeometry%20x%3D%22600%22%20y%3D%22560%22%20width%3D%22400%22%20height%3D%22435%22%20as%3D%22geometry%22%2F%3E%3C%2FmxCell%3E%3CmxCell%20id%3D%223%22%20style%3D%22edgeStyle%3Dnone%3Brounded%3D0%3BorthogonalLoop%3D1%3BjettySize%3Dauto%3Bhtml%3D1%3BentryX%3D0%3BentryY%3D0.5%3BentryDx%3D0%3BentryDy%3D0%3Bdashed%3D1%3BstartArrow%3Dclassic%3BstartFill%3D1%3BendArrow%3Dclassic%3BendFill%3D1%3BstrokeColor%3D%23C0399F%3BstrokeWidth%3D1%3BfontSize%3D16%3B%22%20edge%3D%221%22%20parent%3D%222%22%3E%3CmxGeometry%20relative%3D%221%22%20as%3D%22geometry%22%3E%3CmxPoint%20x%3D%22377%22%20y%3D%2277%22%20as%3D%22sourcePoint%22%2F%3E%3CmxPoint%20x%3D%22377%22%20y%3D%2277%22%20as%3D%22targetPoint%22%2F%3E%3C%2FmxGeometry%3E%3C%2FmxCell%3E" style="rounded=1;whiteSpace=wrap;html=1;strokeColor=#0070F2;strokeWidth=1.5;fillColor=default;align=left;verticalAlign=top;fontSize=11;fontFamily=Arial;container=0;recursiveResize=0;collapsible=0;fontColor=#595959;arcSize=3;" parent="uZPeagV1LzCzwJO0KJH_-1" vertex="1">
          <mxGeometry x="445.93" y="4279" width="249.07" height="228" as="geometry" />
        </mxCell>
        <mxCell id="uZPeagV1LzCzwJO0KJH_-9" value="&lt;font size=&quot;1&quot; style=&quot;&quot;&gt;&lt;b style=&quot;font-size: 16px;&quot;&gt;SAP Datasphere&lt;/b&gt;&lt;/font&gt;" style="text;whiteSpace=wrap;html=1;align=center;spacing=0;container=0;fontColor=default;fontSize=14;" parent="uZPeagV1LzCzwJO0KJH_-1" vertex="1">
          <mxGeometry x="488.25" y="4291.97" width="135.75" height="30.06" as="geometry" />
        </mxCell>
        <mxCell id="uZPeagV1LzCzwJO0KJH_-10" value="" style="shape=image;verticalLabelPosition=bottom;verticalAlign=top;imageAspect=0;aspect=fixed;image=data:image/svg+xml,PHN2ZyB4bWxucz0iaHR0cDovL3d3dy53My5vcmcvMjAwMC9zdmciIGZpbGw9Im5vbmUiIHZpZXdCb3g9IjAgMCA0OSA0OSIgaGVpZ2h0PSI0OSIgd2lkdGg9IjQ5Ij4mI3hhOzxnIGNsaXAtcGF0aD0idXJsKCNjbGlwMF8yNjIyXzM5MTApIj4mI3hhOzxjaXJjbGUgc3Ryb2tlLXdpZHRoPSIwLjg1NzE0MyIgc3Ryb2tlPSIjRDVEQUREIiBmaWxsPSJ1cmwoI3BhaW50MF9saW5lYXJfMjYyMl8zOTEwKSIgcj0iMjMuNTcxNCIgY3k9IjI0LjAzNDkiIGN4PSIyNC41Ii8+JiN4YTs8cGF0aCBmaWxsPSJ1cmwoI3BhaW50MV9yYWRpYWxfMjYyMl8zOTEwKSIgZD0iTTI0LjE0NzEgMjguNDU4MUgyNC4xMTk3QzIyLjY4ODMgMjguNDUyNCAyMS4zMTczIDI3LjkxNzMgMjAuMzA1MSAyNi45NjkzQzE5LjI5MjkgMjYuMDIxNCAxOC43MjE2IDI0LjczNzIgMTguNzE1NSAyMy4zOTY2VjIzLjM0MzlDMTguNzA5MyAyMi4wMTE3IDE4LjgxMjkgMjAuNjgwOSAxOS4wMjU0IDE5LjM2MzZDMTkuMTk4OSAxOC4yNjQxIDE5LjQ3MTggMTcuMTgwNCAxOS44NDEgMTYuMTI0MkMyMC4xNzgzIDE1LjE5MjkgMjAuNTYyNiAxNC40NjM2IDIwLjk5MzkgMTMuOTM2M0MyMS40MjUzIDEzLjQwOSAyMS44NjYzIDEzLjE0NTMgMjIuMzE2OSAxMy4xNDUzQzIzLjIzNjMgMTMuMTQ1MyAyMy45MjU3IDEzLjQ5NjcgMjQuMzg0OSAxNC4xOTk1QzI0LjgyNzYgMTQuODczMiAyNS4wNjU5IDE1LjY0NjUgMjUuMDc1MSAxNi40MzY1QzI1LjA2NzkgMTMuOTE4OCAyNC43MzQ2IDEyLjMwNzUgMjQuMDc1MSAxMS42MDI2QzIzLjQwODMgMTAuODg5OSAyMi44MjIyIDEwLjUzNCAyMi4zMTY5IDEwLjUzNDlDMjEuNjk3MiAxMC41MzQ5IDIxLjEwNTkgMTAuNzk4NiAyMC41NDI5IDExLjMyNTlDMTkuOTk4MSAxMS44NzEyIDE5LjUxNzggMTIuNjgxIDE5LjEwMTggMTMuNzU1NEMxOC42MzExIDE1LjA1ODMgMTguMjkzMyAxNi40MDAxIDE4LjA5MyAxNy43NjI4QzE3LjgzMDQgMTkuNjMyOSAxNy42OTkgMjEuNTE3MSAxNy42OTk1IDIzLjQwMzNDMTcuNzAwMSAyNC4wOTI2IDE3LjkwNDYgMjQuNzY4MSAxOC4yOTA0IDI1LjM1NTFDMTguNjY4OCAyNS45NzQzIDE5LjE3MDIgMjYuNTE5OSAxOS43Njc2IDI2Ljk2MjZDMjAuMzg5NyAyNy40MjYxIDIxLjA4ODggMjcuNzkwOCAyMS44MzcgMjguMDQyNEMyMi41NTE2IDI4LjMxNjYgMjMuMzE1OCAyOC40NTk2IDI0LjA4OCAyOC40NjM1TDI0LjE0NzEgMjguNDU4MVoiLz4mI3hhOzxwYXRoIGZpbGw9InVybCgjcGFpbnQyX3JhZGlhbF8yNjIyXzM5MTApIiBkPSJNMjIuNjU1NiAzNC41MjI1QzIxLjk5ODQgMzQuNzMzIDIxLjQ0NSAzNC43MTUxIDIwLjk5NTQgMzQuNDY4NUMyMC42NzggMzQuMjE4NSAyMC40MjI4IDMzLjkwNjcgMjAuMjQ3NCAzMy41NTQ3QzIwLjA1ODQgMzMuMTk4MiAxOS45NTk3IDMyLjgwNTYgMTkuOTU5MiAzMi40MDc0QzE5Ljk1ODYgMzIuMzQxNSAxOS45NjM1IDMyLjI3NTYgMTkuOTczNiAzMi4yMTA0QzE5Ljk4MSAzMi4xNTg2IDE5Ljk4NTYgMzIuMTA2NSAxOS45ODczIDMyLjA1NDNDMTkuNjgzMyAzMy4zMzUyIDE5LjU4NzUgMzQuNDQ5OSAxOS42OTk4IDM1LjM5ODVDMTkuODEyMiAzNi4zNDc4IDIwLjE4NzkgMzYuOTgwNCAyMC44MjY4IDM3LjI5NjJDMjEuMzcwNiAzNy41OTU4IDIyLjAzNjQgMzcuNjEzNCAyMi44MjQyIDM3LjM0ODhDMjMuNjMxMiAzNy4xMDIzIDI0LjQ4OTYgMzYuNjI4MSAyNS4zOTk1IDM1LjkyNjJDMjYuNDIzNSAzNS4xMTI2IDI3LjM2MTcgMzQuMjA4NiAyOC4yMDEgMzMuMjI2N0MyOS4xODQzIDMyLjA1OCAzMC4wNzc2IDMwLjgyNTMgMzAuODc0MyAyOS41Mzc5TDMxLjE4NDEgMjkuMDg5OEMzMC44NjU2IDI4Ljk1NDggMzAuNTcwMiAyOC44MTU4IDMwLjI5NzggMjguNjg0OUMzMC4wNDM3IDI4LjU2MjcgMjkuNzkzNCAyOC40Mjc3IDI5LjU0OCAyOC4yODE5QzI4LjgyMTYgMjkuMzEyMyAyOC4wMjM1IDMwLjI5NjggMjcuMTU5MSAzMS4yMjkxQzI2LjQzNjMgMzIuMDEzNiAyNS42NDA2IDMyLjczNjMgMjQuNzgxMiAzMy4zODg3QzI0LjAyMTMgMzMuOTUwMiAyMy4zMTI3IDM0LjMyODEgMjIuNjU1NiAzNC41MjI1WiIvPiYjeGE7PHBhdGggZmlsbD0idXJsKCNwYWludDNfcmFkaWFsXzI2MjJfMzkxMCkiIGQ9Ik0zMi42OTg3IDI2LjA3MzFDMzIuODY3MyAyNS42OTUyIDMzLjAyNTkgMjUuMzEzMiAzMy4xNzcyIDI0LjkyNThIMzMuMTgyOUMzMy4wMTQzIDI0LjY5NzcgMzIuODQgMjQuNDg1OCAzMi42NjI3IDI0LjI4MzRDMzIuNDg1NCAyNC4wODA5IDMyLjMwMjQgMjMuODgzOCAzMi4xMTUxIDIzLjY4OTVDMzEuODMyNiAyNC4zMDUgMzEuNTU0NSAyNC44NjY0IDMxLjI4MzYgMjUuMzc2N0MzMS4wMzc4IDI1LjgzOTQgMzAuNzcwOCAyNi4yODY2IDMwLjQ4NTYgMjYuNzIwMkMzMC43MzIgMjYuODYyNCAzMC45OTU1IDI2Ljk3NjggMzEuMjcwNiAyNy4wNjExQzMxLjU1MDIgMjcuMTQ5MSAzMS44NDA5IDI3LjIwMjIgMzIuMTM1MyAyNy4yMTlIMzIuMTY0MUMzMi4zNTE0IDI2LjgzMyAzMi41MzAxIDI2LjQ1MSAzMi42OTg3IDI2LjA3MzFaIi8+JiN4YTs8cGF0aCBmaWxsPSJ1cmwoI3BhaW50NF9yYWRpYWxfMjYyMl8zOTEwKSIgZD0iTTMzLjcxMTggMTguMTUxNVYxOC4xNzcxQzMzLjY3OTYgMTguNjQ5OCAzMy42MjA5IDE5LjEyMDcgMzMuNTM2IDE5LjU4NzZDMzMuNDU3MyAyMC4wMDExIDMzLjM1OTQgMjAuNDEwMSAzMy4yNDIzIDIwLjgxNDRDMzMuMzkyMSAyMC45MjEyIDMzLjUzNTggMjEuMDM1MyAzMy42NzI5IDIxLjE1NkMzMy44MDU4IDIxLjI3NDYgMzMuOTUwNiAyMS4zODA4IDM0LjEwNTMgMjEuNDczMkMzNC4xNDQ3IDIxLjMwMzYgMzQuMTczMSAyMS4xMzE4IDM0LjE5MDMgMjAuOTU5QzM0LjIwOSAyMC43NyAzNC4yMTc3IDIwLjU3NTYgMzQuMjE3NyAyMC4zNjUxQzM0LjIxNzggMTkuOTgwMSAzNC4xNzU4IDE5LjU5NjEgMzQuMDkyMyAxOS4yMTkxQzM0LjAxMDcgMTguODUwNSAzMy44ODMgMTguNDkyMiAzMy43MTE4IDE4LjE1MTVaIi8+JiN4YTs8cGF0aCBmaWxsPSJ1cmwoI3BhaW50NV9yYWRpYWxfMjYyMl8zOTEwKSIgZD0iTTE2LjkxNDEgMjUuMjQzTDE2LjgyOTEgMjUuMjk1N0MxNi41NzMxIDI1LjQxNDQgMTYuMzI0NCAyNS41NDY1IDE2LjA4NCAyNS42OTExQzE1Ljg0ODcgMjUuODMxNSAxNS42MjgyIDI1Ljk3MTkgMTUuNDIyNiAyNi4xMTIzTDE1LjA1NjUgMjUuNTMzMkMxNC4yNzIyIDI0LjI0NDYgMTMuNTg1NCAyMi45MDYgMTMuMDAxNSAyMS41MjcyQzEyLjUyMDIgMjAuMzU3NyAxMi4xNTc0IDE5LjE0ODQgMTEuOTE3OCAxNy45MTUzQzExLjcyMDggMTYuODI2NSAxMS42OTczIDE1Ljg5NTIgMTEuODQ3MiAxNS4xMjEzQzExLjk5NyAxNC4zNDc1IDEyLjM0NDMgMTMuODExMiAxMi44ODkxIDEzLjUxMjRDMTMuNTI2MSAxMy4xNzg2IDE0LjMwOTUgMTMuMTk2MSAxNS4yMzk1IDEzLjU2NTFDMTYuMTY5NiAxMy45MzQgMTcuMTM4OSAxNC41OTQgMTguMTQ3NyAxNS41NDUxQzE3LjY3ODEgMTUuMjY0MiAxNy4xNTg5IDE1LjA2MzUgMTYuNjE0NCAxNC45NTI2QzE2LjIwNjkgMTQuODY0OSAxNS43NzkxIDE0LjkyNjIgMTUuNDE4MiAxNS4xMjRDMTQuOTQ4NCAxNS4zNjk3IDE0LjYzODYgMTUuODA4OCAxNC40ODg3IDE2LjQ0MTRDMTQuMzU3MSAxNy4yMTQ4IDE0LjM2MiAxOC4wMDMyIDE0LjUwMzEgMTguNzc1MUMxNC42NzY1IDE5LjgwMzYgMTQuOTU0NCAyMC44MTQyIDE1LjMzMzIgMjEuNzkzMUMxNS43ODE1IDIyLjk3NzkgMTYuMzE3NSAyNC4xMzIxIDE2LjkzNzIgMjUuMjQ3MUwxNi45MTQxIDI1LjI0M1oiLz4mI3hhOzxwYXRoIGZpbGw9InVybCgjcGFpbnQ2X3JhZGlhbF8yNjIyXzM5MTApIiBkPSJNMTYuNTc1NSAyNy43MTk4QzE2Ljc0NTQgMjcuNTA4NCAxNi45Mzg3IDI3LjMxNDMgMTcuMTUxOSAyNy4xNDA4QzE3LjM3NDggMjYuOTYwNSAxNy42MTYyIDI2LjgwMTQgMTcuODcyNSAyNi42NjU3QzE4LjIwOTcgMjcuMTkzOSAxOC41NDYgMjcuNjk5MSAxOC44ODEzIDI4LjE4MTRDMTkuMjE4NSAyOC42NjYgMTkuNTY1OCAyOS4xMjYyIDE5LjkyMzIgMjkuNTY2MkwxOS40NDQ3IDI5LjY0NDVIMTkuNTAwOUMxOS4zMTIyIDI5LjY3OTYgMTkuMTE2MiAyOS43MTA3IDE4LjkwODYgMjkuNzM3N0MxOC43MDExIDI5Ljc2NDcgMTguNDg3OCAyOS43ODYzIDE4LjI2MTYgMjkuODAyNEMxNy45ODAxIDI5LjUwNDYgMTcuNjk4NiAyOS4xNzk4IDE3LjQxNzEgMjguODI3OUMxNy4xMzU2IDI4LjQ3NjEgMTYuODU0MSAyOC4xMTYyIDE2LjU3MjYgMjcuNzQ4MUwxNi41NzU1IDI3LjcxOThaIi8+JiN4YTs8cGF0aCBmaWxsPSJ1cmwoI3BhaW50N19yYWRpYWxfMjYyMl8zOTEwKSIgZD0iTTI0LjExOTcgMzMuNTE5NkMyMy41Mjk1IDMzLjQ3MiAyMi45NTI4IDMzLjMyNzEgMjIuNDE2MyAzMy4wOTE4QzIxLjg5ODcgMzIuODY0OSAyMS40MTk4IDMyLjU2NzUgMjAuOTk1NCAzMi4yMDlMMjIuMDM1OSAzMS44MzkyVjMxLjg2NjJDMjIuMzU1OCAzMi4xNjQ5IDIyLjY4OTIgMzIuNDU0NyAyMy4wMzYgMzIuNzM1NEMyMy4zODgyIDMzLjAyMDggMjMuNzU5MyAzMy4yODQ5IDI0LjE0NzEgMzMuNTI2NEwyNC4xMTk3IDMzLjUxOTZaIi8+JiN4YTs8cGF0aCBmaWxsPSJ1cmwoI3BhaW50OF9yYWRpYWxfMjYyMl8zOTEwKSIgZD0iTTI2Ljg3OCAyNy43MTk4SDI2LjkwNTRDMjcuNzI4MSAyNy4yODQzIDI4LjQxMjggMjYuNjUyMyAyOC44ODk4IDI1Ljg4ODJDMjkuMzg0NiAyNS4xMTM1IDI5LjY0MjkgMjQuMjI2NCAyOS42MzYzIDIzLjMyMzdDMjkuNjM3NyAyMi44NjAzIDI5LjU3MTMgMjIuMzk4OSAyOS40Mzg5IDIxLjk1MjRMMjkuNDIwNSAyMS44OTExQzI5LjUyNDMgMjIuMTg1NSAyOS42MDU2IDIyLjQ4NyAyOS42NjM3IDIyLjc5MzNDMjkuNzk0OSAyMy41MjE5IDI5Ljc5NDkgMjQuMjY2IDI5LjY2MzcgMjQuOTk0N0MyOS41Mzk5IDI1LjcwMzYgMjkuMjgyNyAyNi4zODY0IDI4LjkwNDMgMjcuMDExMkMyOC41Mzg0IDI3LjYxNyAyOC4wMDM0IDI4LjExODIgMjcuMzU2NSAyOC40NjA4QzI1LjYyOTEgMjkuNDIwMiAyMy44MzI1IDMwLjI2NTggMjEuOTc5NyAzMC45OTE2QzIwLjM4NDggMzEuNTkgMTguOTg2OSAzMS45ODk5IDE3Ljc4NiAzMi4xOTE1QzE2LjU4NTEgMzIuMzkzMSAxNS41OTk4IDMyLjM5NzUgMTQuODMwMyAzMi4yMDVDMTQuMDYxNyAzMi4wMjk1IDEzLjUxNzkgMzEuNjg2NyAxMy4xOTg5IDMxLjE3NjVDMTIuOTUzOSAzMC43NzI1IDEyLjk5NjIgMzAuMTIyMyAxMy4zMjU3IDI5LjIyNjFDMTMuNjUxMiAyOC4zNDA5IDE0Ljk2NzUgMjcuMjc2NSAxNy4yNzQ2IDI2LjAzMzFDMTYuNTQ4NCAyNi40MzE1IDE1LjkzMiAyNi45ODQ3IDE1LjQ3NTkgMjcuNjQ4M0MxNS4wMjQzIDI4LjMxNTkgMTUuMDUyMiAyOS4wNjI4IDE1LjU1OTUgMjkuODg4OEMxNS44MjE4IDMwLjMxMDggMTYuMzA5OCAzMC41NjU1IDE3LjAyMzcgMzAuNjUyOEMxNy43NTU3IDMwLjc0MjggMTguNjI4MSAzMC42ODU2IDE5LjY0MDcgMzAuNDgxNEMyMC43OTM5IDMwLjIzOTggMjEuOTIzNyAyOS45MDk0IDIzLjAxODcgMjkuNDkzNEMyNC4zMjY4IDI4Ljk4NTkgMjUuNTk2NSAyOC4zOTU2IDI2LjgxOSAyNy43MjY1TDI2Ljg3OCAyNy43MTk4WiIvPiYjeGE7PHBhdGggZmlsbD0idXJsKCNwYWludDlfcmFkaWFsXzI2MjJfMzkxMCkiIGQ9Ik0yNi44NDkyIDE4Ljg4ODVDMjYuNDQ0IDE4LjY1NiAyNi4wMDggMTguNDc0NSAyNS41NTIyIDE4LjM0ODZDMjUuMDc3MSAxOC4yMTU5IDI0LjU4MzggMTguMTQ5NSAyNC4wODggMTguMTUxNUMyMy4xMTU0IDE4LjE0MDUgMjIuMTU5MyAxOC4zODcxIDIxLjMyOTcgMTguODYyOEMyMC41MTc3IDE5LjMyNDQgMTkuODQwNyAxOS45Njc3IDE5LjM1OTcgMjAuNzM0OUMxOS43NTEgMjAuMTAyOSAyMC4yNjkyIDE5LjU0NzggMjAuODg1OSAxOS4xMDA0QzIxLjQ5MDkgMTguNjMyNSAyMi4xNzIxIDE4LjI1ODQgMjIuOTAzNCAxNy45OTIyQzIzLjYyMTIgMTcuNzMxMiAyNC4zODQ1IDE3LjU5NzEgMjUuMTU0NSAxNy41OTY4QzI1LjkwNTEgMTcuNTkyNSAyNi42NDM1IDE3Ljc3NDYgMjcuMjk0NSAxOC4xMjQ1QzI5LjAyOTIgMTkuMDM0IDMwLjY5NCAyMC4wNTYgMzIuMjc2NSAyMS4xODNDMzMuNjQ1NSAyMi4xODQ1IDM0LjcxOTcgMjMuMTIwMyAzNS40OTg4IDIzLjk5MDVDMzYuMjc4IDI0Ljg2MDYgMzYuNzggMjUuNjU1NiAzNy4wMDQ4IDI2LjM3NTVDMzcuMjI5NiAyNy4wOTUzIDM3LjE4MTYgMjcuNzEwOCAzNi44NjA3IDI4LjIyMTlDMzYuNjE3NiAyOC42MjU5IDM1Ljk5ODQgMjguOTIwMiAzNS4wMDMxIDI5LjEwNDZDMzQuMDMzNSAyOS4yODQzIDMyLjQxMjkgMjguNzY3NyAzMC4xNDE0IDI3LjU1NDdDMzAuODUwNiAyNy45MTg3IDMxLjY0MDkgMjguMTI0OCAzMi40NTA5IDI4LjE1NThDMzMuMzA0IDI4LjE4MTkgMzMuOTg0MiAyNy43ODE5IDM0LjQ5MTUgMjYuOTU1OEMzNC43MzQ2IDI2LjUzNDcgMzQuNzI0OSAyNi4wMDc0IDM0LjQ2MjcgMjUuMzc0QzM0LjE4MjEgMjQuNzYwMyAzMy42OTQ1IDI0LjA4ODEgMzIuOTk5OSAyMy4zNTc0QzMyLjIwMzcgMjIuNTM2OSAzMS4zMzI5IDIxLjc4MjcgMzAuMzk3MyAyMS4xMDM0QzI5LjI2NyAyMC4yNzQ1IDI4LjA3MjMgMTkuNTI1NiAyNi44MjMzIDE4Ljg2MjhMMjYuODQ5MiAxOC44ODg1WiIvPiYjeGE7PHBhdGggZmlsbD0idXJsKCNwYWludDEwX3JhZGlhbF8yNjIyXzM5MTApIiBkPSJNMjYuNTA2MiAxNC44Mjk4QzI4LjExNjggMTQuODIzMyAyOS43MjU3IDE0LjkyODkgMzEuMzE5NiAxNS4xNDU2QzMyLjYzODUgMTUuMzM0MyAzMy45MzQ1IDE1LjY0MzUgMzUuMTg5IDE2LjA2ODhDMzYuMjg3MSAxNi40NTQ5IDM3LjE1NTIgMTYuOTA0OCAzNy43OTMxIDE3LjQxODZDMzguNDMwMSAxNy45NDUgMzguNzQ5IDE4LjQ5ODQgMzguNzUgMTkuMDc4OEMzOC43NSAxOS43NDY0IDM4LjMzNzQgMjAuMzY2IDM3LjUxMjEgMjAuOTM3NEMzNi42ODY4IDIxLjUwODcgMzUuNTgxOSAyMS45Nzg5IDM0LjE5NzUgMjIuMzQ3OEMzNC42OTMgMjIuMDk4OCAzNS4xNDAyIDIxLjc3MzUgMzUuNTIwNCAyMS4zODU1QzM1LjgxNDkgMjEuMDk3IDM1Ljk4NTMgMjAuNzE2OCAzNS45OTg5IDIwLjMxNzhDMzUuOTk4OSAxOS44NDQ1IDM1Ljc0NTcgMTkuMzg3OSAzNS4yMzk0IDE4Ljk0NzhDMzQuNjAzNCAxOC40NDc2IDMzLjg3OTIgMTguMDU0OCAzMy4wOTk0IDE3Ljc4NzFDMzIuMDU5MSAxNy40MTY4IDMwLjk4NTUgMTcuMTM0NCAyOS44OTE0IDE2Ljk0MzVDMjguNTgyMyAxNi43MDU5IDI3LjI1NTMgMTYuNTY1MSAyNS45MjI2IDE2LjUyMjRWMTQuODI5OEgyNi41MDYyWiIvPiYjeGE7PHBhdGggZmlsbD0idXJsKCNwYWludDExX3JhZGlhbF8yNjIyXzM5MTApIiBkPSJNMjQuMDkwOSAxNi4yNTI0QzI0LjA5MDkgMTYuMDIyMSAyNC4wNjI4IDE1Ljc5MjUgMjQuMDA3MyAxNS41NjgxQzIzLjk1NDIgMTUuMzUyNSAyMy44ODI3IDE1LjE0MTIgMjMuNzkzNSAxNC45MzYzQzIzLjI3MyAxNC45NzU3IDIyLjc3NjUgMTUuMDI0OCAyMi4zMDM5IDE1LjA4MzVDMjEuODI2NCAxNS4xNDI5IDIxLjM2MTkgMTUuMjE3NiAyMC45MTA0IDE1LjMwNzZMMjEuMDc5IDE1LjI4MTlDMjAuOTg1MyAxNS40NTc0IDIwLjg4NTkgMTUuNjY1MyAyMC43ODM1IDE1LjkwMTVDMjAuNjgxMiAxNi4xMzc3IDIwLjU5MTkgMTYuMzcxMiAyMC41MTY5IDE2LjU5OTNMMjAuNDYwNyAxNi43MDQ2QzIxLjA2MjIgMTYuNjQ5NyAyMS42NjI2IDE2LjYwNDcgMjIuMjYyMSAxNi41Njk2QzIyLjg2MTYgMTYuNTM0NSAyMy40NjIxIDE2LjUxNyAyNC4wNjM1IDE2LjUxN0MyNC4wODE3IDE2LjQ3OTcgMjQuMDkxMSAxNi40MzkyIDI0LjA5MDkgMTYuMzk4MlYxNi4yNTI0WiIvPiYjeGE7PHBhdGggZmlsbD0idXJsKCNwYWludDEyX3JhZGlhbF8yNjIyXzM5MTApIiBkPSJNMjkuNDIwNSAyMS44OTExQzI5LjI5NTUgMjEuNDg1NiAyOS4xMTI3IDIxLjA5NzUgMjguODc2OSAyMC43Mzc2QzI5LjA5NzkgMjEuMTA1NCAyOS4yNzk4IDIxLjQ5MTcgMjkuNDIwNSAyMS44OTExWk0xOS45ODggMzIuMDUxMUwxOS45ODczIDMyLjA1NDNDMTkuOTg3NyAzMi4wNDAyIDE5Ljk4OCAzMi4wMjYxIDE5Ljk4OCAzMi4wMTJWMzIuMDUxMVpNMjkuNTQ4IDI4LjI4MTlMMjkuNTUxMyAyOC4yNzcyTDI5LjQ5NTEgMjguMjUwMkwyOS41NDggMjguMjgxOVpNMjMuODA5OSAxNC45MzUxTDIzLjc4MTEgMTQuOTA4MUwyMy43OTM1IDE0LjkzNjNMMjMuODA5OSAxNC45MzUxWk0zMC40ODIzIDI2LjcxODNMMzAuNDg1NiAyNi43MjAyQzMwLjQ1NjMgMjYuNzY0NyAzMC40MjY5IDI2LjgwOTEgMzAuMzk3MyAyNi44NTMzTDMwLjQ4MjMgMjYuNzE4M1pNMzMuMjQwNiAyMC44MTMyTDMzLjI0MjMgMjAuODE0NEwzMy4yMTE4IDIwLjkxODVMMzMuMjQwNiAyMC44MTMyWiIgY2xpcC1ydWxlPSJldmVub2RkIiBmaWxsLXJ1bGU9ImV2ZW5vZGQiLz4mI3hhOzxwYXRoIGZpbGw9InVybCgjcGFpbnQxM19yYWRpYWxfMjYyMl8zOTEwKSIgZD0iTTE0LjU3ODEgMTguMTc3MUwxNC42MDU1IDE4LjE1MTVDMTQuOTQ4MSAxNy43MDc2IDE1LjM2NjkgMTcuMzE5OSAxNS44NDQ4IDE3LjAwNDJDMTYuMzM4IDE2LjY3NiAxNi44Nzc5IDE2LjQxNDMgMTcuNDQ4OCAxNi4yMjY4QzE3LjQxMTMgMTYuMzg0NyAxNy4zNzM5IDE2LjU1MjEgMTcuMzM2NCAxNi43Mjc1QzE3LjI5NzUgMTYuOTA5NyAxNy4yNzg3IDE3LjA5NTEgMTcuMjgwMiAxNy4yODA5TDE3LjE5NTIgMTcuMzA3OUMxNi43MzI5IDE3LjQxMSAxNi4yNzczIDE3LjUzODUgMTUuODMwNCAxNy42ODk5QzE1LjQwMTEgMTcuODM0OCAxNC45ODI3IDE4LjAwNjYgMTQuNTc4MSAxOC4yMDQxVjE4LjE3NzFaIi8+JiN4YTs8L2c+JiN4YTs8ZGVmcz4mI3hhOzxsaW5lYXJHcmFkaWVudCBncmFkaWVudFVuaXRzPSJ1c2VyU3BhY2VPblVzZSIgeTI9IjQ0LjI3OTIiIHgyPSI0MS41NjQ1IiB5MT0iNi44NDc3NSIgeDE9IjQuODUyODciIGlkPSJwYWludDBfbGluZWFyXzI2MjJfMzkxMCI+JiN4YTs8c3RvcCBzdG9wLWNvbG9yPSJ3aGl0ZSIvPiYjeGE7PHN0b3Agc3RvcC1jb2xvcj0iI0VBRUNFRSIgb2Zmc2V0PSIxIi8+JiN4YTs8L2xpbmVhckdyYWRpZW50PiYjeGE7PHJhZGlhbEdyYWRpZW50IGdyYWRpZW50VHJhbnNmb3JtPSJ0cmFuc2xhdGUoMTYuMDQ2OSAxNC41ODcxKSByb3RhdGUoNDUpIHNjYWxlKDI2Ljc0MDMgMzIuNDUzMSkiIGdyYWRpZW50VW5pdHM9InVzZXJTcGFjZU9uVXNlIiByPSIxIiBjeT0iMCIgY3g9IjAiIGlkPSJwYWludDFfcmFkaWFsXzI2MjJfMzkxMCI+JiN4YTs8c3RvcCBzdG9wLWNvbG9yPSIjMDBCQkZGIi8+JiN4YTs8c3RvcCBzdG9wLWNvbG9yPSIjMDA4QkZGIiBvZmZzZXQ9IjEiLz4mI3hhOzwvcmFkaWFsR3JhZGllbnQ+JiN4YTs8cmFkaWFsR3JhZGllbnQgZ3JhZGllbnRUcmFuc2Zvcm09InRyYW5zbGF0ZSgxNi4wNDY5IDE0LjU4NzEpIHJvdGF0ZSg0NSkgc2NhbGUoMjYuNzQwMyAzMi40NTMxKSIgZ3JhZGllbnRVbml0cz0idXNlclNwYWNlT25Vc2UiIHI9IjEiIGN5PSIwIiBjeD0iMCIgaWQ9InBhaW50Ml9yYWRpYWxfMjYyMl8zOTEwIj4mI3hhOzxzdG9wIHN0b3AtY29sb3I9IiMwMEJCRkYiLz4mI3hhOzxzdG9wIHN0b3AtY29sb3I9IiMwMDhCRkYiIG9mZnNldD0iMSIvPiYjeGE7PC9yYWRpYWxHcmFkaWVudD4mI3hhOzxyYWRpYWxHcmFkaWVudCBncmFkaWVudFRyYW5zZm9ybT0idHJhbnNsYXRlKDE2LjA0NjkgMTQuNTg3MSkgcm90YXRlKDQ1KSBzY2FsZSgyNi43NDAzIDMyLjQ1MzEpIiBncmFkaWVudFVuaXRzPSJ1c2VyU3BhY2VPblVzZSIgcj0iMSIgY3k9IjAiIGN4PSIwIiBpZD0icGFpbnQzX3JhZGlhbF8yNjIyXzM5MTAiPiYjeGE7PHN0b3Agc3RvcC1jb2xvcj0iIzAwQkJGRiIvPiYjeGE7PHN0b3Agc3RvcC1jb2xvcj0iIzAwOEJGRiIgb2Zmc2V0PSIxIi8+JiN4YTs8L3JhZGlhbEdyYWRpZW50PiYjeGE7PHJhZGlhbEdyYWRpZW50IGdyYWRpZW50VHJhbnNmb3JtPSJ0cmFuc2xhdGUoMTYuMDQ2OSAxNC41ODcxKSByb3RhdGUoNDUpIHNjYWxlKDI2Ljc0MDMgMzIuNDUzMSkiIGdyYWRpZW50VW5pdHM9InVzZXJTcGFjZU9uVXNlIiByPSIxIiBjeT0iMCIgY3g9IjAiIGlkPSJwYWludDRfcmFkaWFsXzI2MjJfMzkxMCI+JiN4YTs8c3RvcCBzdG9wLWNvbG9yPSIjMDBCQkZGIi8+JiN4YTs8c3RvcCBzdG9wLWNvbG9yPSIjMDA4QkZGIiBvZmZzZXQ9IjEiLz4mI3hhOzwvcmFkaWFsR3JhZGllbnQ+JiN4YTs8cmFkaWFsR3JhZGllbnQgZ3JhZGllbnRUcmFuc2Zvcm09InRyYW5zbGF0ZSgxNS45MzcgMTQuNDk5Mykgcm90YXRlKDQ1LjMxODEpIHNjYWxlKDI2LjU4NDMgNTAuMjI5MSkiIGdyYWRpZW50VW5pdHM9InVzZXJTcGFjZU9uVXNlIiByPSIxIiBjeT0iMCIgY3g9IjAiIGlkPSJwYWludDVfcmFkaWFsXzI2MjJfMzkxMCI+JiN4YTs8c3RvcCBzdG9wLWNvbG9yPSIjMDE5NUZGIi8+JiN4YTs8c3RvcCBzdG9wLWNvbG9yPSIjMTE0N0U5IiBvZmZzZXQ9IjEiLz4mI3hhOzwvcmFkaWFsR3JhZGllbnQ+JiN4YTs8cmFkaWFsR3JhZGllbnQgZ3JhZGllbnRUcmFuc2Zvcm09InRyYW5zbGF0ZSgxNS45MzcgMTQuNDk5Mykgcm90YXRlKDQ1LjMxODEpIHNjYWxlKDI2LjU4NDMgNTAuMjI5MSkiIGdyYWRpZW50VW5pdHM9InVzZXJTcGFjZU9uVXNlIiByPSIxIiBjeT0iMCIgY3g9IjAiIGlkPSJwYWludDZfcmFkaWFsXzI2MjJfMzkxMCI+JiN4YTs8c3RvcCBzdG9wLWNvbG9yPSIjMDE5NUZGIi8+JiN4YTs8c3RvcCBzdG9wLWNvbG9yPSIjMTE0N0U5IiBvZmZzZXQ9IjEiLz4mI3hhOzwvcmFkaWFsR3JhZGllbnQ+JiN4YTs8cmFkaWFsR3JhZGllbnQgZ3JhZGllbnRUcmFuc2Zvcm09InRyYW5zbGF0ZSgxNS45MzcgMTQuNDk5Mykgcm90YXRlKDQ1LjMxODEpIHNjYWxlKDI2LjU4NDMgNTAuMjI5MSkiIGdyYWRpZW50VW5pdHM9InVzZXJTcGFjZU9uVXNlIiByPSIxIiBjeT0iMCIgY3g9IjAiIGlkPSJwYWludDdfcmFkaWFsXzI2MjJfMzkxMCI+JiN4YTs8c3RvcCBzdG9wLWNvbG9yPSIjMDE5NUZGIi8+JiN4YTs8c3RvcCBzdG9wLWNvbG9yPSIjMTE0N0U5IiBvZmZzZXQ9IjEiLz4mI3hhOzwvcmFkaWFsR3JhZGllbnQ+JiN4YTs8cmFkaWFsR3JhZGllbnQgZ3JhZGllbnRUcmFuc2Zvcm09InRyYW5zbGF0ZSgxNS45MzA5IDE0LjU5NjYpIHJvdGF0ZSg0NSkgc2NhbGUoMjYuNTk3OCAyNC4yMzc2KSIgZ3JhZGllbnRVbml0cz0idXNlclNwYWNlT25Vc2UiIHI9IjEiIGN5PSIwIiBjeD0iMCIgaWQ9InBhaW50OF9yYWRpYWxfMjYyMl8zOTEwIj4mI3hhOzxzdG9wIHN0b3AtY29sb3I9IiMxMzQ4RkYiLz4mI3hhOzxzdG9wIHN0b3AtY29sb3I9IiMwNjIzOEQiIG9mZnNldD0iMSIvPiYjeGE7PC9yYWRpYWxHcmFkaWVudD4mI3hhOzxyYWRpYWxHcmFkaWVudCBncmFkaWVudFRyYW5zZm9ybT0idHJhbnNsYXRlKDE1LjkzNyAxNC40OTkzKSByb3RhdGUoNDUuMzE4MSkgc2NhbGUoMjYuNTg0MyA1MC4yMjkxKSIgZ3JhZGllbnRVbml0cz0idXNlclNwYWNlT25Vc2UiIHI9IjEiIGN5PSIwIiBjeD0iMCIgaWQ9InBhaW50OV9yYWRpYWxfMjYyMl8zOTEwIj4mI3hhOzxzdG9wIHN0b3AtY29sb3I9IiMwMTk1RkYiLz4mI3hhOzxzdG9wIHN0b3AtY29sb3I9IiMxMTQ3RTkiIG9mZnNldD0iMSIvPiYjeGE7PC9yYWRpYWxHcmFkaWVudD4mI3hhOzxyYWRpYWxHcmFkaWVudCBncmFkaWVudFRyYW5zZm9ybT0idHJhbnNsYXRlKDE1LjkzMDkgMTQuNTk2Nikgcm90YXRlKDQ1KSBzY2FsZSgyNi41OTc4IDI0LjIzNzYpIiBncmFkaWVudFVuaXRzPSJ1c2VyU3BhY2VPblVzZSIgcj0iMSIgY3k9IjAiIGN4PSIwIiBpZD0icGFpbnQxMF9yYWRpYWxfMjYyMl8zOTEwIj4mI3hhOzxzdG9wIHN0b3AtY29sb3I9IiMxMzQ4RkYiLz4mI3hhOzxzdG9wIHN0b3AtY29sb3I9IiMwNjIzOEQiIG9mZnNldD0iMSIvPiYjeGE7PC9yYWRpYWxHcmFkaWVudD4mI3hhOzxyYWRpYWxHcmFkaWVudCBncmFkaWVudFRyYW5zZm9ybT0idHJhbnNsYXRlKDE1LjkzMDkgMTQuNTk2Nikgcm90YXRlKDQ1KSBzY2FsZSgyNi41OTc4IDI0LjIzNzYpIiBncmFkaWVudFVuaXRzPSJ1c2VyU3BhY2VPblVzZSIgcj0iMSIgY3k9IjAiIGN4PSIwIiBpZD0icGFpbnQxMV9yYWRpYWxfMjYyMl8zOTEwIj4mI3hhOzxzdG9wIHN0b3AtY29sb3I9IiMxMzQ4RkYiLz4mI3hhOzxzdG9wIHN0b3AtY29sb3I9IiMwNjIzOEQiIG9mZnNldD0iMSIvPiYjeGE7PC9yYWRpYWxHcmFkaWVudD4mI3hhOzxyYWRpYWxHcmFkaWVudCBncmFkaWVudFRyYW5zZm9ybT0idHJhbnNsYXRlKDE1LjkzMDkgMTQuNTk2Nikgcm90YXRlKDQ1KSBzY2FsZSgyNi41OTc4IDI0LjIzNzYpIiBncmFkaWVudFVuaXRzPSJ1c2VyU3BhY2VPblVzZSIgcj0iMSIgY3k9IjAiIGN4PSIwIiBpZD0icGFpbnQxMl9yYWRpYWxfMjYyMl8zOTEwIj4mI3hhOzxzdG9wIHN0b3AtY29sb3I9IiMxMzQ4RkYiLz4mI3hhOzxzdG9wIHN0b3AtY29sb3I9IiMwNjIzOEQiIG9mZnNldD0iMSIvPiYjeGE7PC9yYWRpYWxHcmFkaWVudD4mI3hhOzxyYWRpYWxHcmFkaWVudCBncmFkaWVudFRyYW5zZm9ybT0idHJhbnNsYXRlKDE1LjkzMDkgMTQuNTk2Nikgcm90YXRlKDQ1KSBzY2FsZSgyNi41OTc4IDI0LjIzNzYpIiBncmFkaWVudFVuaXRzPSJ1c2VyU3BhY2VPblVzZSIgcj0iMSIgY3k9IjAiIGN4PSIwIiBpZD0icGFpbnQxM19yYWRpYWxfMjYyMl8zOTEwIj4mI3hhOzxzdG9wIHN0b3AtY29sb3I9IiMxMzQ4RkYiLz4mI3hhOzxzdG9wIHN0b3AtY29sb3I9IiMwNjIzOEQiIG9mZnNldD0iMSIvPiYjeGE7PC9yYWRpYWxHcmFkaWVudD4mI3hhOzxjbGlwUGF0aCBpZD0iY2xpcDBfMjYyMl8zOTEwIj4mI3hhOzxyZWN0IHRyYW5zZm9ybT0idHJhbnNsYXRlKDAuNSAwLjAzNDkxMjEpIiBmaWxsPSJ3aGl0ZSIgaGVpZ2h0PSI0OCIgd2lkdGg9IjQ4Ii8+JiN4YTs8L2NsaXBQYXRoPiYjeGE7PC9kZWZzPiYjeGE7PC9zdmc+;points=[[0,0,0,0,0],[0,0.25,0,0,0],[0,0.5,0,0,0],[0,0.75,0,0,0],[0.25,0,0,0,0],[0.5,0,0,0,0],[0.75,0,0,0,0],[1,0,0,0,0],[1,0.25,0,0,0],[1,0.5,0,0,0],[1,0.75,0,0,0]];" parent="uZPeagV1LzCzwJO0KJH_-1" vertex="1">
          <mxGeometry x="456.25" y="4290.97" width="31.89" height="31.889699999999998" as="geometry" />
        </mxCell>
        <mxCell id="uZPeagV1LzCzwJO0KJH_-15" style="edgeStyle=orthogonalEdgeStyle;rounded=0;orthogonalLoop=1;jettySize=auto;html=1;exitX=0.5;exitY=1;exitDx=0;exitDy=0;fontFamily=Helvetica;fontSize=15;fontColor=#595959;strokeColor=#595959;strokeWidth=2;" parent="uZPeagV1LzCzwJO0KJH_-1" edge="1">
          <mxGeometry relative="1" as="geometry">
            <mxPoint x="563.0144736842103" y="4548.5" as="sourcePoint" />
            <mxPoint x="563.0144736842103" y="4548.5" as="targetPoint" />
          </mxGeometry>
        </mxCell>
        <mxCell id="uZPeagV1LzCzwJO0KJH_-98" value="&lt;p style=&quot;margin-top: 0pt; margin-bottom: 0pt; margin-left: 0in; direction: ltr; unicode-bidi: embed; word-break: normal; font-size: 13px;&quot;&gt;&lt;/p&gt;&lt;div style=&quot;line-height: 150%; font-size: 13px;&quot;&gt;&lt;font style=&quot;font-size: 13px; line-height: 2.1;&quot; face=&quot;Helvetica&quot;&gt;Data Federation&amp;nbsp;&lt;/font&gt;&lt;br style=&quot;font-size: 13px;&quot;&gt;&lt;/div&gt;&lt;p style=&quot;font-size: 13px;&quot;&gt;&lt;/p&gt;" style="rounded=1;whiteSpace=wrap;html=1;strokeColor=#0070F2;strokeWidth=1.5;fillColor=#EBF8FF;align=center;verticalAlign=middle;fontStyle=1;fontSize=13;fontFamily=Arial;fontColor=#000000;spacing=-1;spacingTop=8;container=0;arcSize=24;flipH=1;flipV=0;" parent="uZPeagV1LzCzwJO0KJH_-1" vertex="1">
          <mxGeometry x="473.93" y="4400" width="190.07" height="35.51" as="geometry" />
        </mxCell>
        <mxCell id="uZPeagV1LzCzwJO0KJH_-99" value="&lt;p style=&quot;margin-top: 0pt; margin-bottom: 0pt; margin-left: 0in; direction: ltr; unicode-bidi: embed; word-break: normal; font-size: 13px;&quot;&gt;&lt;/p&gt;&lt;div style=&quot;font-size: 13px;&quot;&gt;&lt;font style=&quot;font-size: 13px; line-height: 2.1;&quot; face=&quot;Helvetica&quot;&gt;Virtual Models&lt;/font&gt;&lt;br style=&quot;font-size: 13px;&quot;&gt;&lt;/div&gt;&lt;p style=&quot;font-size: 13px;&quot;&gt;&lt;/p&gt;" style="rounded=1;whiteSpace=wrap;html=1;strokeColor=#0070F2;strokeWidth=1.5;fillColor=#EBF8FF;align=center;verticalAlign=middle;fontStyle=1;fontSize=13;fontFamily=Arial;fontColor=#000000;labelPosition=center;verticalLabelPosition=middle;spacingTop=11;container=0;arcSize=24;flipH=1;flipV=0;spacing=6;" parent="uZPeagV1LzCzwJO0KJH_-1" vertex="1">
          <mxGeometry x="473.93" y="4350" width="190.07" height="35.51" as="geometry" />
        </mxCell>
        <mxCell id="uZPeagV1LzCzwJO0KJH_-100" value="&lt;p style=&quot;margin-top: 0pt; margin-bottom: 0pt; margin-left: 0in; direction: ltr; unicode-bidi: embed; word-break: normal; font-size: 13px;&quot;&gt;&lt;/p&gt;&lt;div style=&quot;font-size: 13px;&quot;&gt;&lt;font style=&quot;font-size: 13px; line-height: 2.1;&quot; face=&quot;Helvetica&quot;&gt;Open Schema&lt;/font&gt;&lt;br style=&quot;font-size: 13px;&quot;&gt;&lt;/div&gt;&lt;p style=&quot;font-size: 13px;&quot;&gt;&lt;/p&gt;" style="rounded=1;whiteSpace=wrap;html=1;strokeColor=#0070F2;strokeWidth=1.5;fillColor=#EBF8FF;align=center;verticalAlign=middle;fontStyle=1;fontSize=13;fontFamily=Arial;fontColor=#000000;labelPosition=center;verticalLabelPosition=middle;spacingTop=7;container=0;arcSize=24;flipH=1;flipV=0;" parent="uZPeagV1LzCzwJO0KJH_-1" vertex="1">
          <mxGeometry x="473.93" y="4449.49" width="190.07" height="35.51430072629573" as="geometry" />
        </mxCell>
        <mxCell id="uZPeagV1LzCzwJO0KJH_-6" value="" style="rounded=1;whiteSpace=wrap;html=1;fontSize=11;fontFamily=Arial;align=left;verticalAlign=top;fillColor=default;strokeColor=#0070F2;fontColor=#595959;strokeWidth=1.5;container=0;arcSize=3;" parent="uZPeagV1LzCzwJO0KJH_-1" vertex="1">
          <mxGeometry x="446.1523839285712" y="4534" width="248.62523214285713" height="186" as="geometry" />
        </mxCell>
        <mxCell id="uZPeagV1LzCzwJO0KJH_-96" value="&lt;p style=&quot;margin-top: 0pt; margin-bottom: 0pt; margin-left: 0in; direction: ltr; unicode-bidi: embed; word-break: normal; font-size: 13px;&quot;&gt;&lt;/p&gt;&lt;div style=&quot;font-size: 13px;&quot;&gt;&lt;p style=&quot;margin-top: 0pt; margin-bottom: 0pt; margin-left: 0in; direction: ltr; unicode-bidi: embed; word-break: normal; font-size: 13px;&quot;&gt;SAP AI Core&lt;/p&gt;&lt;/div&gt;&lt;p style=&quot;font-size: 13px;&quot;&gt;&lt;/p&gt;" style="rounded=1;whiteSpace=wrap;html=1;strokeColor=#0070F2;strokeWidth=1.5;fillColor=#EBF8FF;align=center;verticalAlign=top;fontStyle=1;fontSize=13;fontFamily=Arial;fontColor=#000000;spacingTop=6;container=0;arcSize=24;" parent="uZPeagV1LzCzwJO0KJH_-1" vertex="1">
          <mxGeometry x="473.93" y="4592" width="190.07" height="42" as="geometry" />
        </mxCell>
        <mxCell id="uZPeagV1LzCzwJO0KJH_-97" value="&lt;p style=&quot;margin-top: 0pt; margin-bottom: 0pt; margin-left: 0in; direction: ltr; unicode-bidi: embed; word-break: normal; font-size: 13px;&quot;&gt;&lt;/p&gt;&lt;div style=&quot;font-size: 13px;&quot;&gt;&lt;p style=&quot;margin-top: 0pt; margin-bottom: 0pt; margin-left: 0in; direction: ltr; unicode-bidi: embed; word-break: normal; font-size: 13px;&quot;&gt;&lt;span style=&quot;background-color: initial; font-size: 13px;&quot;&gt;SAP AI&amp;nbsp;&lt;/span&gt;&lt;span style=&quot;background-color: initial; font-size: 13px;&quot;&gt;Launchpad&lt;/span&gt;&lt;/p&gt;&lt;/div&gt;&lt;p style=&quot;font-size: 13px;&quot;&gt;&lt;/p&gt;" style="rounded=1;whiteSpace=wrap;html=1;strokeColor=#0070F2;strokeWidth=1.5;fillColor=#EBF8FF;align=center;verticalAlign=top;fontStyle=1;fontSize=13;fontFamily=Arial;fontColor=#000000;spacingTop=6;container=0;arcSize=24;" parent="uZPeagV1LzCzwJO0KJH_-1" vertex="1">
          <mxGeometry x="473.93" y="4652" width="190.07" height="42" as="geometry" />
        </mxCell>
        <mxCell id="uZPeagV1LzCzwJO0KJH_-88" value="" style="shape=image;verticalLabelPosition=bottom;verticalAlign=top;imageAspect=0;aspect=fixed;image=data:image/svg+xml,PHN2ZyB4bWxucz0iaHR0cDovL3d3dy53My5vcmcvMjAwMC9zdmciIGZpbGw9Im5vbmUiIHZpZXdCb3g9IjAgMCA0OSA0OSIgaGVpZ2h0PSI0OSIgd2lkdGg9IjQ5Ij4mI3hhOzxjaXJjbGUgc3Ryb2tlLXdpZHRoPSIwLjg1NzE0MyIgc3Ryb2tlPSIjRDVEQUREIiBmaWxsPSJ1cmwoI3BhaW50MF9saW5lYXJfMjYyMl8yMDQ3NSkiIHI9IjIzLjU3MTQiIGN5PSIyNC4wMzQ5IiBjeD0iMjQuNSIvPiYjeGE7PHBhdGggZmlsbD0idXJsKCNwYWludDFfcmFkaWFsXzI2MjJfMjA0NzUpIiBkPSJNMjQuMzkzMSAxMi4yMzcxQzIwLjExMDcgMTIuMjM3MSAxNy4wNjgxIDE1LjcyMzEgMTYuNTYxMSAxOS4zNjI1QzE1LjE4MzYgMTkuNDQ0NCAxMy45NjcyIDE5Ljk2MjEgMTMuMDIyNSAyMC44MzE3QzExLjc0NDUgMjIuMDA4MSAxMS4wODQ0IDIzLjcxNTYgMTEuMDg0NCAyNS41MTYzQzExLjA4NDQgMjcuMTg5NyAxMS41OTIgMjguNzcxNSAxMi43MzE2IDI5Ljk0MDlDMTMuNTg2MSAzMC44MTc4IDE0LjcwNzcgMzEuMzcyNCAxNi4wMTcgMzEuNTk4NEMxNi4xMzc2IDMxLjM1MzUgMTYuMjczNSAzMS4xMTY4IDE2LjQyNTIgMzAuODg5MkwxNi40NDEgMzAuODY1NUwxNi40NTQ4IDMwLjg0NjFDMTYuNzA2OSAzMC40OTAxIDE2Ljk5NDggMzAuMTY2IDE3LjMxNjkgMjkuODc2MUMxNy4xODMxIDI5LjQzMTcgMTcuMTE4IDI4Ljk2NDUgMTcuMTE4IDI4LjQ4MzVDMTcuMTE4IDI3Ljg1NDkgMTcuMjM4NiAyNy4yNDEzIDE3LjQ4NDkgMjYuNjU5MkMxNy43MiAyNi4xMDMzIDE4LjA1MTMgMjUuNjAwMSAxOC40ODI0IDI1LjE2OTFDMTguOTE4IDI0LjczMzQgMTkuNDI1IDI0LjM5MTYgMTkuOTkyNiAyNC4xNTE1QzIwLjU3NDcgMjMuOTA1MiAyMS4xODgyIDIzLjc4NDYgMjEuODE2OCAyMy43ODQ2QzIyLjA3NTkgMjMuNzg0NiAyMi4zMzI0IDIzLjgwNTEgMjIuNTg1MyAyMy44NDY0QzIyLjkwNjUgMjMuNjE3OSAyMy4yNTIyIDIzLjQyNTEgMjMuNjIwNCAyMy4yNjkzQzI0LjI4NTEgMjIuOTg4MSAyNC45ODYzIDIyLjg0OTcgMjUuNzA4OSAyMi44NDk3QzI2LjQzMTYgMjIuODQ5NyAyNy4xMzI3IDIyLjk4ODEgMjcuNzk3NSAyMy4yNjkzQzI4LjQ0MzYgMjMuNTQyNyAyOS4wMTc2IDIzLjkzMjYgMjkuNTA0MyAyNC40MzY1QzMwLjAwODIgMjQuOTIzMiAzMC4zOTgxIDI1LjQ5NzIgMzAuNjcxNSAyNi4xNDMzQzMwLjk1MjcgMjYuODA4MSAzMS4wOTExIDI3LjUwOTMgMzEuMDkxMSAyOC4yMzE5QzMxLjA5MTEgMjguOTI1MiAzMC45NjM3IDI5LjU5ODggMzAuNzA1IDMwLjIzOTVDMzEuMTk2OSAzMC42Mjg4IDMxLjYzNDYgMzEuMDg3NyAzMi4wMTUyIDMxLjYxMjdDMzUuMjc5MiAzMS4wNDI2IDM3Ljk5OTkgMjguMzY4IDM3Ljk5OTkgMjQuMzU5MUMzNy45OTk5IDIwLjM3NTEgMzUuMTUyNiAxNy4zMTM1IDMxLjcyNDcgMTYuOTg5N0MzMC4zNTA3IDE0LjE0ODMgMjcuOCAxMi4yMzcxIDI0LjM5MzEgMTIuMjM3MVoiIGNsaXAtcnVsZT0iZXZlbm9kZCIgZmlsbC1ydWxlPSJldmVub2RkIi8+JiN4YTs8cGF0aCBmaWxsPSJ1cmwoI3BhaW50Ml9yYWRpYWxfMjYyMl8yMDQ3NSkiIGQ9Ik0yOC4zMzY4IDMwLjgwNzhDMjkuMzA4MiAzMS4xODk0IDMwLjA5NzQgMzEuODEzOCAzMC43MDQ1IDMyLjY4MTFDMzEuMzExNiAzMy41NDg0IDMxLjYxNTIgMzQuNTI4NSAzMS42MTUyIDM1LjYyMTNWMzcuMTA0NEMzMS42MTUyIDM3LjMxMjUgMzEuNTM3MSAzNy40ODYgMzEuMzgxIDM3LjYyNDdDMzEuMjQyMiAzNy43NjM1IDMxLjA3NzQgMzcuODMyOSAzMC44ODY2IDM3LjgzMjlIMjkuNDAzNkMyOS4xOTU0IDM3LjgzMjkgMjkuMDEzMyAzNy43NjM1IDI4Ljg1NzIgMzcuNjI0N0MyOC43MTg0IDM3LjQ4NiAyOC42NDkgMzcuMzEyNSAyOC42NDkgMzcuMTA0NEMyOC42NDkgMzYuODk2MiAyOC43MTg0IDM2LjcyMjcgMjguODU3MiAzNi41ODRDMjkuMDEzMyAzNi40Mjc5IDI5LjE5NTQgMzYuMzQ5OCAyOS40MDM2IDM2LjM0OThIMzAuMTMyMVYzNS42MjEzQzMwLjEzMjEgMzUuMTE4MiAzMC4wMzY3IDM0LjY0MTIgMjkuODQ1OSAzNC4xOTAyQzI5LjY1NTEgMzMuNzM5MiAyOS4zODYyIDMzLjM0OSAyOS4wMzkzIDMzLjAxOTRDMjguNzA5NyAzMi42NzI1IDI4LjMxOTUgMzIuNDAzNiAyNy44Njg1IDMyLjIxMjhDMjcuNDM0OCAzMi4wMjIgMjYuOTU3OCAzMS45MjY2IDI2LjQzNzUgMzEuOTI2NkgyNC45ODA0QzI0LjQ2IDMxLjkyNjYgMjMuOTc0NCAzMi4wMjIgMjMuNTIzNCAzMi4yMTI4QzIzLjA4OTcgMzIuNDAzNiAyMi42OTk0IDMyLjY3MjUgMjIuMzUyNSAzMy4wMTk0QzIyLjAyMyAzMy4zNDkgMjEuNzYyOCAzMy43MzkyIDIxLjU3MiAzNC4xOTAyQzIxLjM4MTIgMzQuNjQxMiAyMS4yODU4IDM1LjExODIgMjEuMjg1OCAzNS42MjEzVjM2LjM0OThIMjIuMDE0M0MyMi4yMjI0IDM2LjM0OTggMjIuMzk1OSAzNi40Mjc5IDIyLjUzNDcgMzYuNTg0QzIyLjY3MzQgMzYuNzIyNyAyMi43NDI4IDM2Ljg5NjIgMjIuNzQyOCAzNy4xMDQ0QzIyLjc0MjggMzcuMzEyNSAyMi42NzM0IDM3LjQ4NiAyMi41MzQ3IDM3LjYyNDdDMjIuMzk1OSAzNy43NjM1IDIyLjIyMjQgMzcuODMyOSAyMi4wMTQzIDM3LjgzMjlIMjAuNTMxMkMyMC4zNDA0IDM3LjgzMjkgMjAuMTY3IDM3Ljc2MzUgMjAuMDEwOSAzNy42MjQ3QzE5Ljg3MjEgMzcuNDg2IDE5LjgwMjcgMzcuMzEyNSAxOS44MDI3IDM3LjEwNDRMMTkuODAyNyAzNi4wNTAySDE3LjgyMzRDMTcuNjMyOCAzNi4wNTAyIDE3LjQ2MTYgMzUuOTc5NSAxNy4zMTQ2IDM1Ljg0ODhMMTcuMzA3NSAzNS44NDI1QzE3LjE2ODEgMzUuNzAzMSAxNy4wOTk4IDM1LjUyNzEgMTcuMDk5OCAzNS4zMjY1VjM0LjE4MjdDMTcuMDk5OCAzMy43MzkyIDE3LjE2MjEgMzMuMzIxIDE3LjI4ODEgMzIuOTI5MUwxNy4yODkyIDMyLjkyNTlDMTcuNDI3MiAzMi41MjU2IDE3LjYwNzEgMzIuMTU4NiAxNy44MjkzIDMxLjgyNTNMMTcuODMxOCAzMS44MjE1QzE4LjA2NzggMzEuNDg4MyAxOC4zNDU4IDMxLjE5NjQgMTguNjY1MiAzMC45NDYxQzE4LjkyNDIgMzAuNzMyNCAxOS4yMDU5IDMwLjU1NSAxOS41MTAxIDMwLjQxNEMxOS4wMzk4IDI5Ljg4ODUgMTguODA1NSAyOS4yNDE5IDE4LjgwNTUgMjguNDgzNUMxOC44MDU1IDI4LjA3NDUgMTguODgzMiAyNy42ODUxIDE5LjAzOSAyNy4zMTY3QzE5LjE5MzkgMjYuOTUwNyAxOS40MDYgMjYuNjMyIDE5LjY3NTYgMjYuMzYyM0MxOS45NTc5IDI2LjA4MDEgMjAuMjgzIDI1Ljg2MDkgMjAuNjUwMSAyNS43MDU2QzIxLjAxODQgMjUuNTQ5OCAyMS40MDc4IDI1LjQ3MjEgMjEuODE2OCAyNS40NzIxQzIyLjIyNTkgMjUuNDcyMSAyMi42MTUyIDI1LjU0OTggMjIuOTgzNiAyNS43MDU2TDIzLjAwMDggMjUuNzEzQzIzLjAyNzEgMjUuNjg0OSAyMy4wNTM4IDI1LjY1NzMgMjMuMDgxIDI1LjYzQzIzLjQyOCAyNS4yODMxIDIzLjgyNjkgMjUuMDE0MiAyNC4yNzc5IDI0LjgyMzRDMjQuNzI4OSAyNC42MzI2IDI1LjIwNTkgMjQuNTM3MiAyNS43MDg5IDI0LjUzNzJDMjYuMjEyIDI0LjUzNzIgMjYuNjg5IDI0LjYzMjYgMjcuMTQgMjQuODIzNEMyNy41OTA5IDI1LjAxNDIgMjcuOTgxMiAyNS4yODMxIDI4LjMxMDggMjUuNjNDMjguNjU3NyAyNS45NTk2IDI4LjkyNjYgMjYuMzQ5OSAyOS4xMTc0IDI2LjgwMDlDMjkuMzA4MiAyNy4yNTE5IDI5LjQwMzYgMjcuNzI4OSAyOS40MDM2IDI4LjIzMTlDMjkuNDAzNiAyOC43MzQ5IDI5LjMwODIgMjkuMjEyIDI5LjExNzQgMjkuNjYzQzI4LjkyNjYgMzAuMDk2NiAyOC42NjY0IDMwLjQ3ODIgMjguMzM2OCAzMC44MDc4Wk0yMC4wMzY5IDM0LjA2MDFDMTkuOTgyMiAzNC4yMzAxIDE5LjkzNzIgMzQuNDA0MyAxOS45MDE3IDM0LjU4MjdIMTguNTY3MlYzNC4xODI3QzE4LjU2NzIgMzMuODE1NyAxOC42MzY3IDMzLjQ2OTMgMTguNzc1MiAzMy4xNDJDMTguOTE0NiAzMi44MTI0IDE5LjEwMzkgMzIuNTI5IDE5LjM0MjYgMzIuMjkwM0MxOS41OTYyIDMyLjAzNjcgMTkuODgwMyAzMS44NDEyIDIwLjE5NTMgMzEuNzAyNEMyMC41MjE2IDMxLjU2NDUgMjAuODc0MyAzMS40OTQ5IDIxLjI1NDkgMzEuNDk0OUgyMS44NzA4QzIxLjgzMTUgMzEuNTI1NCAyMS43OTI2IDMxLjU1NjYgMjEuNzU0MSAzMS41ODg0QzIxLjM1NTEgMzEuOTAwNiAyMS4wMDgyIDMyLjI2NDggMjAuNzEzNCAzMi42ODExQzIwLjQzNTggMzMuMDk3NCAyMC4yMTAzIDMzLjU1NzEgMjAuMDM2OSAzNC4wNjAxWk0yNS43MDg5IDI2LjAyMDNDMjUuMTAxOCAyNi4wMjAzIDI0LjU4MTUgMjYuMjM3MSAyNC4xNDc4IDI2LjY3MDhDMjMuNzE0MiAyNy4xMDQ0IDIzLjQ5NzMgMjcuNjI0OCAyMy40OTczIDI4LjIzMTlDMjMuNDk3MyAyOC44MzkgMjMuNzE0MiAyOS4zNTk0IDI0LjE0NzggMjkuNzkzQzI0LjU4MTUgMzAuMjI2NyAyNS4xMDE4IDMwLjQ0MzUgMjUuNzA4OSAzMC40NDM1QzI2LjMxNiAzMC40NDM1IDI2LjgzNjQgMzAuMjI2NyAyNy4yNyAyOS43OTNDMjcuNzAzNyAyOS4zNTk0IDI3LjkyMDUgMjguODM5IDI3LjkyMDUgMjguMjMxOUMyNy45MjA1IDI3LjYyNDggMjcuNzAzNyAyNy4xMDQ0IDI3LjI3IDI2LjY3MDhDMjYuODM2NCAyNi4yMzcxIDI2LjMxNiAyNi4wMjAzIDI1LjcwODkgMjYuMDIwM1pNMjIuMDE0MyAyOC4yMzE5QzIyLjAxNDMgMjguODU5NiAyMi4xNDM2IDI5LjQyMTEgMjIuNDAyMyAyOS45MTYzQzIyLjIyMjMgMjkuOTkwNiAyMi4wMjc1IDMwLjAyNzQgMjEuODE2OCAzMC4wMjc0QzIxLjM5MiAzMC4wMjc0IDIxLjAzMTcgMjkuODc3NiAyMC43MjcyIDI5LjU3MzFDMjAuNDIyOCAyOS4yNjg3IDIwLjI3MjkgMjguOTA4MyAyMC4yNzI5IDI4LjQ4MzVDMjAuMjcyOSAyOC4wNTg3IDIwLjQyMjggMjcuNjk4MyAyMC43MjcyIDI3LjM5MzlDMjEuMDMxNyAyNy4wODk0IDIxLjM5MiAyNi45Mzk2IDIxLjgxNjggMjYuOTM5NkMyMS45NjA1IDI2LjkzOTYgMjIuMDk2OSAyNi45NTY3IDIyLjIyNjIgMjYuOTkxMkMyMi4wODQ5IDI3LjM4NTUgMjIuMDE0MyAyNy43OTkxIDIyLjAxNDMgMjguMjMxOVoiIGNsaXAtcnVsZT0iZXZlbm9kZCIgZmlsbC1ydWxlPSJldmVub2RkIi8+JiN4YTs8ZGVmcz4mI3hhOzxsaW5lYXJHcmFkaWVudCBncmFkaWVudFVuaXRzPSJ1c2VyU3BhY2VPblVzZSIgeTI9IjQ0LjI3OTIiIHgyPSI0MS41NjQ1IiB5MT0iNi44NDc3NSIgeDE9IjQuODUyODciIGlkPSJwYWludDBfbGluZWFyXzI2MjJfMjA0NzUiPiYjeGE7PHN0b3Agc3RvcC1jb2xvcj0id2hpdGUiLz4mI3hhOzxzdG9wIHN0b3AtY29sb3I9IiNFQUVDRUUiIG9mZnNldD0iMSIvPiYjeGE7PC9saW5lYXJHcmFkaWVudD4mI3hhOzxyYWRpYWxHcmFkaWVudCBncmFkaWVudFRyYW5zZm9ybT0idHJhbnNsYXRlKDE1LjI1ODMgMTUuOTk1NCkgcm90YXRlKDQzLjg3NzkpIHNjYWxlKDI1Ljg1MjQgNDguODExNykiIGdyYWRpZW50VW5pdHM9InVzZXJTcGFjZU9uVXNlIiByPSIxIiBjeT0iMCIgY3g9IjAiIGlkPSJwYWludDFfcmFkaWFsXzI2MjJfMjA0NzUiPiYjeGE7PHN0b3Agc3RvcC1jb2xvcj0iIzAxOTVGRiIvPiYjeGE7PHN0b3Agc3RvcC1jb2xvcj0iIzExNDdFOSIgb2Zmc2V0PSIxIi8+JiN4YTs8L3JhZGlhbEdyYWRpZW50PiYjeGE7PHJhZGlhbEdyYWRpZW50IGdyYWRpZW50VHJhbnNmb3JtPSJ0cmFuc2xhdGUoMTUuMjUyMiAxNi4wODc2KSByb3RhdGUoNDMuNTYwMikgc2NhbGUoMjUuODcyNyAyMy41NDcxKSIgZ3JhZGllbnRVbml0cz0idXNlclNwYWNlT25Vc2UiIHI9IjEiIGN5PSIwIiBjeD0iMCIgaWQ9InBhaW50Ml9yYWRpYWxfMjYyMl8yMDQ3NSI+JiN4YTs8c3RvcCBzdG9wLWNvbG9yPSIjMTM0OEZGIi8+JiN4YTs8c3RvcCBzdG9wLWNvbG9yPSIjMDYyMzhEIiBvZmZzZXQ9IjEiLz4mI3hhOzwvcmFkaWFsR3JhZGllbnQ+JiN4YTs8L2RlZnM+JiN4YTs8L3N2Zz4=;points=[[0,0,0,0,0],[0,0.25,0,0,0],[0,0.5,0,0,0],[0,0.75,0,0,0],[0.25,0,0,0,0],[0.5,0,0,0,0],[0.75,0,0,0,0],[1,0,0,0,0],[1,0.25,0,0,0],[1,0.5,0,0,0],[1,0.75,0,0,0]];" parent="uZPeagV1LzCzwJO0KJH_-1" vertex="1">
          <mxGeometry x="503" y="4603" width="19" height="19" as="geometry" />
        </mxCell>
        <mxCell id="uZPeagV1LzCzwJO0KJH_-89" value="" style="shape=image;verticalLabelPosition=bottom;verticalAlign=top;imageAspect=0;aspect=fixed;image=data:image/svg+xml,PHN2ZyB4bWxucz0iaHR0cDovL3d3dy53My5vcmcvMjAwMC9zdmciIGZpbGw9Im5vbmUiIHZpZXdCb3g9IjAgMCA0OSA0OSIgaGVpZ2h0PSI0OSIgd2lkdGg9IjQ5Ij4mI3hhOzxjaXJjbGUgc3Ryb2tlLXdpZHRoPSIwLjg1NzE0MyIgc3Ryb2tlPSIjRDVEQUREIiBmaWxsPSJ1cmwoI3BhaW50MF9saW5lYXJfMjYyMl8yMDQ3NSkiIHI9IjIzLjU3MTQiIGN5PSIyNC4wMzQ5IiBjeD0iMjQuNSIvPiYjeGE7PHBhdGggZmlsbD0idXJsKCNwYWludDFfcmFkaWFsXzI2MjJfMjA0NzUpIiBkPSJNMjQuMzkzMSAxMi4yMzcxQzIwLjExMDcgMTIuMjM3MSAxNy4wNjgxIDE1LjcyMzEgMTYuNTYxMSAxOS4zNjI1QzE1LjE4MzYgMTkuNDQ0NCAxMy45NjcyIDE5Ljk2MjEgMTMuMDIyNSAyMC44MzE3QzExLjc0NDUgMjIuMDA4MSAxMS4wODQ0IDIzLjcxNTYgMTEuMDg0NCAyNS41MTYzQzExLjA4NDQgMjcuMTg5NyAxMS41OTIgMjguNzcxNSAxMi43MzE2IDI5Ljk0MDlDMTMuNTg2MSAzMC44MTc4IDE0LjcwNzcgMzEuMzcyNCAxNi4wMTcgMzEuNTk4NEMxNi4xMzc2IDMxLjM1MzUgMTYuMjczNSAzMS4xMTY4IDE2LjQyNTIgMzAuODg5MkwxNi40NDEgMzAuODY1NUwxNi40NTQ4IDMwLjg0NjFDMTYuNzA2OSAzMC40OTAxIDE2Ljk5NDggMzAuMTY2IDE3LjMxNjkgMjkuODc2MUMxNy4xODMxIDI5LjQzMTcgMTcuMTE4IDI4Ljk2NDUgMTcuMTE4IDI4LjQ4MzVDMTcuMTE4IDI3Ljg1NDkgMTcuMjM4NiAyNy4yNDEzIDE3LjQ4NDkgMjYuNjU5MkMxNy43MiAyNi4xMDMzIDE4LjA1MTMgMjUuNjAwMSAxOC40ODI0IDI1LjE2OTFDMTguOTE4IDI0LjczMzQgMTkuNDI1IDI0LjM5MTYgMTkuOTkyNiAyNC4xNTE1QzIwLjU3NDcgMjMuOTA1MiAyMS4xODgyIDIzLjc4NDYgMjEuODE2OCAyMy43ODQ2QzIyLjA3NTkgMjMuNzg0NiAyMi4zMzI0IDIzLjgwNTEgMjIuNTg1MyAyMy44NDY0QzIyLjkwNjUgMjMuNjE3OSAyMy4yNTIyIDIzLjQyNTEgMjMuNjIwNCAyMy4yNjkzQzI0LjI4NTEgMjIuOTg4MSAyNC45ODYzIDIyLjg0OTcgMjUuNzA4OSAyMi44NDk3QzI2LjQzMTYgMjIuODQ5NyAyNy4xMzI3IDIyLjk4ODEgMjcuNzk3NSAyMy4yNjkzQzI4LjQ0MzYgMjMuNTQyNyAyOS4wMTc2IDIzLjkzMjYgMjkuNTA0MyAyNC40MzY1QzMwLjAwODIgMjQuOTIzMiAzMC4zOTgxIDI1LjQ5NzIgMzAuNjcxNSAyNi4xNDMzQzMwLjk1MjcgMjYuODA4MSAzMS4wOTExIDI3LjUwOTMgMzEuMDkxMSAyOC4yMzE5QzMxLjA5MTEgMjguOTI1MiAzMC45NjM3IDI5LjU5ODggMzAuNzA1IDMwLjIzOTVDMzEuMTk2OSAzMC42Mjg4IDMxLjYzNDYgMzEuMDg3NyAzMi4wMTUyIDMxLjYxMjdDMzUuMjc5MiAzMS4wNDI2IDM3Ljk5OTkgMjguMzY4IDM3Ljk5OTkgMjQuMzU5MUMzNy45OTk5IDIwLjM3NTEgMzUuMTUyNiAxNy4zMTM1IDMxLjcyNDcgMTYuOTg5N0MzMC4zNTA3IDE0LjE0ODMgMjcuOCAxMi4yMzcxIDI0LjM5MzEgMTIuMjM3MVoiIGNsaXAtcnVsZT0iZXZlbm9kZCIgZmlsbC1ydWxlPSJldmVub2RkIi8+JiN4YTs8cGF0aCBmaWxsPSJ1cmwoI3BhaW50Ml9yYWRpYWxfMjYyMl8yMDQ3NSkiIGQ9Ik0yOC4zMzY4IDMwLjgwNzhDMjkuMzA4MiAzMS4xODk0IDMwLjA5NzQgMzEuODEzOCAzMC43MDQ1IDMyLjY4MTFDMzEuMzExNiAzMy41NDg0IDMxLjYxNTIgMzQuNTI4NSAzMS42MTUyIDM1LjYyMTNWMzcuMTA0NEMzMS42MTUyIDM3LjMxMjUgMzEuNTM3MSAzNy40ODYgMzEuMzgxIDM3LjYyNDdDMzEuMjQyMiAzNy43NjM1IDMxLjA3NzQgMzcuODMyOSAzMC44ODY2IDM3LjgzMjlIMjkuNDAzNkMyOS4xOTU0IDM3LjgzMjkgMjkuMDEzMyAzNy43NjM1IDI4Ljg1NzIgMzcuNjI0N0MyOC43MTg0IDM3LjQ4NiAyOC42NDkgMzcuMzEyNSAyOC42NDkgMzcuMTA0NEMyOC42NDkgMzYuODk2MiAyOC43MTg0IDM2LjcyMjcgMjguODU3MiAzNi41ODRDMjkuMDEzMyAzNi40Mjc5IDI5LjE5NTQgMzYuMzQ5OCAyOS40MDM2IDM2LjM0OThIMzAuMTMyMVYzNS42MjEzQzMwLjEzMjEgMzUuMTE4MiAzMC4wMzY3IDM0LjY0MTIgMjkuODQ1OSAzNC4xOTAyQzI5LjY1NTEgMzMuNzM5MiAyOS4zODYyIDMzLjM0OSAyOS4wMzkzIDMzLjAxOTRDMjguNzA5NyAzMi42NzI1IDI4LjMxOTUgMzIuNDAzNiAyNy44Njg1IDMyLjIxMjhDMjcuNDM0OCAzMi4wMjIgMjYuOTU3OCAzMS45MjY2IDI2LjQzNzUgMzEuOTI2NkgyNC45ODA0QzI0LjQ2IDMxLjkyNjYgMjMuOTc0NCAzMi4wMjIgMjMuNTIzNCAzMi4yMTI4QzIzLjA4OTcgMzIuNDAzNiAyMi42OTk0IDMyLjY3MjUgMjIuMzUyNSAzMy4wMTk0QzIyLjAyMyAzMy4zNDkgMjEuNzYyOCAzMy43MzkyIDIxLjU3MiAzNC4xOTAyQzIxLjM4MTIgMzQuNjQxMiAyMS4yODU4IDM1LjExODIgMjEuMjg1OCAzNS42MjEzVjM2LjM0OThIMjIuMDE0M0MyMi4yMjI0IDM2LjM0OTggMjIuMzk1OSAzNi40Mjc5IDIyLjUzNDcgMzYuNTg0QzIyLjY3MzQgMzYuNzIyNyAyMi43NDI4IDM2Ljg5NjIgMjIuNzQyOCAzNy4xMDQ0QzIyLjc0MjggMzcuMzEyNSAyMi42NzM0IDM3LjQ4NiAyMi41MzQ3IDM3LjYyNDdDMjIuMzk1OSAzNy43NjM1IDIyLjIyMjQgMzcuODMyOSAyMi4wMTQzIDM3LjgzMjlIMjAuNTMxMkMyMC4zNDA0IDM3LjgzMjkgMjAuMTY3IDM3Ljc2MzUgMjAuMDEwOSAzNy42MjQ3QzE5Ljg3MjEgMzcuNDg2IDE5LjgwMjcgMzcuMzEyNSAxOS44MDI3IDM3LjEwNDRMMTkuODAyNyAzNi4wNTAySDE3LjgyMzRDMTcuNjMyOCAzNi4wNTAyIDE3LjQ2MTYgMzUuOTc5NSAxNy4zMTQ2IDM1Ljg0ODhMMTcuMzA3NSAzNS44NDI1QzE3LjE2ODEgMzUuNzAzMSAxNy4wOTk4IDM1LjUyNzEgMTcuMDk5OCAzNS4zMjY1VjM0LjE4MjdDMTcuMDk5OCAzMy43MzkyIDE3LjE2MjEgMzMuMzIxIDE3LjI4ODEgMzIuOTI5MUwxNy4yODkyIDMyLjkyNTlDMTcuNDI3MiAzMi41MjU2IDE3LjYwNzEgMzIuMTU4NiAxNy44MjkzIDMxLjgyNTNMMTcuODMxOCAzMS44MjE1QzE4LjA2NzggMzEuNDg4MyAxOC4zNDU4IDMxLjE5NjQgMTguNjY1MiAzMC45NDYxQzE4LjkyNDIgMzAuNzMyNCAxOS4yMDU5IDMwLjU1NSAxOS41MTAxIDMwLjQxNEMxOS4wMzk4IDI5Ljg4ODUgMTguODA1NSAyOS4yNDE5IDE4LjgwNTUgMjguNDgzNUMxOC44MDU1IDI4LjA3NDUgMTguODgzMiAyNy42ODUxIDE5LjAzOSAyNy4zMTY3QzE5LjE5MzkgMjYuOTUwNyAxOS40MDYgMjYuNjMyIDE5LjY3NTYgMjYuMzYyM0MxOS45NTc5IDI2LjA4MDEgMjAuMjgzIDI1Ljg2MDkgMjAuNjUwMSAyNS43MDU2QzIxLjAxODQgMjUuNTQ5OCAyMS40MDc4IDI1LjQ3MjEgMjEuODE2OCAyNS40NzIxQzIyLjIyNTkgMjUuNDcyMSAyMi42MTUyIDI1LjU0OTggMjIuOTgzNiAyNS43MDU2TDIzLjAwMDggMjUuNzEzQzIzLjAyNzEgMjUuNjg0OSAyMy4wNTM4IDI1LjY1NzMgMjMuMDgxIDI1LjYzQzIzLjQyOCAyNS4yODMxIDIzLjgyNjkgMjUuMDE0MiAyNC4yNzc5IDI0LjgyMzRDMjQuNzI4OSAyNC42MzI2IDI1LjIwNTkgMjQuNTM3MiAyNS43MDg5IDI0LjUzNzJDMjYuMjEyIDI0LjUzNzIgMjYuNjg5IDI0LjYzMjYgMjcuMTQgMjQuODIzNEMyNy41OTA5IDI1LjAxNDIgMjcuOTgxMiAyNS4yODMxIDI4LjMxMDggMjUuNjNDMjguNjU3NyAyNS45NTk2IDI4LjkyNjYgMjYuMzQ5OSAyOS4xMTc0IDI2LjgwMDlDMjkuMzA4MiAyNy4yNTE5IDI5LjQwMzYgMjcuNzI4OSAyOS40MDM2IDI4LjIzMTlDMjkuNDAzNiAyOC43MzQ5IDI5LjMwODIgMjkuMjEyIDI5LjExNzQgMjkuNjYzQzI4LjkyNjYgMzAuMDk2NiAyOC42NjY0IDMwLjQ3ODIgMjguMzM2OCAzMC44MDc4Wk0yMC4wMzY5IDM0LjA2MDFDMTkuOTgyMiAzNC4yMzAxIDE5LjkzNzIgMzQuNDA0MyAxOS45MDE3IDM0LjU4MjdIMTguNTY3MlYzNC4xODI3QzE4LjU2NzIgMzMuODE1NyAxOC42MzY3IDMzLjQ2OTMgMTguNzc1MiAzMy4xNDJDMTguOTE0NiAzMi44MTI0IDE5LjEwMzkgMzIuNTI5IDE5LjM0MjYgMzIuMjkwM0MxOS41OTYyIDMyLjAzNjcgMTkuODgwMyAzMS44NDEyIDIwLjE5NTMgMzEuNzAyNEMyMC41MjE2IDMxLjU2NDUgMjAuODc0MyAzMS40OTQ5IDIxLjI1NDkgMzEuNDk0OUgyMS44NzA4QzIxLjgzMTUgMzEuNTI1NCAyMS43OTI2IDMxLjU1NjYgMjEuNzU0MSAzMS41ODg0QzIxLjM1NTEgMzEuOTAwNiAyMS4wMDgyIDMyLjI2NDggMjAuNzEzNCAzMi42ODExQzIwLjQzNTggMzMuMDk3NCAyMC4yMTAzIDMzLjU1NzEgMjAuMDM2OSAzNC4wNjAxWk0yNS43MDg5IDI2LjAyMDNDMjUuMTAxOCAyNi4wMjAzIDI0LjU4MTUgMjYuMjM3MSAyNC4xNDc4IDI2LjY3MDhDMjMuNzE0MiAyNy4xMDQ0IDIzLjQ5NzMgMjcuNjI0OCAyMy40OTczIDI4LjIzMTlDMjMuNDk3MyAyOC44MzkgMjMuNzE0MiAyOS4zNTk0IDI0LjE0NzggMjkuNzkzQzI0LjU4MTUgMzAuMjI2NyAyNS4xMDE4IDMwLjQ0MzUgMjUuNzA4OSAzMC40NDM1QzI2LjMxNiAzMC40NDM1IDI2LjgzNjQgMzAuMjI2NyAyNy4yNyAyOS43OTNDMjcuNzAzNyAyOS4zNTk0IDI3LjkyMDUgMjguODM5IDI3LjkyMDUgMjguMjMxOUMyNy45MjA1IDI3LjYyNDggMjcuNzAzNyAyNy4xMDQ0IDI3LjI3IDI2LjY3MDhDMjYuODM2NCAyNi4yMzcxIDI2LjMxNiAyNi4wMjAzIDI1LjcwODkgMjYuMDIwM1pNMjIuMDE0MyAyOC4yMzE5QzIyLjAxNDMgMjguODU5NiAyMi4xNDM2IDI5LjQyMTEgMjIuNDAyMyAyOS45MTYzQzIyLjIyMjMgMjkuOTkwNiAyMi4wMjc1IDMwLjAyNzQgMjEuODE2OCAzMC4wMjc0QzIxLjM5MiAzMC4wMjc0IDIxLjAzMTcgMjkuODc3NiAyMC43MjcyIDI5LjU3MzFDMjAuNDIyOCAyOS4yNjg3IDIwLjI3MjkgMjguOTA4MyAyMC4yNzI5IDI4LjQ4MzVDMjAuMjcyOSAyOC4wNTg3IDIwLjQyMjggMjcuNjk4MyAyMC43MjcyIDI3LjM5MzlDMjEuMDMxNyAyNy4wODk0IDIxLjM5MiAyNi45Mzk2IDIxLjgxNjggMjYuOTM5NkMyMS45NjA1IDI2LjkzOTYgMjIuMDk2OSAyNi45NTY3IDIyLjIyNjIgMjYuOTkxMkMyMi4wODQ5IDI3LjM4NTUgMjIuMDE0MyAyNy43OTkxIDIyLjAxNDMgMjguMjMxOVoiIGNsaXAtcnVsZT0iZXZlbm9kZCIgZmlsbC1ydWxlPSJldmVub2RkIi8+JiN4YTs8ZGVmcz4mI3hhOzxsaW5lYXJHcmFkaWVudCBncmFkaWVudFVuaXRzPSJ1c2VyU3BhY2VPblVzZSIgeTI9IjQ0LjI3OTIiIHgyPSI0MS41NjQ1IiB5MT0iNi44NDc3NSIgeDE9IjQuODUyODciIGlkPSJwYWludDBfbGluZWFyXzI2MjJfMjA0NzUiPiYjeGE7PHN0b3Agc3RvcC1jb2xvcj0id2hpdGUiLz4mI3hhOzxzdG9wIHN0b3AtY29sb3I9IiNFQUVDRUUiIG9mZnNldD0iMSIvPiYjeGE7PC9saW5lYXJHcmFkaWVudD4mI3hhOzxyYWRpYWxHcmFkaWVudCBncmFkaWVudFRyYW5zZm9ybT0idHJhbnNsYXRlKDE1LjI1ODMgMTUuOTk1NCkgcm90YXRlKDQzLjg3NzkpIHNjYWxlKDI1Ljg1MjQgNDguODExNykiIGdyYWRpZW50VW5pdHM9InVzZXJTcGFjZU9uVXNlIiByPSIxIiBjeT0iMCIgY3g9IjAiIGlkPSJwYWludDFfcmFkaWFsXzI2MjJfMjA0NzUiPiYjeGE7PHN0b3Agc3RvcC1jb2xvcj0iIzAxOTVGRiIvPiYjeGE7PHN0b3Agc3RvcC1jb2xvcj0iIzExNDdFOSIgb2Zmc2V0PSIxIi8+JiN4YTs8L3JhZGlhbEdyYWRpZW50PiYjeGE7PHJhZGlhbEdyYWRpZW50IGdyYWRpZW50VHJhbnNmb3JtPSJ0cmFuc2xhdGUoMTUuMjUyMiAxNi4wODc2KSByb3RhdGUoNDMuNTYwMikgc2NhbGUoMjUuODcyNyAyMy41NDcxKSIgZ3JhZGllbnRVbml0cz0idXNlclNwYWNlT25Vc2UiIHI9IjEiIGN5PSIwIiBjeD0iMCIgaWQ9InBhaW50Ml9yYWRpYWxfMjYyMl8yMDQ3NSI+JiN4YTs8c3RvcCBzdG9wLWNvbG9yPSIjMTM0OEZGIi8+JiN4YTs8c3RvcCBzdG9wLWNvbG9yPSIjMDYyMzhEIiBvZmZzZXQ9IjEiLz4mI3hhOzwvcmFkaWFsR3JhZGllbnQ+JiN4YTs8L2RlZnM+JiN4YTs8L3N2Zz4=;points=[[0,0,0,0,0],[0,0.25,0,0,0],[0,0.5,0,0,0],[0,0.75,0,0,0],[0.25,0,0,0,0],[0.5,0,0,0,0],[0.75,0,0,0,0],[1,0,0,0,0],[1,0.25,0,0,0],[1,0.5,0,0,0],[1,0.75,0,0,0]];" parent="uZPeagV1LzCzwJO0KJH_-1" vertex="1">
          <mxGeometry x="484" y="4663" width="20" height="20" as="geometry" />
        </mxCell>
        <mxCell id="uZPeagV1LzCzwJO0KJH_-7" value="" style="shape=image;verticalLabelPosition=bottom;labelBackgroundColor=default;verticalAlign=top;aspect=fixed;imageAspect=0;image=data:image/png,iVBORw0KGgoAAAANSUhEUgAAAMAAAADACAYAAABS3GwHAAAACXBIWXMAACxLAAAsSwGlPZapAAAAAXNSR0IArs4c6QAAAARnQU1BAACxjwv8YQUAAHx4SURBVHgB7b0JtGZXdR649//eq3nSWCVUJSQkISMVSLJ7dVSAV2SwEfGwkA3CQ2wLDB7S3WkkQZy0kwVSu5e7jUESmdqOwYg4sWPARiTEzZAEkQSEV1YsAZIIGpCEBEIC1Ty+V+/ffc89e/j2ufeVSvN4pFf/f+8994x7+PZw70/0QnmhPI8L0wvlCSk33XTThrm51afSDJ1HzBuE+FSe8HoW2dAt86ldlQ19Re4/NyzRzE6S7q8rwnJPPcX3iEzv5e78dDq9h3my8/DBvTeff/75O+mF8rjLCwzwKIsT+ixfWImczmXi82hpon6yyk4huVmm9BUm6ZiEbn75y868gV4oj6q8wACPUHqCX7H6YuHJeRPmv9mt2Hn0TC4dI0xFviDTxRsWeXrz+S972T30QlmyvMAATSkEP7tiTYExF3cE/4ZuhU6lx1BmZ2dpZjKhyYRpbm62EGb97JdcuvPl2kxfdzpdpOnitN7ILAuHF/p9WVg43F2b0sLhxf7zMZWOIboub148fPiTi4f23/ACdMrlBQYglfIr17yFJvyGRwNnCpEvX7aMlneEvaz7nJmZdMdzNNedL4RMIpXauyPBG/GAy/+dpVBOSjkSO9l9rbd21/p9Onz4MM13THFofp4WO6Y42H0udOcOd9+PuohcvzidfnKRFm94QTs8jxnAoE0npi/tCPDCR6pfJPaqFSto1coVtGL5sp7QqwSvBMsdEJdC8D3hV0JWUu6ZoVwrJztq5lJXm+We7CujdBcm3fUpa4t95Z4XapskWq/eabqEeu1RmOHgwUP954GDBzuNIY80pdLxDd29H1k8uO/656tmeN4xwNe+fseFPbyZ8KV0BElfCL5I9zWrV9FqJXqqMtkJOYvyUmw5g76L9Ga9D4S73k/1rDKFSGqEQnmIMUVlJFaNYW1G92K3HZw/xAc6hijMUD4fgSEK8V9fmOH5Zkg/LxiggTgXLlWvEP2GtWt6oi8EX46tiIlz/9KfrR8u9Xs5rReN+LnebtIbJDdVbupbVMLW9qNP54y8U9affrEulWOck9iuy/6DB3n33n09QxwRMgndszhdvOoVL3vpdfQ8KM9pBiiEv2zVund0s7yMlpD2PdGv64h+1SpatWqlSdAgIrYzbBBEJTb3cMXIudSe9JK5HFYolCBLbaU5CBNB1UpqDyoN22hkf1UpymzKeADCKmPqHYUJdu/b12uGJZmhY4Tu1hvmF+evei7bCs9JBrjp618/dZbnLjsSzCl4/vjjNkj36WvgRFyp2KmTALs79FFpbdAEYUrfGIh5vdelfrpuDFaJvxJvGcNUeIio/B7QAMqkAmxTWcF653QP9FvmuW///u7vAO3Zt5+OUK57rjLCc4oBCuHPTeau7Ajo0rHrRdofs34dHbdhvcKbLESJwnjtzyTjVQkzMQIpYQHxmgQXNV4pGa8GlBihizS2BIPnx3B/U0Gc8rFtUoLHNmTgdPI+3bjuTnceJtl/4CDv2L37SBDpOccIzwkGeCSoUzw3xx+zof/MLsZSWHE7O36XIfBA87cyRk+GmXAFviQmwTJgGIrKjwSbVIob8wARO86p8Iuokfo6XGGCe5zjCd20Qrv37KNde/Z2LtcFWqI8ZxjhWc8At37jrvcckfCP3dB5cVY2BIt7b6fCbw8mp3EGWsFEifiE0ERFw7PeNmViztyhNSnwevLucNgbaYimKRigklJ9g/kldeX8DFCptlHXgAncR34DF1tBtu/cxQcPzdOgdDaCLE4/sPXsM6+lZ3F51jJAcWd2MObDNBKpNcJftWIlDexIx8/ZIh3g9OTxCXdkbcOhESXcLuDy1HbJm1IbIRiNaAQCOeSJS8nbIw3Bor2gRJ27FqfnjLp6eTBVBQRQLdkllYsPHjpE23fu7j8H5VnuNXrWMUCBO8vXrPtwt9MXt9d6w7YQ/sqVeWYOX/qDdE9IxyrNtaglzEoc4l6hjG0CZxufqFtTe1NKcoIH6a8Ce4DZKbQISGsagz2oEcj5DINlimyM+cjHCR5W0DQ5YhHGu65F8Rp97+HtdHhx1EZ4VsKiZxUD3PI/7rqMJ/QeauBOybEpGH/DurUI1X2zDborhaIErqI9yWzJEpET5NabwgImJSKlE5XEeRhGgP0d2r+yVyP9rf6Q5rPRKiP75vjGKD20FBCxVWCFX2RHBJpIUR4a/Bio29PFE3bs2j1khGehNnhWMEDv3ZmZ+/BYEKtI/GPXr+/zcHKwKkpjXLqMY5B9FEQLxEJNioObBO4+wfZdOSSYFWkSqG1sPM6VZqXo+QlPOmQzZQxySYJOGa8H+YfnxzWbsYCovWH2EDfwTrIiiJ5iPazfbnCyc/fe3ms0Up412uAZzwC3fOPuS5mnxdBKUr/g/JNOPEETz+q5IF4rzQYHjgfIENif/diCXMg8AVGCeQKqOAYfZQTS27IUd0OZJLGi5wGN3eO2BqRDRAfU9klOy2ooN1HllIjnK2NiHwduWhQcA933krn6vYd30MBQfpZog2csA/RYf/W693QLfRmeL/77Ezq4c8wx6xX7isObkkxWj1Fip5LkXimpDTAUHeezHYb0NQpDpiGUklilVnBaQlsD3aTqAQqBS+juJEoGb+3DBpwQWWuBG9RJ8YSuHeV+9vG69ULhIgV7gUJy9KenyiBmeHewiMdgUVfl2kP7dl/1TE22e0YyQIE8yybLPk+Nh6cYuSdtPIGW9Xn1fTF40h9kYly6IEA3yhT7hwkIXpmDiDOFRzP2nQbpEVbHpbXhbbAvQmt4q0Dv4a4ccXl6PEKlN9wf8KoxjkPCO+QhX7iwT6jxilJGXMYW3BrZi4cX5aHtO3jgLeq0wfx0/keeiZDoGccAY5AnS/20LUq4gbXroUs6AmnrdzHyQDBQUHqt7IYqlExIBCMRoXCPJk3gYyVlCGAlEO7J/ZkwVB0XZ3iXxbxDuVgSYXJU4zPx/kHj1Klq3435RCn9g5LUyGsNdYsm2Ll7DzVlpxyeXvVMixs8oxjg1m/c/R7i6ZV4rnh4Nm/aSCuWL1dpSpT98H0BgnZkANi7FqDCdKWNwLrY9HvCdpDG02ONWRveF7gqUQNAB9nDCd2pOrHOUGMoMhkZLyevj3tsxrRhhkO6JMFALjPifh+e6QG0IpJBL3pPSad44KHvj3mKrjznrNOvomdIeUYwQJ+uvHrtJ1ovz/q1a2jTicfLxJ15CYZk776mEysmYCfa7Hbszw1dpaFBpM3ITJoj4fQgrjF/Oxi4TXBLR5+WoA3HsgwIN6QuWVZqIHigTsl9GN7PmifBQFzcfHO9UqpNq3FvbVJqRVrTupbyGOfDO3bS3v0HqGn6+vn9u9/6TLALnnYGWArvbzz+WDp2w3rfBQl87s5yLzzU3cgpeBxQloKEEOVTZaBGaxjScqkZGsArOi42GDSI8GJmpvWfvwOkybYDTML/TdKgLgMEyDwjlCOolqVImiPrMqegXch0h0l1vZOQgahaXcapULhfSTpIxANI9AyxC55WBhgj/oL3N590YsnPFwFvCWBzLUlmgeBlkJKRcCYZd3OIPm6YgczorBtpvWFCmXc9UCUUfaYUaXc/gvvSERgQfMJFqTjZe+eMUK73gIFmkOQKFUoGPww7ML5rzrhLF95lvC2YyNAmae/XWaryli6KzN/fviNDomcAEzxtDHDL7befxzTzeQJjt+D9F5/8IpqdnUmS3rIvQR4lN14j7R0ORBvkBjKRRX45NglVCybFqXGqcIgTBHImYnR4InAYen7C8xL3DL02ZH24ehABI5lRBZq70mmy1wAJkECiXWOwkuQsUBs5RZt2or9xijEOKOb9svFPtT9fa22kEP+IXbBT5hd/ZOvWl95MT0N5WhhgjPjLI4gvPvkkfwwxEzBKYm787pLrt501J5K3OwXHlOYr0ZNkleA9YJDM4Q589q0qXlbO4Rh3GJ7o5RmV+KRMZMavJ8XlyWlHbnyGtmkMVoBqIgmxDNo06CM6boM5BGtsmbD9gk6nEXcB6FPXLqd8F+P4oYcf7t9uAeVpY4IJPcWld3PSzE0ExF+M3VOU+EXC+IwN0E8nIsvXSYxBSgNVkgqlTWcml+StyiAIhmk9J3nvhM3NqsRVN5STJuqDVIKEyu1DMTY7ZgYAI4THZPN3m4KSAZ1sGyB+v1IHxQ4D60IquTvE17kqnkq+f2mhZA16cSypebwk3MgWMWSfL2ho5Top2n3TCcfTmtUrcbYbeNnMTV/vaIOe4vKUagD18V+H5wrxv2jjiUJh7IXwR0mfXJtVwACDACBlyNw0WUYOUeJ+F3U+FjC0g+jwFodIGTObFCeTvYjzre8kxSU0mYPzEJzJYMZFQbikr1BZMlcIRoDSngh1ZqwlJbkNV93nb/xgGs2HLLH8bgOIC4fcLAGMpe07d1F5UB/LRCZvedlZp32EnqLylDGAwp6b8FxJZDvxuGMJjF0P0AT8UKjLGKMaMktVxZLgfGYeUrs2oIpLSgI2QO2QcFiznaaNvIuhxwZhT3L6N+nMRM39QIStBmGMjRlbJ8GgtzbJdwTPI2BbAgl+raXcMhCNF1gUCZHDEK3GSDfZc6P1/M7dJWi2Nzc4v3j+UwWHnhIIBJjfywkd8Z9w7DEqKlTdVlJh0+u2gHau1kgBIPvOBIZfck44kUsYZ/WYQ11HVbgtBKWzY8+IQgQRX0cUYj4aY66kBRLkCeMTYVCS+BVy9cTEIpI873q5n3Fh+mp8uhIUG0L0J7lzP03sUItMP4W0x1uYx9Rl/4WRY83+CKHmBnEsrYS22rBuXY8CsHRw6PO33HL7U/IO1iddA/SuzpllCfMX4j/+2GP9VSBjnpryjwMKokaKRJBLiUOlpONaCggjgzE1yh9klgt7M2r9BHpFAPIQ0UDCEQ2jvAoViFpY4x4e/d4qGho1VgejjjWpDAtw0cdDSb47do/OzJ9PYETD3Fyh4HezqJe4Z4kSTdn9JX2iPIcMZef84vz5T7aL9EnVAO7nB+I/dsO6jviPIZTAzPHQiiTXHDnxZ7oxqOASnI3glaE4CTKuEpJyu2lHGd3qRAaTxMY3rX15agMlBaQNccI0bitIFXk239IGK9wxIqqaraVyjv7jFOWkHUHliRNkszAIx1knJWBUR1uOMU0Ta9+clwoL+lVTnbJ+A8PeR2jTduNfjlm/TlavyoZxoZ1CQ/QklieNAfo3NTRBrqLqNh5/nBIPkdmroJVJ9SihCvVGzbdcv/uuoHODxkyvQZ5P2MmGrKpBCcU9L0xT9J9ThSv6F0Mz3ki0qiPq0xGyy10DZUgyEB8TXRN2xnHAYY9nVrdMT+Sl/WnK7QmarTaDgPRnchvI1phiLYyRFIKaQNLFhD3RhavNSPTssQIQcK7sYB9MwxL5HMtTfYkJOtrpmaCjJXqSypPGAOW5XST+4uffdMJxBOQqo7gdydBtAy75QBHpVKwJXBMS0DfVG3QAIV7bjWU9BTDEKBzgS4PfowEfJxHGBsgMXFYpXo/ZxxWms0ATXp/JLX7kyXDtmg++GuFqB+D4rLVwSbJqIq1T56/tuBfT18DdnlKZN0nuVGC7APdTI0t8HfXQb0iNluvHrl+H6e49EyxfvfYT9CSVJ4UBSlanwEPrfUbnSRvtZVRGpiYd+sJqQuaVC6NVUnTWMa0tdv/V2sB2VXAZkvcNM2jlVcy8JTYRBoJLMIrQS/equkwa1hZ1UBxuzhEPE6UIaZKIOgaPZUXpO2VVd4ZNBDVAxEvqIkleHx25QTfSIWRoGeth866Iq94bLwZgHQfFRla2ZNuHFvoITohxcmH/VcO50EhBCbMzM3A3X9i//uZJKExPcNEH16+x45recFL/Ln2qE+wCh7qHkyqB1CBT8U7uP2lBMVFKwmokZFuXiDil6vr9jjSUXgwCWS1w9GvLcd5kt1dLBjOc1CoMD7KksYXGs+FYUpm7LGFm4oMV87VLzCfLZ9Cr2F9dU3t/qUIVWFfXFLE4hCsaq+HaN7lUlzSA0/mWOZYymEvE+DsPfS9JgicjRvCEMsCYx+eUkzeVF1PZoQoiquFzE6eMIs9RKFNKKPNNEYEAGQaHwvthjOKdkoHg1I1dULitlQ3vsjFhUjtAE2wYncLl4+fju/v3R0R7Q08xhuAPhQppeYCH3csUUXLrVzmHYxV0AcBzJCkmQDzit6eQ/EPfvgF+uOyjbO8l0DIm8bVDgnN+6uChQ/zg9x/GoTzhnqEnDAK50QvE3xs1HfHDlvcbVIm/FMGFaOIB/fWemCv2Id1vpcW+PhB/3dxRtwN7z9A2kHE9rnga+3WJDn5tMoTcnZ72P2bRBLjIfaBihNrDKoMfZhfUC9ioMYLDEMN8PtyUngBpBuTSWyAy3BK/UZlqXdMCDK+NaSSyQqFSZzJhzxWpp6yKr6rRM9yeiB+1gH4Yx6gt7bdVRi524zHr1hKUDU+0UfyEMUB5gJ3Q47NuDZ1w3DH9d6YxTMvkwJ/C21F1NQaoKjyq1ZUolYxcnYCynmgkWQjVtxJgPtkXl9QpN6dCFlfrjYsSJ6MEJ+pZ4tRBZUhGNyijCFeCV+oxAiS3NdwuiofYq2RXoVntV1FXZV9ZCSrZRqAR69oaC3u/YIxzg9Sqx0efxzBBoDb+wNXpsFRsTZNaYHZhkglCXcLGTNDmurVrpPUM9bT2BJUnhAG++vXb3yLw9oaC+zcdf5xfrxhfN1fdZCbOXbT3hf0fKEJhhHLwDYV4t3wU0lRc21DTGuCS8yYp2KfduH4Q6nI1icqR9lyvhRQnZTjOmAulrzcCRrNXS6ihvtlCr0/DpQhNM0HwrBK9+VTJ5mQ9GGG5kHEPEq54s96hicEzpDEMRTLm/nTnBDetmWZwDRafieGa4trPvpe5dZ4hmUlGMV32RCXOMT3OMvZQyxmnbsEfiuv7STjSxJH52t3opdHPxB92wnzZRGhzksEXNDqrWqGQgHUgAFg5ta1ClAb5OZzGgoEuYxSwR/R+kRR06oxtcr1BoYFS423/bZ9oN1AMN1OVDTjWF4uvcYv51UZArA8QJu4fsRX6eEQHb9v6Y7bDeEHbDecu/ZuqH/r+9v51LFqeEHvgcWuA8j5+JP6C+zviFw6/vcnNRHRusEkSkUnU+RYqOvfveh3VuoAhLOj5EQosLAiQVaqTDUdjpBJibkD8wSIk6u6UeOY3YJPLfp+OuPOXiEJ6jxA/HLq0rLJXQEAyc6Zp8VmJz46cm8n7Zejf9gFgjLN0YH2mIWQhGiNkI3IKCLQk8ac+R3SmQi+/tGxuroPVa3EQG5bPzH2YHmd5XAxQoA/Dj1HYW5lVNSZNr0DXqoLAAq8AAQxJQtnShoQoFtFwjrclljQXgq/RcXjChlV7MfuiejMlmAW3icLHX3F3OGsoj1zIbA63j81Pb48umvqr6DBjaYZxCyOMQwpgpvCASijEqcM5iJ2RtkFD4s3HnGfeEP4I1fs3uGwaX7LAG+3ThGTA0J5hQmhaWbt6FZcfLowO+cJbbrvjMnoc5TEzQIE+M5OZ99hxwf0nnXi8Dpgd64qF012quKQyMUv1E41OO0cmjYCsUUckdCSaz4MOzeDBtE9G/uQmpxuh0KhCEK0virw4mCNgTl/FNAep4UgeBcaRknLERJw8Qy4KVElicaJMZ3MVD5xpMiBz5liPF1DTO5SQsDI4TdQmR8loO1mrOxGbp6e9v3U2LFXUVgRtVO89rrwbCpiCZyfveTxeocfMAC30OXbdul5NkbsnuKHV0Nkpt6ZReyiE/W5Xh9EWag5SIxTxN7nDMQSTqyJ20ai7xLGoIMcM0tifjpHMq0ND4Sh1SIy4AzgLvoRHqPKnP00Gc7OLXJPxRCLz1eGiaU5xsx4INdzLw7QGcmGV/jEelwhOwD2SiI+Tsw1doKpwBD1BWcrDMoMAyQa/YT0x+ujovTOGN+T06fLrQB+mx1geEwN89Rt3Xpygz4oVdGzHmbASgtK7nrV9CRxq94MUH6pYKDL2HZfSjgVPqValkFJkuINcTwfGZb0YbfX+/ipjo02IDvcbb9rCe2LjeoRsQtmjA/CAM45KsllwLtq9eDJeaCNua1bqAS0chgRZ186Q0bPo/pjLMoRLSmOYejzH11Vanz/eA3ve4FB128rg2QEznty+KWXtmtWEUKi7eHH/+8+PoTwmBpghvgaPT9p4vI6DUjDLOb8J4JQD0AJBy2IBGuK0TUl9Vo9fQHWLxA40qtKPmBQzSS/96056SmB2ZhTXRpL88BXrA1/14jGNmxSSkJG9GeVVHwi6q2JwKh3rQimNCdK/f5FGlyZlWDVcvXWqsgUbSFjEsDVeTfzAunFiNkdLkBwpD34PGLucDWYmZJjGDnBYK2Rqn2KoREQ5JsFwX3lnFF6j/teCHkN51AxQcn1o4PWZ8+tmaLGhBTLMDETEHhZQBW/Ewa2P3xknvEpuCCb3p1hAli0pDqkNeSx7agjSAVzYWKsGoygISGtYhYhPtGMmjzTFMMhVD1ngzDWSYPBOMVwTZLIB+5dJCmDV5LjqxpJwZGWOqsiGk9Ax6R9269DD45K9k/oGTVR8OEMY3EHYRcMSZEDk8FZ8uLB1/QGaItY198ly6xAKdTT5tW/ccSU9ysKPpnLr8y+G72lbTqb+1YVO1MN30GBx2WBJX1I3Mr1ag5yHhsM1/K6Qgl36NtK1dlLH08YFqsTnL3yH6D8/wPSVh7u/7Sz37gbi4kS7IYZFN7uRwuznffMiwC/QmIl0kUSVNB0R84L167n1y4lO2cD0io1Erz6V6Mdf1oHgFZHZGYLChUBliZDqvja16yWS4pr5N3saamekHGH//b54lb0pjxG3qk6gjy+IMG5O0eIlpvLA9x6mxXjP0M75fbtPezSvXHxUDHDLN+68DrF/gT7r16xxX28QKLg20bvjhOqgMBmTZnwBI3h1lZ4SQSfxvdRq2pf+sgoGynQ5bbsK0f9f/31CX/jOI0+/H9PUhiEBgZw4x4nfcZy9XW5KNoza1lRC/yNDTalhlrbd+Cz3rF/B9OM/IPQPXjOhLRv8rsTsYjEXcp+8sUUSWElojBOxXYt2iMBYdfHtco5i2khsft0UlEopXaC6/8600JhJRhvbvv0HafuuXd5wt/dXvfysM6+koyxHzQCa6Xm3HRfpf/qLtzgqyPO21jmINyQT2R2pesAWjBKbbhz1ncE+hBbQ740G6Bu6dw/R278wQ//5OzyU8EcqJoUpE+4YIXva0FTxlOT7nSHa84pWuJH8JNh+cw6Y6pSO+H/nxztmONtZtGJPdqGPm1T5OgemSJJcAuIFZwZHYIyRAY64fGEEx3G4xG12kbAEe+6sSlDR26zTeejhHXRo3n+h5lFFiI/aBujdnlB6n7+BZjbszu4rUZHv9SW5t8bxjVaoBqRrEomkF3KZrtiHGBSlNk4YbfB1+8rDRD/2qUr8zdAGAyAaSgYNasQEChGMEDNBvQHxW58S39nby8TPPitO9ZEhxPrq/r61Q+iX/tWU3vsfgisiQS8JYHeZGl6vzTqRGs62qZtjo/JctQEYXKCi9offb1PC1WMzSpz9BIm/DilOsa2NEb/Jl5BbbEIz2wLFLTqz7D10lOWoNEAr/UvE95QXnaRONrf22maNoduLDoVC0oQAYEbj0ZgpVYKGvLtGlTtU6j+/qsS/89BRK7zUvmN5O2dSGL4TQKPA/ng/gZTP7S1dP8671JPxe+Ic0d//Uabf/NEJQFAlPLcTyI1JGeTzZOkfa2GkGDCIiAg9PmnTyJmJSJ8mYw1oZsJv4BYGE3sGngIzYj1Yw+7goYe3oxagTgucdjRa4Kg0QCv9i+dHZ5DyNWLu4v+iQFMhZ8Rfa1UPuzPLVEy01RYsJKptUMr05LphCK1CzPUX+N69RG/67KMnftcpyHFAfBX34/kgfmkIUwQkLOX2WIbHMkLcAgSODOReJfGO6Hc/N6U/+K9T17pK0Bidq81K4xiwumK0KbECOQBmMIgatzdbWwaTyDS4bZ+YxwnfywRMWDWrp7m4QCQLpkksCCxcowVolueOKkXiERmgSH9u8n1Wr1qpD40LDEH/ZbdrdNhRkEoTbnSVip5ydPF5kpC40cyGACQYw6SGJ8kR/eoXZuTePY9S8lOsL0IUAiILWOO86lI6wAMRLYnhYa7TIPYsfu1806eNTBmLg8D8tt/65JRu+Q7sj8iSgSi9jhSOGD95e8yTNLZgEozDDJFzBkmS3EspvSLttw9OYF1M6iHksrJ82VwKjk0mfOnRpEg8IgO00l/f5jYIkkwg2GWqTkW8JIVgqktdkb1oaj0VFIlfYRfUTwdcUJ8iHYIIKOGP72D6wrf5iNTvhgfDzUKNYUsjBEiuwhIMSfepJT8dZwL/DteGXqZoV5q2kwZJ99T+/uH1i34Hu2eFqDVKdf5I1Yb7BbwMBKOlVosIuRYJqQ6iELQC9OLCi0JTaP82J8pMr+OvAMK1T/WTrV+7BuewYXbVmkfUAo/IAF2Xf9O+L1++rNcAFuioxmod3rRRY3VcJI0aJsDLrELaiV1vJgyihBTwf+rcCTLdzKZQcGB5+L/93x8Z4YWEiU/b0RbKoEFqMAQ/U/0gkBGmoAHxJ8i1xF+OPQBhjI5T6It3dX93+uOnLm45xwD0O3GrIQRcnnYco0ZaC+1HwXAhqcW9RiC5WUIDOL0M+DpmJUSgPETBM0HsaNncHBdNYGXCk3c8khY4IoWUdGeCqG95Z0vl4thHDjmIe6pRPtPz9UoyYCgvoRlMfU0N6efRKNMYA3E8OYHgSlMj+L90vv7HAn2QWJN01U/D50EUU1XrLQGL2wpjTOHtwo628Kr+AcPAWBJTOWNqZ9Dmez8z9dtUMwsSsggoF323kQBoH4E7Sy2q8XqGV6FtDL7a4BjnUnt0MCcq4bNRrvNji3hrL9pRz2CtR2hu5Zq30BHKERmgTXfe4A8k2Pg4+ZJxMor9LAgAV2MqitvjXiVldveS3Y9SQtOIVep7+lkE1PvyyXsePfEnSUqZoJWhYQZ6vgxjaoQX7XDsL7RtTMFDwu+/c8hXIULpn8aXzlFqq41Q3/LtKe3anzwtg80gXb36IU1MADJlaam8IDtGWaFGLiNUqlAnNI27YU2qcgoPuObwzU/94UIYE5RfE0Vo19kCb6AjlCUZoM+uA+nfYX/lRPbJiwWc7ByYYzrqsPRq/o3YYrDfZgFAu0QUKURxv4sVfCd+1YGCa1GlB0tJb2gLPwJPeDYmClIgusQQTCOESImJHMeCaJRE+DRkIop2xKQ7RbvcjIlSH0x5LZh27ye6b8fIXLlFGVGMCew7XOGmXt1ByL0yjE6xoiDh6gxCaApNXdszTAc4ioBSYjHY6KZuhcXK+0RHXrt6VYyR+MIjZYouyQA84bfg8coe+9cm49/w+KjUN5eXIwT/88SyVmFgwIYRTngLlciD8XBNKRxEbEGcPuq7dzgnWXLLK2FZlmgQMXhrhIga4vX0vob4g/ApMZNITqVAcUxptQBLtAxIyKjihD7sMzjka/cLrJ2tBeL5YD0MgEHdfK93IcjrQyMX4jPaEBM886sB1OhLp+TRa90DHT08D6yaxO5RA9ocI2tWBQPoxC+mJcooA9x0990beDJx1VFecTI3M5P9kqJvOAZyZIvQxq7XfHhpBUFaQEsE1YmILxxJaIxYUYTVzhgqEZxA+VHh/6n6tIkySSRpq0IOor9AY37OoBIyjBEzZwGa60mcTJrGzzG1jBb9ZWazlbH2798uIpLejGHGTKvHBouGBjOcq5o2MI/gHrVFmhQYpXm2NwRKaA9B9BtsWTcjWhZFFAkv2eDKGyQkGcNHcInOjp2cObhwMc3M+A09R0GCkmbmOVyESUTUghktLVgAQUkm5vK0uoo/2RSeSx+JbEd2JvCYQL2HVXrUXkc5AHFqf2xVWyJUnC4SAM+IU0DsZcLVOhLHLhGn2L4uGDCJnS8Znj982qQnqF0HhP7yNqJv7SjVppSe54JPHpxT08nlkKjINIzv5KQSmhLuj7XSZxS0VXZPRV00uMaJENhhrXtpjPDZeaBoALPeYAlJ5WsINXZ/B1rE1rbLU3dY9a2uW7OGvrfdsd+GmdWrixa4jpoyygCTmdlLbTWL8dtjKojaRY/6qRN3PVYJIZgAQ+iEe1cJ2Bc/DNnaspisiYUkcM4kYnAgJEcU/RnSkm86iig0UofQghrGACYiafpCrWIDjDZwHKesJ/pnFxfin7GJ9ET6Oz9O9L99XOhP/3pKCMH6hWwzR3Ws2fMURGrUPJ1C2kjkSbRjb9aR9WEXQtjSrrU66H3OQtK2az6OqFqbD21mU2DKZluGVy6QSTCirFzVueyTC3eWJpfSCAMMIFAf+SW50I7L447E4bONmbOBgrx6niSlcEVdlwppCCRBTMz0h9sJRAOLNUQWdMVjz6gS09IG3rBR5WLilgYy0RNicEowxbEvEHd91ouVSKM99n5z2596K3fSn205PGennPhnl7C86rQ8Jhkxmofjr4wUEjYHMBsJ74VHvQUqENj3gCnbC5rJqbC3ToQly5a0rVkZ2cLE2NSPYt25b0S1i07bdAgK3nod3klbGr5wDAYNGGCGZi7E4/73m2JSzaqTjTAsRXe1qXvSGYVB/GPqN0liIYsfwzrhePqFMQVBgsxD+uzuiPQaKQBz3ADW8wLElKS8EnvO8YNEmxC25Jma3pfdT5lRuo9fOLc+5MIA5ew23Uv++6/NjJoYyEUOjEPrcnAdujRrVffiMC4wjTHFcPkCr1hbed3FO/IOSXnSCN+Yqt9KXyu2TyUS9ugvTJ3Q95TTOKq9031duWJ5GvNYTGDAAJPJJN7rPztbIr9iSt7WWIcOKmygCcmWn/LLogwNQRiX/FHG8O8TqmUXi/qpORSO/6w7dRiLM9GSxZuWxNKuuyTqiUg69g4b4ou2xQk7iQsJRgkirWD3FZvS88ANOqoHW0+aJKYZ67vVQngsLnIGIyYz5vo1oOHatSgruUjFPT+C/n1sq+6iZ4YSN9m70mQLaH2YfWgOFH7AQ+RSEJTMss4QfqSYwIABuhu8Ukl70HkYN4NJBDEqPY6B+HrBsgsjbRG0Q74u9X7NVpdED+1mEzBKwCePT9BSRWgkQku+kW0gKZNMJjBPvmjqh0s1NmlouITEXrc820bcMnDXzvoVQYWJ0EmDazqWhOexDnhzpHGB+jrqdcotoKQbIXYbM4PmFV8KUuKx95x6vVSfwHlhLzJWKiDKZls6Yic3o8Z6PaBwA4POa2FQYoDyuhM8blNMY7BkWE3Tm1upofNmY5p4uscnwVBXUFerNGqJ2HSozoUVE+rMYhGElixDoicgZnIjzM/5iLI0DQkMLJrF9pAxSplmhjJi3XUwDRPQhSd79QKBYawxJ11hhXBDaCTWl+N/FBJ2nNYJQ40mfirDOwFLE9NphtWeF90dxcPhz8LxGEggCLiJCraMytIJZX9jgliGUsor1qFsmF2xJv386qQ5cAaYmUw6I2KF9RB0EpwNcpc4jGSpjKijJxMgdcwDRQuqjN1mUKtBr3MaRL2FxbUSk0Eo633UCNY1M12bpKONp7mOeD3lBSXitlEwtSqO8RviiIZZ/vLrNnRpjMQghJLUlnSuADCl4byyvCDH/2PaccSH784xddkwcyPn1GdPoxHleHUkmBy+oFXQDFAijTQEHK0LFHrS20q4TYJpC40UL2Zj4yQhnxigq3iufe+9P9CozwPHg14bRw/oluqpUxQtxK0cc2D1MCHGt2ZYfSlW1+fseyEmnfurHhHlRhpJLLG58gaSHHfC75GG+A2DSiNh65/gOf1gE3vITNqGMd5//abQv74J3MxM4D6scOAf/ruIL6DwQCbN4891CSSupGS4XmQIVNEfFMeVs1SdBJ04PD4WnbcVhZ+qTYyNQTWPcjLQMaGcYYND7EqElWjI7jeh7OkQTGEfSm/Tph/da+0AZwD9PVZXD4r/+7EwMyygM6LznZ0zGldVKXA7LnCGLroARrPOY9PwJiHcEV/UWFDz9yaokkpIZyaQnEbjA4ZQmS7AcS1hEyUidkZJkp4avE7eYVv37358Su/9j0L37cxp5l+8S/gNfzClW74d8+qvTJt2m37ztbgNNAAHoQwjtQJ9ofSXoNPQ57bxsD7envhPrRJBQItUuNUNtNcixn06WmAiiluFTNylRYjpCmOO2PJlyRt0KtoBzhozk7mEjar3p+4VT0wwSzJ0vDsBMc1OvG7B2AJajkcE9FBquOCuAjBkRNI+Gl3lqOvyuX6v94UGQMLEBVbiRFUhYMRGJa1nO4UPt1Bcc6Zo+0S5JuJM5fUhteJ3/4N0f4u8ZX29tvsAlUxOGhrnCaxQI1CSreN2TGAal8JLOQuMcgz6OGWGNWy4qJ+GvbMnHJMyBrd8s8nEZ9hQPJWgF80DwDvZacvWVMxItmgxpT0XzzoVXrFsGe2G5jAq7AwwYbrQK3RqY/ny5a6OjaBVHKTQtkdoY5EZJUIl+vrSKxeYlurgcjQ4Fone14crEUzKO39IH5I22aUBtipNZID/bfOTiFPCRok/JCxntkRsNmKCJSGYCUp+Tgzjk6/rTSAcRAgWp2ZvSvSXxm72CVGeqY8dGc73pMpMgD/JWwZ7SMEorvA4uAZXVrLI1iEIDT1x4LHXI8YxZtKNpdTNs+guZ4EScbg+9RzaM4+S0V1nByRG5unEhf0kxghPfnUcI2NeGAkwD5vCREyCUsjVGZCHAPfr10h7qByrBEy2AOidAAJXuAP9aVs1q1RjDOVvCpK2IRb/NAxPaJWJEyUSdDCKboK0beBypbyVqEfWHqU+EEr5Avh4GshFlGIJIUqwLx1HjTW0kj65QvVHC4UAUmIBdY1nK47BvlyyUxLIQdEE6CFen1j3OrYqUQucIoc8db8TAwqoF/dwTURbkvy88ORv+neYkXPFysD/ZJBFKVLcE8H+sL9USY8kHhkKQkbo4tdsAiad26WNOUGOBxEstDNJMndDoplO5DBAfTACW22tcYqgLqURErMI5Xu0TpyXoS9qjGGadr0dyjEGc3NmRjRGpVHirzBBWsKIVh3DW/Q0hbjJdq6R6Gk1WbnPhCuB8eAODpPiuFxMCJVFWuUrPnOdCZG50wfjDkZAMWsZCv0U0q/Pk3g8oGeA9oEBMIBjQNa8WvCkuM98y2kCdZROeQy5RMY0SppxXaA7XGLqn+2MkxoxthyBINRwQvWTnzbUZ0SWCNcISOK4mXh/zWCMylpuiMzH6swWTpwUXW77kEY7pbrQLlkUmQftMDX1sW0hMAW9BBMoQ0gvLCeBIpCopP1lGnZlpJolQQWukiePKO9vbbYExiYcCFMGo9Nps7Iq4CRxYaC2h7p4tWfIFOiJv5wtP9uF/c/NrT61fPYMwLOTZACX4IE7flrlqROy5VFL3H39ukTiv7xurjL0NAjAHaMsRxUhQUgbVXiDtKB605irSgdfNDZIEQyCzdrqmqR1JqgNJ+YY1wBwjgiZkMTbJWegROSwrGPEn8dCmdlojEGNIDgxITreRqR3CmD2K9D/uB25VvDVYosz2xBNqBEhGjNOVWFSr8ZeqXbhgLXOenmZ9VpEnCi+D+27cDCDrVP3oac/sQfNu3jAXO5jli8sHxUCiZxq54vfdGYyU808f17TtkLq2k0jJdqWxL7bPvhETNLrk1wmQ9V6z0RPXkWH5bieYJEJuUZpyfzFYpCsJf6QlO0f4KhEbECgibCI4vcFoBjDmOdOkAKwTrTZvlpR16bpd3wcwz7ifJ0nA9NnQF23o36IM4NibVddJpEk3TzAQTKAWHiVDCnYfjvs0fgQ26azOf7ESN7aclYQCoeH0k1fT6EOOTqp4086sfP/08xMIP7utlP783rZA2DVAJ6yqT7y7E7bB+FE5BTOMf0BOCVi9+qw3sColAUeZvENheeGa3vm4rJK7Ozm0rbyD46VMG7gE1aeaIk8ERkeD5ghCNO8UOg25UYC215ivSBIaAegWmJcGzRJQ/whMms7PGCgmDDcN/JV78ZFEXDqkwsazstlc1D4IWbFprQKEXBiYOoFpE17NXuU1RhRyd06R0nji9cMRmJU6FwBOkm/Y9HxQk/zE+0jDOCSO9F4AWKFzRuOWi++m9uJDJK4fVAX1znVNCjStQqCptPk1kSZ5icFXbRKG8kCV7CKRE6tESuet28b6+KjfHpimx3bhKFiIvJgDNtZG3rWQtGm2wqUCTqNo7knHcN8ExMBF+ua9+sqA2yvRBmWmTci2UIDXoagXTXGOVzcQOQaDNX5AOkCoROsMUcKvULCRAeS/8EpRmuh2ZWPWIp7P+pxT/OT8vxvVzsiY+UHro2B0HDVu0wqmwQTC3srv9mAWBWfGSq2CPW9jw6bbO4M9zJ81s1y/kBfddJwId1t4YVGvTRGHPlunS4QkIsnYBzRThCSpFecEPZDTsQERE0S7UQbOgS7pn8iQ01k9cYZSNI6RH8tG5BKZ5UYKr0p5fVgOEri7Qess+nbNTsPJs5A32yPeJPJIQriItX4LEZXRIoAJNCGNHuKa1F/ZAOPKSRsHai4J3Fa84KgbCieoAktLJyKZ3sIFCsXZB34moHQbE1jR03+i1AIDsX8Qu4eVZhiE/X/QreSuebsBpyp+FZoXY5xVCknvl82WEpER0FoIdW1IyewLKxYGujjbVPeGMrXUGu3DES6Tmj4jrWBGkYStwPjwP12DzfLZ65EkUhREZWyprEB+jikYQcUtgXkNNGjFIA+WRDqyrF/97GqkKk2q51QHM+wmOUE56Q7sbnop3XN4TBxe0PHzzKZZIYpnqDO3J2ciidnOmNh4hAoPnvJPR0LjvmQ2OIEtgTcLDwKCz0WW1bFj0RBGmxahE0O+81gbAkZ7FGcKa51jMaHRC5AgI2EbzC4eBuUiJCJMgOZtpDGL0+8xLtBcXUb92b5f9rUJ1xTTtfQ02TjsrY3H8e0dUv0zsrWnqrAGG0gwljBFGBSHVa8fkRsH8R+GM/235qq3sHKn702ATvAhKkN1zyFKOaUJghcpb6pTujSGnsJMtffUDPXKM/NzjDWncxNTp3trONTsY3lNX9anHkrGQT0sYGI9widUxJAlqdBAZmCcyXfS6D22PUgR0sWLNH7HB6wq3920mDbnFgzH6PASIFIeQw+pCEmw5saXEEm2cK2wPYpEXcdnk2E0lgYV1GgXxwXSFDx6Qbxr1vJ9KuvnaFtZ03oVT8QwX7rsl8+gbfFYSqE7UH//IG9pobz5uq4meHtDwRzI2RuI6IppwX1qbJirUAMTjfgEomgVugiofwgEYzfKQHaotmZ2UR1HYOfOtv5fzeUbLdSzEiYerKZwJSc49iIDASN4nQbnN0hwAT1mIKb0ya49PfgiqUq6v3TWNG00DH7KmbKIAA54ecAO/sWBUHpansf+DNEbtC2jGL1252IxSEncuw+tTN0ZwbzyCjux/GUz62bmd78qln62W0TWlsehAqNCrwlSrsQ3XVjNbRMr+19N/NypaP+JoOkDpmB0KpP3jw9tWnw1rEJg8RjkeTGabuciercue+bXQaox9J0T50UE4jb4gpdXJzapVNnu6unWuuzaiSApGPgrzBGHbz4cCVegKIYj+3/4B5royS1GfFTqEGfeG3Z+lUmN/gZ+5+8SCKx7pK8e8lPTejzH2Bn+Euao5Hc2EY9H2Jt0I41P4023U9PAF3AtTqYqG8Bngt8v6WDOddeOkuvPGui08zReWloMoif7QVPVdiwxnicdMl8PLUZg006DiVb8EbbGlFODmBYn2pyuxi0WI+2wLFTzgTkKhAQuKMEe5CszobcjqRGk/RzKQMra1QZoEM/62c7oPRim8qkvwhmuLrCbK2ZKUIOJJGVie4042Ylboc7dUSmb31J2wlJyuhUyvaMqboJRJ6GoWsjsWU4DiUe2wqPDrelka6ZYaAOngfCjGPdJD12/mltABphOpLMeMagzRh18fu5rOuk/Lt+cqaHO/5MRGjT6gMhTYTUY5xK7E1POmEEVznNpCg4SNt+yjYttLpBg/7Z0YHumZOxQy2nCSf+cJEDCQuIvqR6pDWAmRrmsEVijrhDV7kExCj25ZjkF1o+Nxt4XwK7wx6YRnJJz8R5kxglDIVQhrFRoivdFEBb8XIriY3SReU4ZyqUIx12KDUzAetJ9eO7HQEFoQYD0aVFcGI3prJ7mJBTrB5TaA+gvuhHm/N2lSwQ15sQt9lfdO4M/eNfnpF1qyq1T6fT3i3IajVargKGdHxfdG8mHsSKpa5BUKVR33CjQAahVY1c8vEREywJLqkb2uJmm3OLLkafF+SWp9pvvvSxpJU+3W3qrsXwTrKJbEcs7NZE9y/GAmgiG2Y7NjjNVkkg+5Jh3fMAEvciBxqeawdNKoZEyCyZhupI++nbkIxPoS1fOGMUMJi1hpJgjEGQmEuZZimKOBuHlTg1ETwOWOB+najwKKGnDW8khtd3Qge3qBLiRGuvX0H025fM0Zu3TYjScCqxT6cUGpOoVWpWt9+KsEXEl8TwDyjK4D7CeVRlHhmdXI0vWyP2JSEHCtTYhManpO0wdMzDddJZGuF7vzJtnDTOjA636zlOwY3uy+TFSQP0QbBYJRCPsH2CWykIXZTQKREv+mVJ3VcSFWFB2HtME0I2MAAkRqCEMIgKgkMInXedgCi1EuTihO/YtbbSN/rgZJwZJJgqDQD5XBqmxzYE1nyavATRc/d968lMH/6N2R7zD1KBVXIqptdTgfWJ4gkwEPhsQlfPiy+P87dZAYqCBcWNcDSWosrhXeqrEXolqoOFDcaEtUmmACiWgEJrSJAg9kR5oxshln4LmYoRPENYZnkyWU8gbfoRUkO4WY+6KFB47p1Vr6+BJHLCCvqXsA3sGqxZvcnQVfZM1B2oY7LxwUxF96bKTxcrVSKbFOaslaJb8Q6iRwlvKtbL0IRAwgMj2iomRoljEtAUFEyoGC/GA/f87AUT+u03zVAHeXQ4ZkWz34JagzlJLZeWBNLTh9X9e/9DdWL3P2Rb2LlTV3d2xhqmzSeYwPJbEm/bMPv7HAUwLB7eww5jdNo20jo2oiA/VybBt4gwLBPBXKJjg0OBLMIt4i0QSDY0cwm5jxvkrQPxAf2K5zgZXnfrxWlDiRGMXL2vLoB7mdTvbIqCKARWM4EgBtZAi6h6d08LwhGdExqw6dPlIDAFSbPbjdSGz/4NzonQQ3on96kgo1AQv7eT67/rJ2bo7/3kbIaFOhRvn5ka/mZbbZ14T/i79xHdejfRbd3fl2+R7vuUvv2QQa7yAt6IwPn+d+fOfsmETjmR6WWnTWjby+foglfMqUY26tX6IREdQbqrm1jA2A2yr0cACpxxKYv3vAkodJxdMrlqA24LJQhEPQNAKRYyUGbToB1wjEoI/a2APZEFQxKDvcBoOwgbE7gsi/uVOexmDjQVC0boCaKMJaEdJyw/F2M3IvTjprjLVFRHN/fU6zzot9Y1pkDGGk6VkEl0vQvxl78MK8mnyGOwAAVJd9+ujuj/6laWP/p3xIX4d+8LwnbCJ4H51+sVCtZrt921wLfdJfTpLwldU8/zRduW0UUXLKeLXrlCirYQMTXBiXQEnB5VC7VxgCkTMHAYtoZ8PKIbNoDJxDE4ZMsskEnsD5NlhuJbb7/LW9h0wvGdylvdtFa/W6Uhk0WkLbfsDKoDEmoMVm/JpTctwe+ABSnd7/JahxltrLl2hjJskWzSwHH46CUkN2oO8OELtInSXeweb3/pfpe61jLVu368Er8vQ3YOCCwO8IEJOaH7Ojjz5zfMUEf4tGufOGGTEv2Q+OO70DTqK7MsdX5dRzIXbVtBl//tdbR54wzlXRSiJr4gmYB8D8FWtCkw0p7PmBOpSAPphECzGOy2OvsPHKRde+Lng5rfB/A1BaJNp0gjb/03VXscEwETSdzBmzrw2IHeIRQGEyPuB96LTbVF8qmr4jE1yOBoUqa0eYwQIWrOTPyxmsWtwiAIGNYK6QDZ0RiD4E4SkNp+DOJKgr3L2UL8LexBu4jcC+LYsy5Etwbf/h7T1X864Y9/fmLgJBOt/rk4cvgjtuBkQBzvM3qQpp1de6f00c/tpY9+dg+9+cdW0+W/uL5jhNmYjyjzgi0i6KmrE2AXoxxzZecEdrJGGJUcveEjDwGs9V2LNBI2McB0atwytYE6vvQNxFekWL/sGFA3SOy8VHhiey4MXh+JOSjB6iQY+ZhTzMFAHxHwVWUDAmMniL9Nz6LG6EUsjsS9fjnRz58r9PKNHfbdYPeA8AXENRBpko/ck2L9W6SI1WzwEdaPYuiWtIYRzG/T9dQRscBX91egzh99asLdHxWsj1KaGikvDdFXYTKuHeoa1Xac+FO9YJSPfm53xwi76O0/vb5jhGM6RDEjDUGLMT0zRGqZG6JXYecSw+cqsFw8pfiZWpF4q0jIKg5DuKtjaRBWEgMsThfzooNKz0RdiRl3xAjWBmEMoRaNc3xklOJvuTBgDIKoCSeGggXQFbLLLhFcXqQCUhfP6fIkpiifW08k+tSlxeeO+g+LykHQFCAspCFcdTVW1+V0Oo3QrALdtg28FTjP5s3Gzkb85ZYv38r0rn8623lxbGzT9IlSnAbEP9WxK8TB+q4V4DwwFEMdZ4Tu+h/+xXb69Bd309Xv2sjbzl3thI+IAb+Xm0smwtSS5sgFW/0Owo3xmRRdDml2SLlMhSe54GXKSLvTkbyT2u01yU2ugkLrkRK/GDdTI/EQQDjrWsc1r7tx5lTuFKfDqtaTr4bcYJq618huNgRjaipOAKwhZVvD7q4NkF20zp/8HEsQv1+RGK7rE1svFxZDjG7rWX4S1DdXhsROfswpB38p720w2bUfnaGfe/eynvilJ2YjUJD8SvRV3Eoi/n4NWHosv7lj/s0nlM/OBbqKcjvtd1JGaq4Zsdz33Xl687u+RVf/y4fItiTZurFE/ZcgfsEPXRRdF49ZuCD2tTGvo2IfxiYS40TZWbJBd3UXNuASVy8iGK3u0eyvI4cGppPsh+1nOjVqc3+tSPLvBxQgcSTFwDA6QeU3ixST/lCfCtLoNuBWwtdEiYQ9NwfO29L9+FlEW9aDS458VrDQhNpIGZwkoqiis0YzIxwdInndoB3r2PKMPQgkhiUr3OmPC8z5Pz88Rx//TxMyKR0SGQm1Qpf+2rQeF0J/3d+Y0NmnzfR/p2yayNpVFu1ih6Tl+Na7FjrmWqQvf3WebvzqAbrtmwtKZlMaaBPrx/rtzl/9xw/RjV/Zyx+8cgutWzvrshViRCxI9OoNdLqyrVQrYYTo8y7BtivxBgzLMmdngkCHDx8mG1G9Vbxh1v3Joptww8km4pidm44jiuUEZ0NXCmCtpISj2+9CQOG/vqaeBPLBWY2J+kPaYQTXlYtWpIE9II9KefnGdJhX1KGppRJ44plRM40tDznPoLciL6WvgwjekxgVGIaLtP+19851/nyDPCYcmz/D7d31tauFfuUnJ3TJj871Ut7nQbbF6qJEyds1u/X0OTnnJXNcPD2dXpD7vnuYP3PjAfngJ3bx/Q8uULYjsl1hY/jSzXvool+/gz529em8edMyQdrp4aElNdezhm15VFNSGMXo9XIFSu4UMdHBKsalg/lJmHUQaHK3N9xsCcMmCWoBJnTbEmA1aQaYDJM6REb29X7ZhHyVHgDslIOl4RuIFTlUCCOcEZbaZmRQFaNXrhpeE5+OsyA1GFIC+tASJRN/E5iye6cW2dV7Gne1DaMniOLe/Ln3LKvELyHlYxxAkN1fieS+/x0TuuVPlsnlPz/THTvS6LUPCBHcqaQkw3vHvYfnbRev5Rs/cjK9/53HqesT7YdpshlsTPc9eIje9u5vUl1EIRSWNh6dvgB8TpIdV8O0Z42bxhspYC/ckapCmHMb03snHXfushMLhxcJ1Yuq9rEdUb5SYuew1pni/WUm+V0bAE6ncHmhb88Wuf478bbYe6XQCcwheENw6gJK1LcxkJ0rfy2U1bq749da3BlRrkwA7hyB2JHFjOiVfsxeEhQsQfBaT2/UYYr9MdoZv/be5X3KQhCYYe8gwFJ3XSfx3/02pi/+i1l6049MCGCqr30ldP9Zosqssd1mArLJV2k8fW/+sXV04x+fKu+/4gTaUlyfblelxbVNoFvv3Ec3dtrA6ESy1JG2fUKxABtTGZfTfiB0rhMQN3eM5aeSvUAFPLoRXFJqUzGxQEkMWmdKy+zcYHhNSNp8E38KSDU1g8bm0CBsEpL1JucNieGgVqqThI7q5GGpxEA4rCSQX8vWX3sAZh/Ma8/HBmU0EAa8UyAzkhAdKyDb2O2CXolb3BP76Y4L5i+SP7g+iIvVA1O+X7BV6C+vntDbfmoCbTgTBuSsJMIScoj37FeRIGlt2DU/ayq1Db27dslF6+nPfm8LXfK6dT6ubJCHZrjvu4eILOcau9ANGWB1B7NVeEqjoWzcg7YaHip1FuE9TEyTu2e7f0cZwA0HFxbcpj2Yy1MQ1julcvrUvBQyZxjGA4iciSiMHp+1cKhmUoaBiYXhqGPSnUGDBR5r7Afq3ERZA3T/f/Eeod+/kejXL9C4EgUloLHfGrLS+OwlJD1LlvrU1NVVEtsDd/UaHrD5/dGnZulDn5rpidyMXQZVZhrgsp8juuxnJ4qGQ7OEsOgZjO5/cJE+c+M833b3In3pK4do997FLn4wrfWUiM9+yWxnME9o2yuWdX8r6JzTl1V6Jnx2u9LHlk1zndvzRb0meP9HvlvHlaBQDXps3ti/e8roh0ALBF2EJeKMorNhxixXjSHoBQF7FCdORiKLi4u+8J02uLf8gNI91v9CZwSzJ5WBz7TKiDxgcYzghm+tCt59Zpf8Ewh06PgSwfRSqXGRqgg1w8/0daIc3QwyJtKV7mrXF+oG2BBqNRiqF0yL+K2/rJrgF85n2XoScQmK2bjY2VlQTAo1RcdusoFbhslTJ7epQG0ku+H+71XpL5Q9PWbgGux53/9OdMlrJmmtat2qVPfsK8GqQ/zZvyoenQXK0lmA4Wt7t911qPMCCX3mS3v7uptPnOErfukYuqBjhmILMMpXncflv3Qin3P6CrrsvffS7j2LPslS84IuJvDK89a598thMof9VteZ1U4g9xLmjde6DtoI3jZtArE/Esf/vm66R0I7ufwy5AzzJ+zkaVteBC/Hgk0CTUBNwCukORnbBU+AuLZxEgGwj8nlyzV6arjUCNAsJtBFFJ4gEsd763+XQ7oblSmhJ3cWagvUBtpJdZkycpvn7AtqE7inbYfaevr9zy+fo1e9lDEmgHozabdX/53lGuSCfB3JmP99f5foTa9pkUVsyLV/Ok8f+uTBTtIjLBlzZ6rKdA9SC2Okk/Iz9OaL1tFlv3icby/FcvfS6L4HF+SK372bC+Zfu3pCv/rGE+ntb9pEa9fMkAlXMRzWQOZE8BzCYEhzFS7WF67BzDm2S7VDb+N+f/uOaFbkp2cXeXrPDEXC1cFD87RmtkkRIuMqMunPySWkM+9fd62hbaPS2M08MBs0EbgXVJm4FAgXXUAOAp+xiTWbpKVKkMEDHhDhOPEjp8Y1s23IJOjUOuVoR4JqE8NBOy2TlFJSHQrxS9gWtQmn+fAQffzzM73nh9sENiDOd7+tI/7XThJks7257e6pvPPa/XzrNxdhkPY34st3xtD2ndM1aEaFuOc7mPM9+uind9BH3/9i2bJxmduAJpa6c/yxq88ioAKdIkBGVtcvE0G0tsJtF431qo/JZ2cQU50M2L84sZChg9bGnS5M75nQ3Nw9ab9ExMfbCJKMWepZHZZulncsaizZpzeidANYX4msNgDwycku0RROf4CibKbGQ83bl4moIX7S/ZYstYGwva/pFHrM+lhAu0TbBrEkj1zb/dXX6GtZGX97V6w9h0vls0R6jTB9OSUmcNnPEv3KT02UgWyi1Yb70L9doDf/H3uD+KUJkEnDEBjNtboMTCGmMepkCiNs+9vf4Pd/5EF2IeTTNcZW2GwwrwknWX3x9u1m/9eFaA0lMcgb/8oU34QY5WS9sNDHuaIsLOy7Z3L+aaftJEiHODS/QL6QgreLYxZTQ0LtqwsF6QMNQwMIuiiUXIFp06yWBBzOqQF1kSMNSGCsvWpReAYEJyGFYeWohToD4jdPi4llqvVamknMItDONLSFM0X3uW4F0evPtYezQz+Ct8abKhmd9z1IQLg51WHziUKX//xEbHnA3crX/skhuuoPD6b8/7pmU0oemiaSmzxMYveZjWDnFut51RBX/8sHur8HlXljP0t6gwBjCD6dBu5Yo5vkVEhmmnvgAm5TRMynAKDrvUPaaxLhdp5//vk1EtwN5eau0oXl+/zCQoX5MibvQxENjLngQSdCFcgmGWwwwBgaeWTYdP2G7bPEa1AUELJJFvaMWDEp4nolzukaC5KbM5p+Zydcq7OuM35P2WBJcUbEDG3U4cd3bdWgkukwp63aR3l/z3p/tHHKCH/q8pHZo730r9pd170h2H/z2/jGY3LsXPD+Nd1fJvx6D8P3xM0C59PTYUShneI12olRur+rP/JAX/OKS08ikqyipckfE9xw1YRep75m30QcWWaAwW/tm5WJmABaxs5iqftwePEwnJl+pXz2DDDtDrp2Lizf54sGMBAExnRKb0AiFiVWQ0Pmq2oGJCbkgix63/pkYoQugH9NmlG4AcIG6KfubxFQKh4wjmEtMunPhAvFLWwh07j1n998DdFv/PCMdEzQAEGdUHxHyOIQBBgYRQMKDZP6HAxNNuy+zsc/z9xLfyB6AaJ902tq8lqMrgqdz/7VYbr6Tw6REzsBkadj6hPgzn7JXP9Ay7ZXLJd1qydcIrtFa3zru/O9F+jGr+6nj31mN7UPzDhZAqy6+iPf4S0b5+SS1x+f1xtBY+B/lWeeVqJMEEvGLhPYTTIGLWD0UJlXNQsE9GDtO8gDDDDlm8unvgouu0J7X/REg8u+W+KEjtFZxW0hdUEVwc74MpgSEZPqU+GWYTFpjPUtci6JVK2AgE83EnqjnMChYtWRBDSAtNE3+4/fSPS3/6eZrOF8gj4nRvZB3zQ33A8cEOo/js1fp7weCXId/GGUznXeQWzF18/Jvdy5Sx+a0pX/4iAhofr9ykRlefu8oDesordfvIbWrZnY4iq6FS6POG49fXn/V4Jbl3feno99dmfHCDu7+MEhsihm1iS1/Xf/s3t527lr6eRNy8jhsu4ZGH6mrdjRgRu7lOjIXPOw8v33XoAyJyqoa0chybSzqT/+6d3fUz57/bkgizcQlP0HDxKGqeGTiVJGZ3RTyZp9IYl8YSJPQwxAu/Q2eqyEoRKwlwg1qU1/64lAiEanbCFxopi12gsg2VviT/SJmJ1KJqjQL/wQpA24pCZqb7MF9zUlE1Xu5RANpoGZMxFpAmds7cC5+x4S/vIt5cLUiY1Q+v9IN9aNE9Q4veAokr885O5agyJmYG2c/ZIZ+vQ/PZ6u+MV1nQaY2ERg7zyW6ATYSXV65y+fUDw+XQxgFbmxal4iCYN6z57DdNn/c6eJa7GgalovYzYobuNxTZs3mOsXGxvJ2xPKalqcVu0MHT68SGn/ZqjXAHX2jSeot5adhAUlFhnxihMyAzcg1elAjdBr3ADGaRg+7nAVZrqRBrpBtE5agLpZEtaOHidJLxGxXEr6lzo/cc7EGsH0ZuUTSVKEEOPqeRhHDJgIhHyGSw0zaJo3y423sEMVEfTP1zGUpDZ0HpTv93WR3Y//R8T9tUvH/N3fJa9dUYhfNp84G+KrRlNDntm2MSVPSqlwyqbl9LGrX0JX/PKJNHw2ILTOjTfvoi/dvFP3p/Hxg9EbgMxeqsVux/QEwAZ3lN50lWNMDq5d9LORjgs2lvn5ecLy8jPPvKF89rvde4KockQpBw4e0rFyqJ+GaMSHIeZ5V0+JEExYUvqAH+OaEqwNUUj8mKemW4Aa1EUD4gLY5G0hYRMSsJ2D5wIMcfZRX5OzlWg4/bAC+7xaZvAymYDAYEalw7AmUCUgkWmDz/4V0VgAqnw/5zShk09QyVIXv2//6n99qO6EmLTLcYPX/Y05ev8V6ylsFlj/7tzu/SLX/KvttO0X7+ZL3nW/vOf/fYi//LX9/X5WTVZZqdx1xS9voksuOiYzgWRmvfq6bxlBRzH2YnKEwUwJBweZCTf3uiwTm70L4B41VHqdKsM4UxB3zh1oiJ3WJ9G2fMG+FwZQzqWwzDnJY+vcICA7NLeNqfQuiZY97Vc3Ib1NTJloIknt1UV3qWltcUxO2+YEKVrWYhuZNNeEUrqEwPRU3fSPMaoDwBip0UzRWmJ4MU1iPVGCPwwZpjCavs8v31KlmS2wL3SBP6+ZAaav5+5/SOTj/2nehYZIuC3L5+aNTFf+xnoi1+gS2lNnfeU/f4jf/y+/z8W3f+NX9/GH/mI7XXLFPZ2f/3a65a4DBjcqsunauOp/3UKbNy2jcKmiRiC68aad9KWbdjCF0LPBoSfQ/hHYGBe6A+1ByjAu8EyLCG533WmLrYj0UWAr3X46rcObQqc3Q4UuHjCvbVV/rYA8hVEGrXHoqVBX6uYkE20a+PH7gQhsholjXDCKOMYOLQgaACRqJVr76gQusjThU1z/4l3TmFLEIcA9NRLE8RaHzCHgkcBNV+GRIKHyC932zfICq0pU5vY0t3k5d8FWdklowqIktTlMGokZXP4La0r6gugaxzjIqY9uvat6jgzT2wKWPP6Lfu32zgje7jOV3lCeoWt+81StD+QBMYYbOxhE7sYmx/1VqxuaFoPIIoY8NZjFHstVyIxp6WRiL2kPIxDbPFpYXEzaeobpBvvuDLAwN3c9QelhkHKgxpcjpsuYiuPRCsN6TI6zzVXF0tKfYUzBwAn5PWYA2aqa1iCoC/gbgT0T4n/2+4haSFT3SvRXIOvxrd8h+tb2lPPPRI0+YXWsuqGGioNg3OLjq0CF3ViPMfssrHUpaQ8k4fMXhRYFW/duy9M4CE4J6rNfXiCUwB6wIumN5Tf/2OpgOIafM/UgYzV0B4QMMYfL33sv3fiVPTBioQvOW0vbzltDHi2GN0eUMX/mv3wP1g22iEwwKMxhIpf6qmnCfvB09Ooo8FQcaWiiUSTqVZmfR/jTnZ7ODCFQsQO6xu614337DzqqcBvAcGBSX+yLQT4UoweLXYBfnwChqNlgHgzdiEoFoszkvnQnJu+hYkc7jLGQ6SMKJgjCzxGa4KL6fdcBoYt/f0r37SC3GST8+eTjouTtUcvdriXIJsx+M2gRTxOQPJROA9xdCZ+AiG3yZ5/mUzSF0RPIjV+bN8lMbR7+r7xhNQVEMMObTDr4AN79G8fT6165mjzmIOE2NW/PFb97D+3ae1gHXG+95KLjCTWGUm///ZY79nQxhcPGzUr+lLQk2QKF56evMbF0BpEQmL4Spr8oLZ9oO2L73d10KBnAfPPLXnbaPXaUs96YihZ4R/labipQaFKxvy62v/62biy5fiInuCB+k+YEhiln2GIEHlDJnqPH+0j80bdIHBP9eVYiCoM001K8kpByaTQBUHf/5b7tQj/0O4v0qpd0keBjdaCifbvg1iFD+6ZtVLFXz4q9BqY7Lr/Z9bOvipddTQMamN7s97p/Ua2Ox12NKlF7702aCNGXvxbP5abAl0KiC16+LMYTlhNT/ckUB7kln/+PrtrcT6G80aFAnmv69IZgpvIwy8c+83162xs3knn1/tarj6Mr5PY6Rh0vum5vuX0Pv/L8Y0L6kaICFalAH4Y4VFQJeAdG0sjJ2QAhslR6sSrCOQdIbsY2EgPIolzPM9wzgNkBK5cvr2OrXUiobtXqKl+ZEFKrkW6SzgiCgklEQCHakhA5FYwUJ/4lcLYyvLGnZEKvyxGgyok/cnVEbBT1+It3Cn1RBDQI1c0dtBt9Mfar62Zvgt5y3MROi4luW8lYC6Hde4UGrzZR4o7Ir6+n7NpX7xPUGHpfCWidc/qcj7HUKc8EfOgTO6Ujct72ipV9oEtMZKmdtnnTHF9x6aYuMjzDV/7z+2ABOljzxR309jduEoPHJb1580nL6f4HDhAh6SoD3v/dA12jx1ah5QvjUJAswGq4Xila0YEtowR5OJoy+WpOJEYe68vC4YVEL10nn8TrEzw4vGL2ZoLEuH37Dzjh6KcTK9CuiOBPJIUwUznMxqskmbKrJ4PVyDC0BH5dqFt3hgbE720RpQjsKevbqwSEKRSoQnMP9NM2kFSSu1rSa3VfAXvCfdxqGz8W1w7KNEzEvltwS796JQ0BJSi5DSBGGbCQ3Enlw9p244mR+kRXCJQqXTv3JhVvT3mD2+Xve4A++IkdZMRvO1ElKfHb33iCdJFiwoS4W+7Yq3OIXTvnjFVkDGJ9G2y674H99Z0/hiTqfWyUgl4xIzBMDSHwBLl9ERvpKoA8HYd9C/cfnE/0cvZZZyRbNzFAsQNKYpwd7967D3eGCMLOLinZsKBup5NyClBxTDrqi0d9nRxra5DbjV6XygNY3CujT54Z2hB6+SYeEDysors0cVl9ou0fNRYGUdIKoGB8oHhv+q6azCxS9w9C9FzMewMPu5tRu7lGf82U7r/v2TdCeARQiFliOsIf/9wenUOtf+PN+1zimrIJD5/0T3ehdtm9d4F27VnQNuqw166eIXTVpviAK2VzeLDSAIpLvc4MCxaSEVc+YgsWJ1CXuGAftaD/vyOSJP1LmbQnOo+3Vyow6MChQ3FRJKzvOnhBS13BLNhbktye4HmwD18dBs+SLoQZMozXxZeh3ivVR88Gpo2wtm4K6qvpMy1RZmiDsIZjx2A/xdFFGD7k1J98VuTePmjXRpMCZYmljei2nMh+uY4nNE7xAukwK1NyTWhzzeVMgJ4ggjl1xNq/8S1SF26760AsiUZqLX0BNZeYhO++r187B3Mg2rBmljwtwqV09SJt2biCojj9KH24RNVTEkpSxJeVffUCqXKzE9XLRsZWUogfnwHuqD1J/3qqKQuzk+vwuIdBHnABdtRAViIW1vOx1rapwgzcKWhM1vO2X64BSEPa4Pf1xaqjqPh6wim6bJVefRpTluAclGPpKwpbEjDz80T5AgH8qdfCQw3MZcSSGMIadoJyU8XHB3N902tnJD+eWBva0gWzLrpgWV1EWOO1q9g7k+Yh9PLiKjHsrZSEry8hfUtDF/gi5TT10vSGS58ReuPNu71uOdc//UUR0CwrcNGrjyOQFi4iC/FvO//YYMC+cXZA3z/KKOQzigCXWE6EBORjIoDAhv3Fgqpu59RSnm7EMrM4cwM1ZcAAPQwi9ooFBukkKUfbYk3tM6Cmb6oeinlQ0suLlFFdyojfXBnCIBJTLAqOFRiMERcX6uoYQF51KhFJe4fWkZCKupMxbp8M+3mT2RO7S/ca0TgytgNTk8bdMPfslwSXGsPOR3PBOcyX/VzxT0TuTzF+/8VvrfLhwkg7aWx9hffFGOG+jgH27J1WoaIS/XWvXENO0Fr/ivd+q2OWeWie+2d6L7n867lu18+289YTCpeyv9vOP0au+a2X9W98MI1RbIcP/d8/2BnIq1zCAz24K5bxWoViZAlxsVr6xUR8fy8n2ktwubs9wR+afgHdn1aGD//2y374I0wzF/bfFQatXLbcrXW0cStPOgKzJ3So/CBx2LyuwGKqcIoq4ElM1OQQsUkOvUG0josVx8USnqJ/8Fqmn7prGmso3tjgXLWlkFuA+KG+SKy4E20vqMUG4p/o0ih/5fXlGptRO00Xrq4Zqyjox3/5zy+jS147WxLc+tTkksFpSybofJMSGKvMEjg9PzN841cO0EWvXuPEcsnr1tM1f/wgGaOUpooW2PYLt3LJ9NyyaRl964FDJaHN1WiVxrXty99yii+K54p1/7359S+ii151At165+6O+GfplJNWy9o1s+xjxr1nf9GnGwR2ycGECTZ9VYyo1ldbVBdLRTFnT9HB+cPSwR8UFtfRSJmMneyjwuAN2rFzNxA/EUKDanyKDoiNc51SmLOsMGHuCxcXqlfITqC0b6CIBaDMmPS6zIlxXnkq0U+czZnQ66BdShkx28JHXSB+I3yYBppxOD7n2ET89dru/SG4dLhi7bLHW7w6bz6R+YKXz/bET5SaIg5e619PsvnEGSdQJ9ppxfkfvH6nUlOtXyK+b7v42KjngS/p39r20U9/v8/mdBtCwgh/+5tOpi0nLc97yLEE69fNySvPP07OOXN9cY8yjNijWUQQx1EvtOJpwAEq/Kb280nCII3MwQLYSOmnslvnwj+EaGHn1peecR2NlFEGqFHh6UfsuKRFwKu9o2DOthKJ215kCle1haC8DLep4TcKdzzBqlk/pABVJxrQBdIREjNYnX/ypolsgXdfW8fJb1tvzm5QvGzX4mlA0AQ2Ergek/NxlvO33rvop7VJVgwgPnZ3GvQrIS4cdWGCUMBP3v297oLliYMF4NCNX9lXXlUOGJHkyv9lU5/XT07kldDtXpP6uD7nnL6KrijSX3lWwD1pxCtquNp97KIChF3C8SEzyEGaDZPM1gH5A4GzLDDI7Lry9jfLaNYyMH6tTJa6UIJieLxjd3GdmcecyLiYAqYgBnNflCTGyapQBYLOBwS+a0AyIlLwbO5TIbCIScZjA/2SlR+W/re/PiPl2d5x4qbGU8MxCNh/QsZBIi9l6tRM1DIRtHH/96KxSP1QdGHrJ6ZVg2iY2jALqcQmd5Zf9MpVFE9/KfHbYLvjK973HZNHToAfe//p9PafOV4HOJbbb3GFKV3y+hPoYx94RQ9t6kIQ+EN0XyltdQjFfMHwqwTOV6YlLHYLPPAEeVecgrICd7EsLOTcnymHMG/Lkgzw8pedeQMaw+WHxXTlGdjeEK+pAPNPOz3YpirUbyW7bz4auz4XojZpi7ENjxeMFGSKzeuFr//1iTIB/knaKAJYxLC5mfhRKlJQpJ+OayxDbfDt74sFajiIuC7QmJFva6t5T0KJoIzRmLadW3+pkdI8grCLr/9Df/FwlceWct5rgs30savP7LD7ehLQAjbebeeuo49es5Wu+Qdn2bv9PUiWSbYugAcPTfnXPaIkWGA9/HX2es7mWBmiooNp+Pbx4SETDgp7p65J9loAt16/xx5+GStMRyi33HHXZVx+FVNL+RXJ1StXkIJJNzwNA4KOi6bdaCGbgGmK4dNSgQlBHQiB5agCz2COna7SUlLHw7KrW5d/9MlF+jf/TQh1b8sQDtTUsOWRa8N61dMzbEdSH1f/+jK55NUTFw72BBgacKbpTBH6Ckj7jHQo3/Ll6j/eTtf8q4frmKhJpZCK9T/z+2d0UduVTsDq71fYKtXlKaJG7ArpcbzzZ4SpUHPVWeqD/THsnoDZEEPYaQL7J+ZGFdBsYeTWupM2/SVoJHNW97U4bHbDr0B2Y3jrUvg/1nuJctPdd29YdljuJv0x7ZUrltOLNp4oCfYA7YdHI7r3TZQlBuCTqzxBrR4VIhneQ8FIgp7IMQZomI1LurP83qcX+c/+mwwIVoSGxu20JWbtZioN7KGRdiRpkF+5aIau/MW5NLigcCIDErhe3AoFFDGuBbl/ue3r/s699O0HF3TNM/FXwp70jzO+/WdOzMsTMR1xws1EF8MNBOoJgi69KPFuloPQFhybPeO/KGRBuFiDYAZPhKRcrPrDO3eyPf9bpP/ZL33JaXSEckQGKOVr37jryk5evceOT9p4gibIIa3hjPEUGj8wASfIep9JN+KGAUAa2GI0xE8iWQKMFOuXgAn6yvc+PKUv3Sn0pTu6gNH2jjEeFlDPrN4iCl8/EvgUpLxfG5H8es2Y6uxTmD70zuVBN7Wu4jt9nA+XlZwrhOFUcgjoyfLx5c7lecm77o3B4pNhZFHlDtO/7hh651tOLn57XzgBOUxCoZmQvutVjh4NmgJbmtZupFf5unvPAv3Zv7+L7v/OXtp61jHy5p88Pe2hBjXBH0RuL5Gkzpr++teeyPZdu5HPrj37padfTkcoj8gAo1rgxBNsZI69DMeZMLN3/thmIZJJA8gawNdKcgoESnA5gtHbcKFDLrell7rH4Ge0z42hxWP3ZyGXo5keE7GJe7DOU5M9pkIhIEIp2K312ogXjgKHKD30zHPlP/8ufbDH+6Xgo5EBi0rl4g59/Q8fI2/7mY28edNycg0Q0XzRTTbArTIHnt7Sz4H8ceqNRbrvgX30o7/4l7R79yGd/rQLkq2mv/j919PmTasHqxxRYey+Nh6wKTrasWsXzcO7fyaLk9PGgl95BY+i3HL7ndd2Hb7Djl904vG0YsWKPCBPR0ibSuRq84hEa4NJmrJezxoE6hJCfjOW7WdItc+jYBjuNyJiapQlIlEwEHhQlpqE5H+U+OEY7xshEmBJQicBkYtlHRq+nTtwRBnznn2Lcsk77+Zb7iyvt2nf8BzRZY8ad3XOOX0lnbxxOW09Y1V/ZusZa7rg2fHepwwGm4v7sa0K+VycRP7niz/ZMcGeZgxT2vaDm+jPf/9v+XolhqMW/jVCU7ssUd/qqfRy3TkvPf2t9AjlqBjg61+/+9TpzPRuO17hWiARuco5ZABdB1lSciuBZ6MHcZ7dx40BPCy62ksYG8nQjO/aRfXDY3UCLURLeJtMAbddEW4a4pao4owtTWP1ez0wf7/XcMMVmuSG+LTP+7+7IG+64k6u6Q1K+ClPqNEK8OijndvSaYWPf+AH5eRNywd7Gho/XLWuCeqaqQCqzV79wa/S+/7wq9qHRedrstz6NXP09f/0S0b0rj0b50AWjgICpjvqpD8/Wunf16OjKKWhbiAfseODXZDhoGeJVgewLk8ocMnjtC1jTgvJOjVbYMPqbFHdOkfNOs2wKEq/0BNJDTOnT2mTqNC3LuqOzBFm1SQckKW2GK5ZsTlUaoXm2AiNifQNBhz713AN5wXRpDhBvnGJx9BOypXhaKAcbt44xx97/0v6KDGmR/eMopJXKPz8Qfy6jCVJ7oEDdNnv3Jo1uvdohmisbzVewaWpfHn/d/dJJf6Q/P7gvGtZZ2oAFrZnSPqGVetN5Xt5ny0Sf1euOxriL+WoGKCUhWUzlxGmR+za7Qsitlk2UKf/eE2gSkTFSSyJBCJrDjmGgCAT4Q+0ALsP3eqRfaJk5PRswdTqo+yNr36vbbzdaq92YcLAhUgk8FFAFYrxC1BPlv4DjJtshJ5g1UOjUta5w+9vZlEvFgn+mT84qzd482OKkDck0IDBItAEN970cAepDkvVM1R8kgPhY8tWNUDYD2Xe931nH/3Mb3yOY/3iGQcb5+svfLE1YUoc10cs/5+byK9SHuNzK6V00v8qOspy1AxQ0iOmU/mAHZdQ8559+514Y3eTZOWlEckkpJexTET7/AKhzAnYgiVJco60ggEcEknPmNq9zlys0ck0H0Ye6SUcQFNrF4YShls7ZR+sd9rIgCpLKnOZllIVaD4RNtdvIcRvPTjPH/yL7XTV7z9IH/vcThCUbBGlzu05Q1f//VP7v/63uZJqVmaA9/pUeyjbCCDX8rxUU/vaZFnBu/ccprf95hfo/oL7laFIpT829K5f+0GxtZXk1fN1AW1jnsLa74GD8znn/1FI/1Jm6VGUw8sm13YeoXeQeoSKFli9ciWVsM7UAiGki6L4jwzXt7JigMdDuoNBqvXrhxI4o50k4OI0+ISGYjuHCcfvljHlYJzdq64Yo3MyTWYMjRHogTsW1bbPAOp7k/1PotWb2bVActfWAbp2U6ld6fLjn93Jl//ed7SrKk0/+PGH+vSGdWtn1IMUEdvy5oYLzl1LV193H33s0w+ReYJCK5gelz6Jzs5v7gzjmtRGGTfGzlSpZJJfF2733gV549/5HN96+8MkI/aFlXf+6vmdJ2gthc1ne6uKzpqV+hsAHNHPvq19B/bDcPgeXuSr6FEUpkdZ2rjAMevXdn/6AK6g77a67iJySTZwE4AtwQ8I1qfaGNBA7K33hqBNCa9UFroMN/CS9+JYlInBrUuSu0VGFn+Wm8WZTH38DJlQQi4YINpqbzz2BdIFc/jT5/i//te/2Qe+CAi4/8GMzrX5savP6D99FWG6ZSz3PXiwgza7Okb4bnlzm94bbZjXqGiPP/8nf0POPmNtE5ugzNQITbs5dLCHf+XvfYG+dvvDva3hxE9meNdGtr70OPrcn/y0i0ZTIDRit1XOr2sgymR79+/vGCB+2Lkb8uVbf+D0a+lRlEfNAKXcdvs37+4Gcqodn/Kik2RmZpLSInzULb0592bCGX66lE8MQyO4XY7s7vS++9SDcJOOMaIY0XnTSpxhywjCvjgW18xHdJU2fIOkj+IvCAw+q/FI/Nkv7aG3XXk/mSFZ2w1CK4bvNR3kKa8oR2Oh8dn39Fje8XPbHXvoS1/Z0QWnDtCuPfP9QLdsWklvv+SU+jALarPBRPJ0bvzrB+myq26s7s6GoVSL9vW2vGgN/cUf/IT00l81KHr/UkeqMQkeve20gXxv+w6GuT1i1HesPCoIZKXDXG+dzEw+b8cPbd/OJ51wPJnYMjUlLYM1BmkYh1hF1T1CCo7f0SLVFOjrx/sQZNh1rWwSWkdp96IpS5SJt24Ag/7ql1oP+tYwTuRGWnhnTFlRABo/p8zFqKAMZng2kH8G4e7cu8gGe+pSYyZneQ3JIbrk8v9Bb3/jif37e0qQS0czEB4b1s7RBedvoG3nH+MrEHTXMLKOZWKSmEIw7Nm9QO/rXJ1/+G/+Bw0ySx3+RFN/9L4foy0nrSV0m1fHhAUgmZEJVCjW792/OyHfp5TDsnDEiO9S5TFpgFJuu+OuT3QTutiOjztmQ6cyVzeaUpU31WFXCSxjmgKN0oTrrSDseeRZZb+9G8axX9bRkvcFMwM7NVpLbwIXHoTmItJrmt0ZBfQOxYZH3IN8rKANdeylkfIzp9t+6fZOWhfXX/MDGIbh1ZAtz+9e8ZaT6c2v3yjgQVJtJxFJ83VW+TUFrRoraaC8bkedi/zZv/smv/9DX6P7vrOXqIk223cs17znh+nnfuqlQpHaEEKkriJ7f65ow4NeYE+BP1COKug1Vh4zA7QpEpPJhE7edCLNzswQ85C2nCVkVIO2ECZJqXrfkPDBDlBpOqzT2AlaJQhZ67BjgpDeGTwTDD/1M0Rk7b022YxwcL4C/7atsoxJ4o9+Zjtd8Xv6wipBQhNlxMwY5THHKy49pX+ed/NJK4LsQ9pDXwlxZkjH9emlnbsP8Qf/7Hb6s099s/j5yd8OnYzdaV6Arrzz136w8/qcT2Dn67pCQC0xndfqR9kJUPr+jp3hvKiG7488Gs/PoOXHWtp06RIhLlAoiqjoSpjfiZYovDB+AzVKhCKfx863WP8R8P9juU/H5rCG8/2shKCvNxxEituoKFwhS+6Li0h8et3hY6JPJMrun54J3nsPJSbQKCu+V8gZQqoRetEPH0evf3XnFTpvQwdDVhozuJYh0gFNs0C5/4H99MW/fog++u/vplvv2NFpoEPk0WQZgzz5V1mu7ST/z/7kS32B014oE2DGXexESI4O+sih+XkQMEdOd36k8rgYoJTOIP58N4gL7biDQrJ+zWpHD/FDeHUDG9jjRLUEMabrRI8mKS4F2zjDmKyDPNJMlKQ1UYTkA4eahOIk3bBVwAiiBM4Ipzhy8ziM5sBFXlUcP+qgvAN3b9525wF627vv7HE/DYgxjGR0ewo8+ljSo7eesZbOObP8XNIMrV07S+vXzNKuvQu0uzOI7+8CWbv2ztOX/vp73bH10WqcqSqKYDKv05V1a5fRh3/vR+mVP3QSEU6HQeCJ/Y8JjFlT7923j9HrQ48D+hAs6eMqfZ7QrNxkUKiUF208kVYsmyMBDYDEn639vqDkT6VZBF7CBmhJhATxfsAkcknNo/k90A5mqdpZs8LE30UwlGW5odHLMTAyaibQNib72OfLeJ8qDG9b7vvuQX5TZ/R++7sHiYDAEY70w53mt0W0DFEte3geGDxM9oyxgK3hdgf2008rJP/Wlx7bGbw/Wn39NL6PCV7G+hLipPIbvx30gXseH/SxctSR4KVKGcDidJq48KGHt9Niv9hMYNv2JUnbYRH47P8yfq+EzDz2PIQDxfpdbLNIwIepOT394lboorfFUlv/9Taoo0NwpuGWzAEE+BdWP09ib69UI7xs60Ip0GRh4Dyq0EKVSLurxcvzV396Ll1+6ckEXjEyLYA/lIGM0aZI23VjjPp9SoTEP/ZHQ9hT9q0EuT73Jz/Te3s4p4YQDZeDbcttqXVh+qk2mZ7lp32verzEr6v7xJQ2ZXrN6lV0wrHHGBSgkKja8RE8Ooj5W8jDTSanXqwapatbfs8LFxkZiGhoByhkEYAp7i51HFKCee5BabJUURTb3MjhS/KxYNs+Hjf+YI3Yx6TthZYgCleuNJmY5fNbDxzgt/+jr9OtdxY3YfyuGD4XQCOE71Cp+V2xlMBGDezR80xhY5Rz235oE/32O7fJOWce24i/BOfbXYC1JRUeNWq/Z9++9JaH7uQHtv7AGZfRE1CeMAYoXqHlC3ITBsiO3bCe1q8tbyGjUbzOkeXpMInC9YWMsBTep3oR8I6dswu1oypQxpkuGImC4YjhSbV6ouw6A5Gn2/yaQRbfRG0TDACl5kGEl3LjTgQ+Bg6MnCdKAw3z0S7K+/4P393ZBgcp/5DddEjMDSOgRE8MIeLu1THGKXn97+w8PNt+8CQfis2amsK+Ozk2Q6q9rcL+zt25F3B/gT6H9vH5559/2k56AsoTxgCljNkD5UH6FcuXLUl8EODqjwkRcib6RKhLHYcBZacQd9ZzSSLVfyV5beoFoQDonDsFHJt1EXmevAZ1CJoJKsYQt/v6Azp5SsTENIIbvT4fGRqLZNFSFaOFOL988076w49+iz79Xx7SKU2HOL4lfmcICuwfL1Sl+NX6+rnthzaWhDYzci1WQO124yb7N2Ry9rBfvzwlzblmHVsDvHNymM9/IqBPO6YnrNzy9TvfwjP8YTvu4wOdUTw7OzOELll+2XmACeNSGyR+ihATEHnf6BG0h1UbquQMuXR4jdlZuyY4lcdNo9PM/MXBiqF0Gu+QPQATkGcAAX3V7MjD8KbC+raLJvjSXz9MH/3/7qcv37Sd0BNEyV4Y0QgJ509pbecl2nrmMfT6C0/p3JpnyLq1y5UZbW8Yta+vo2JIGugFyWtTyrRz+O/YvZuL8Rs78/hcnmPlCWeAUm79xl1XEiTMdcTfa4ISJIPiW1cWzN48N+7etDyQMQ0Rq+gEb2o07kvtBBIZ5USV4EFsXi88R0D1xA0fUMPPJukJGYHh6TcZeQtDDkzp2MLukBQtxci5dtOOwiZnw/niX3+/sxN20q237+r9+996YG/v9iy5QGYcr1s707lG5zojdlX3t5rOeemGzl16TO/ZWbdmWfKslc8JBiRH83pcvBvICYbRxexZrHOgFMlfHSm2INOrzjnrzCvpCS5PCgOU0qZKLOvcooUJJtmD02J9PRzLyCTb3TEtwkSWfeqENdQccZNuFKHtgEQNwl1y+ipW4oHiwPsaIhxqg8a4VaLp72RGs2QkEuypDHFunMpcGI8qWyI0PtP4aYn+uZm/CxpS7IYM2+yB1fVGtEX2WoXxduzak37Xq2vm+rPPPP2n6Ukoj9sNulQ5NDt5azFY7Lj8VOX2nb3dwvCXFqj3d4UbLyScf0nSV4gC3hjxU7/u4x6miq/qV99s1/mkLjqHDrW/nhQjjsZKaorDW2IxKSwm5Ylsg2243qeNMUZU5wL5SmLMIBwmQAzCxo5SlB1HxniC0IYrYWeYB1OxG4sXDFJEXFJb36aJq3bCpRA8osQ8BM3p0pb7u0hvJv5i9O6dvJWepPKkaYBSilEsM/J59AytWb2Sjt+wQaXUkFDbc0dwl7riEHB5prrwQAjDPUYk2JDWx80donlIcDPD1a4j9Rh8IRraBIL4BO9jG4q/Ya2BWgGXqOmPWtq1h4VoTAh4vk8E9DApTseGazvIz5GRoY8mtPEgr53gHphcz1179u2XAwcPAmJ7YoJdRypPKgOUMuYZ2rBurblHPQDEIc2RPPqi4tK9OfUwETpRQ8Tt/bVBBcG1Q90Xb5ckRSDD7cnAON6K0IggZUQYdT7tbEZ5WZmmYcBolUeJGcWwcjXwenMNtCXUyOhTAqClNBUaRNG16RzQXFJYtXtlvcDpMXfnk038pTxpEMhKfaME/wjBA/U7u6he/7JdW+QKfVpw6qWQReMujWsKRfpPTSXWK5IFVc6wF09z4IA+fW1DNhIGhzqjDAK1GorUGGSkU4s58WC8lU/68drw1O3jjFeJzl2qQMRaPRQKGYM4bCOCeRvzVDhHaUUow0WxtSaXCyyxPqYtdI0kPw9QT1tuiKTzpA37FCQTf/kZLiT+Qiud8/Wnn2zit2E9JeWW2+8+r1u/zy+hCRQRhUCZTluIgWnP3mzIO8zUJHerpDGE5PcEO5BYIJmidUpu0uhBJI/AKBhgQXr6akh7YtpPqHGJMnqAgAkC+jSAReACzoIHWalM2UODHDoOUNrHEKPKuHuTcalx7VDtwrrvax5rLMRfBObWl56WftD6ySpPugawUiYkh6fpqZ2iCR7e4YaxGcGM+NovJn+/ZVr22iNqeiBFGlUMLkIoCft7T/Udz0wcT+6YpBbXAAP5JoJAq2aA9uYzwH4B6e1Suave/4ZuDWyxYe46qsog0r4KRdwidRHR50i53jGm0qWbcEp4lki3gBWCNYC52G8VMOsykgskruuUDH4hBnQ4tR+ucxeAr3sZ7569+6jJ7izOjMufKuIv5SljgFK2vuyM62RR3opwqLzL/aGHd9jitOIoSMYBTVXFjUrm9KlSMW6prz5sJRiB/5n8m9oBus0uCSNKGRLU+8uwA2GIEyFqK1KC09kx5v2wPW7osJBdGKfhU04KrJrDoVwaESi2SnxGtRywzrsQFAjiP+nqw2PHqlLXGfvjmHi9MmELTNf1N+m/a88eTj/BWyT/kxDoeqTylEEgLGNwqMQJSvKcBctYH2AnIFzJ+ME9MkQ5XwfPtbCH4iFzI8HAs4OkOIA+AVlUGh9NUpx7T5JxWu+ZcqIXDHhBoGuppDggUxgzBNWoCZhJzCOMZo2dhGcos2wsrM9MQGyA1wyqxV6ER0ucSUpwqyN+sleY64I8pbAHy9PCAKUUJpiQfAJdpIX4N55wHM3MzKSBSez2GPwAiRz17AoZThaDwCbFtV6ON7BvNbTgEtIZDvJy4F8isGIHI2g+fVg5o9PnJJTIyjIjtbK7d1N9yvfgJY3SUnLfCtof7IKiCh9hTvzA42ufB2wCyNunGJZ0xM87du8mTG94Oolfx/X0lbE4QUmb6OIEsnz5Mkv2UtozAjYtGlIFkawToeQriSKas0MaHWZgquhlQpMvhfttBCbuIWGuoWbBei1h5YGIjDhUrJX+7XoiPDCkQ9STz0EoR3uJkl2qp/tTRrjDmEz/r1SpD35+TGNBaSDxzqcuENoFufY0TPHUuDqPVJ5WBihljAlK6TxEsm7Naic4PrIEQinvUnhE+A7aANJ0D1NoCoMrVTMYliUihPkczEAsSHiU1UgQNbza3Ckw4E2OSyQCxUYVeogxKGgXUmoVq8Ih5SNlBJlCBHxCABNNCKnmiLHAdxBUxnm6F/W+LrhVX6MJ5ZlA/KU8pUbwWCkLcGiOzy/5Hni+8xDxwzt3kXhaLhi9WZz36+8XRBkBEkMduIMdUOFAohlHM07QDBgeOiOsr16j3uNhxM9NFR2YXoeTVFlJYk4cz0iwzZsdNCW8zVqfbE7KPNGwepasujZYpbIMBwDQSJ0IzXILWBHitpAzLFWPT03dUBtuz759MiD+bq9LTv/TTfz9WOgZVNos0lKKXXDi8ceqcdyvuagYtfSVuq9a3/aw/0eaJC5MMQbjFbE0e8DMG+Eh7m/9680AHK81EwT4k5SIdabt6NgMJ1EoB2mZJ7RFPWENJ8M7KwfkUMn921VOYwLHERrUbPM05UoE+UILhxe5GLsJ7/eXnpyszsdanlEMUMott9/5lg7bXoMeolIqJFrDQUQN/UikMfBSKROpfqLRYdopwJVyzqCPhMcH7ep6OzBCw2RBgyZD29yeINykmZBVPCimfvxaDK7Y/X5ssppQuUkQK0zXukHYY/e3niAigrUO+BdQcN+BA7y3kfrV2C0+/jOuo2dQecYxQClL2QXlybLjNmzovESB3Iy+AyeMiOXGFRenwV2K/6iLdNq4N71Pr5aT4ijdA4QLIW2hcYZEDdIYinG1DgoYJ6jU5uP3BrulHsOWCtTizGb2DUA5gaS4UAfYbCQHFhdnCW7NNz9U/UzB+2PlabcBxorZBd0mfwDPHzw0Tw987/u0Z/9+QXWbyboUNoSsVeJdouXfmr7jt4gZBH2Qh83LEThBwTn0SUaojCMwN6X3Fb5bRcui6qWmWPuNifjtPsbZaVIOWWg5pY3UCYVm0LGzNY1GQ/HYZAYj03c2kBqVJkI7xFfCfaMapDNfwYEuort9564B8ZcH2J8peH+sPCM1AJYCiSY0eU+rDZbNzdHxx3baYFJsAwlvDZNL+1o0KNQ+TRX63OoRooF8BVyaTK7/ZZAjVHz1U4a00aG/Pto0zOLjQcgzGsyKzgJyQD/UjJyzCZBnZf0FlArPV3tZBT96xhQGyeLiYv8LLS3hF8hTXpfzirPOuJ6eweUZzwClFEi0OFm8slv4S9trJZlu7erV5QlyotboXYKgl6Z5PGgeR8yxgdRcU9igDoMbUc/l9Zb2rgz5A4VQAnSA+xz/C3pU8zwoDNhgCGu3dW9mnREDTUlxRZh0mqTk8XR4n2hQW74wszjzlmeq1MfyrGAAK0tpg+IhWrd2Na1etSph/aAEl7ZBXWQGLnABUFn6RpB/5LTngR5zt5poHoybjSfGHmYh8hSGNh5ANe+mH5UYPMEHWVALkGsOH014uXxFXJPx0Ni1dWmWIGCc2UwdFJVO6vPAwVAM3UW56tH+SMXTWZ5VDFDKkbRBYYSSYr1y5YocXKJxyKGWbLhGtSYReXozgVuUjBghGDQNLxEQ5BHSGio3ua+dsWVCL5NRLPIhofZpXKThmKRBEbjDs2rBk2n0HUZ9Q9v90cLC4fJach7AndrW9eXRxSfqfT1PVXnWMYCVr95558Wz08k1rTYoZfmyZb1GWNF9OhiwjTYIEcl0iusJiBJy3XnczemEiN4loiHcgfojbkwTzmhw8xC6OFMNBuHjzMQvPlwPIKbkQOCJftBiATd0J5s3bP5IhN95eBZ58a0vP/PMG+hZWJ61DGClvKJ9IvyOo2AE9dcRgXOGW0ImSJkRwAb28IreyW09RhGvpDgg+AzNyW2Fo02KIzO04zfISGRoZCvKD4ImJ/ilkuKSzaDwrgtmSefPHyX8Anc6t9cHzjnr9CvpWVye9QxQSg+LZhYvY3g3KZbeRlizprMRVjS4X0tIQCJ4FnhE4BJAJwJjdxT+DNKRrQ09DrsEi8RHNl0SE4X/vuGQ/t5gQOXAnLoNuT6V9/PtB+fnqbg1j0T48/sn1z7b4M5YeU4wgJUj2QelFEYoL+1duWKFzEwmjFRGROTZMvAooxH8ICmOGG91yDPq8ZGhlqjpzdPxpDgHM/rzrNORpLjUN+D/ZAVwZhdJv5Ms8Jtc/S+v7D94sH8+d2DcRrluft/k8ucC4Vt5TjGAlUdihFLK7xuvXLGclpf3lraWZK4aOF1jDA0DNOpkSPwGsxgwu9YjjPSG35+U7iX54Rucn4eosEcPRiEU0rUNujNsZSl8XytWiT+ZTq57Nrg1H215TjKAlQqNppdNiN8wZiOUUrTC8mVztGrVSlo+NwdIJT+wHtDh6JPiwN4Ynm9O+5E09yJOYszFzx26vVHbqeaODJ/IKqV4cw7OH+pfOb6ktH+OQZ2lynOaAbAsFUPAUplhGa1auUKWLZvj7GxZKimOMhPU+kDI7bMMDoQqoJpmL03cGZartE1Sk51Z2x0leFUlVN621mP7IxF9f498obvp+oW9k+uey4Rv5XnDAFa+dscdF/KU38KTyRuoyTjFUgi9pFusWL5MOg3B3ffw+dMwhRq9Le4xgtRrMg9UvSEZ0GGYUwtyGtwPz/DGsw1khiymKBzuCP5QB2sOHZrvXzV4JKIv0n66OP0Izcj1z1Z35mMtzzsGwNKnXpcX+DK/4ZHqGkMsm5vtmGK5zM7OMGZ5RsVwK3IjtlvA4wbvoLMk5ikBeQojWOD53flOuh9enPaem/J3RIInG3Yn7Wl63cK+ueufD9J+rDyvGcCKulEvPFpmsFKZYpbmZmf730EoDFKcS3Ozc9XDU5/ZJYTzS7alUj2ROnhqSinvzO+kORfpXrw2i4uLPbRJrxE/8oBLTv5Xnk8Q55HKCwwwUgwmdYRyXrdA59JjKIU5ik1RGGLCk54FZmcmSZaXt18UBjk8nSYP1KIeL04XaVFfH3LURN4WkXs7Xrm+wJvDe2dvfoHoc3mBAR6hFO2wMLd4Hh+mC3nCFz5WhniqSsc3X+nUzw08md78fIY2R1teYIDHUHoNQZPzZFFO7YT7eR3UOfdIBvWTUjrJ3pm798iUbuYZvodkcsPCPrrnBYJ/dOX/B4r84fvd8FRbAAAAAElFTkSuQmCC;points=[[0,0,0,0,0],[0,0.25,0,0,0],[0,0.5,0,0,0],[0,0.75,0,0,0],[0.25,0,0,0,0],[0.5,0,0,0,0],[0.75,0,0,0,0],[1,0,0,0,0],[1,0.25,0,0,0],[1,0.5,0,0,0],[1,0.75,0,0,0]];" parent="uZPeagV1LzCzwJO0KJH_-1" vertex="1">
          <mxGeometry x="456.25" y="4546" width="31.89" height="31.889699999999998" as="geometry" />
        </mxCell>
        <mxCell id="uZPeagV1LzCzwJO0KJH_-8" value="&lt;b style=&quot;&quot;&gt;&lt;font style=&quot;font-size: 16px;&quot;&gt;Generative AI Hub&lt;/font&gt;&lt;/b&gt;" style="text;html=1;strokeColor=none;fillColor=none;align=center;verticalAlign=middle;whiteSpace=wrap;rounded=0;fontSize=14;fontColor=#000000;opacity=0;container=0;" parent="uZPeagV1LzCzwJO0KJH_-1" vertex="1">
          <mxGeometry x="488.25" y="4545" width="156.75" height="30" as="geometry" />
        </mxCell>
        <mxCell id="8XwpJnI2xtcuIQ5Sg1Dp-15" value="" style="group" parent="uZPeagV1LzCzwJO0KJH_-1" vertex="1" connectable="0">
          <mxGeometry x="67" y="4231" width="256" height="226" as="geometry" />
        </mxCell>
        <mxCell id="8XwpJnI2xtcuIQ5Sg1Dp-10" value="" style="rounded=1;whiteSpace=wrap;html=1;strokeColor=#0070F2;fillColor=#EBF8FF;arcSize=24;absoluteArcSize=1;imageWidth=64;imageHeight=64;strokeWidth=1.5;" parent="8XwpJnI2xtcuIQ5Sg1Dp-15" vertex="1">
          <mxGeometry width="256" height="226" as="geometry" />
        </mxCell>
        <mxCell id="8XwpJnI2xtcuIQ5Sg1Dp-13" value="&lt;font style=&quot;font-size: 16px;&quot;&gt;&lt;b&gt;SAP S/4HANA&lt;/b&gt;&lt;/font&gt;" style="rounded=1;whiteSpace=wrap;html=1;strokeColor=#0070F2;strokeWidth=1.5;arcSize=16;fillColor=#ffffff;perimeterSpacing=0;absoluteArcSize=1;" parent="8XwpJnI2xtcuIQ5Sg1Dp-15" vertex="1">
          <mxGeometry x="30.5" y="59" width="195" height="58" as="geometry" />
        </mxCell>
        <mxCell id="8XwpJnI2xtcuIQ5Sg1Dp-12" value="&lt;font style=&quot;font-size: 16px;&quot;&gt;&lt;b&gt;SAP BW/4HANA&lt;/b&gt;&lt;/font&gt;" style="rounded=1;whiteSpace=wrap;html=1;strokeColor=#0070F2;strokeWidth=1.5;arcSize=16;fillColor=#ffffff;perimeterSpacing=0;absoluteArcSize=1;" parent="8XwpJnI2xtcuIQ5Sg1Dp-15" vertex="1">
          <mxGeometry x="30.5" y="140" width="195" height="58" as="geometry" />
        </mxCell>
        <mxCell id="8XwpJnI2xtcuIQ5Sg1Dp-14" value="&lt;p style=&quot;margin: 0px; font-variant-numeric: normal; font-variant-east-asian: normal; font-variant-alternates: normal; font-kerning: auto; font-optical-sizing: auto; font-feature-settings: normal; font-variation-settings: normal; font-variant-position: normal; font-stretch: normal; line-height: normal;&quot; class=&quot;p1&quot;&gt;&lt;font style=&quot;font-size: 16px;&quot;&gt;SAP Data Sources&lt;/font&gt;&lt;/p&gt;" style="text;whiteSpace=wrap;html=1;fontFamily=Helvetica;fontSize=14;fontStyle=1;verticalAlign=middle;fontColor=default;align=left;" parent="8XwpJnI2xtcuIQ5Sg1Dp-15" vertex="1">
          <mxGeometry x="9" y="14" width="144.8" height="14.5" as="geometry" />
        </mxCell>
        <mxCell id="8XwpJnI2xtcuIQ5Sg1Dp-16" value="" style="group" parent="uZPeagV1LzCzwJO0KJH_-1" vertex="1" connectable="0">
          <mxGeometry x="65" y="4501" width="256" height="100" as="geometry" />
        </mxCell>
        <mxCell id="8XwpJnI2xtcuIQ5Sg1Dp-17" value="" style="rounded=1;whiteSpace=wrap;html=1;strokeColor=#475E75;fillColor=#F5F6F7;arcSize=24;absoluteArcSize=1;imageWidth=64;imageHeight=64;strokeWidth=1.5;" parent="8XwpJnI2xtcuIQ5Sg1Dp-16" vertex="1">
          <mxGeometry width="256" height="100" as="geometry" />
        </mxCell>
        <mxCell id="8XwpJnI2xtcuIQ5Sg1Dp-19" value="&lt;font face=&quot;arial&quot; style=&quot;font-size: 16px;&quot;&gt;&lt;b style=&quot;font-size: 16px;&quot;&gt;3rd Party Data Sources&lt;/b&gt;&lt;/font&gt;" style="text;html=1;align=left;verticalAlign=middle;resizable=0;points=[];autosize=1;strokeColor=none;fillColor=none;fontSize=12;fontColor=#1d2d3e;fontFamily=Helvetica;" parent="8XwpJnI2xtcuIQ5Sg1Dp-16" vertex="1">
          <mxGeometry x="30.99820512820513" y="34.50454545454546" width="194" height="31" as="geometry" />
        </mxCell>
        <mxCell id="8XwpJnI2xtcuIQ5Sg1Dp-21" value="" style="shape=image;verticalLabelPosition=bottom;labelBackgroundColor=default;verticalAlign=top;aspect=fixed;imageAspect=0;image=data:image/svg+xml,PHN2ZyB4bWxuczp4bGluaz0iaHR0cDovL3d3dy53My5vcmcvMTk5OS94bGluayIgeG1sbnM9Imh0dHA6Ly93d3cudzMub3JnLzIwMDAvc3ZnIiB2aWV3Qm94PSIwIDAgMTQ0Ljc0NyAzOS44MzIiIGlkPSJhIj48ZGVmcz48bGluZWFyR3JhZGllbnQgZ3JhZGllbnRVbml0cz0idXNlclNwYWNlT25Vc2UiIHkyPSIzOS44MzIiIHgyPSI0MC4yNTgiIHkxPSIwIiB4MT0iNDAuMjU4IiBpZD0iYiI+PHN0b3Agc3RvcC1jb2xvcj0iIzAwYjhmMSIgb2Zmc2V0PSIwIi8+PHN0b3Agc3RvcC1jb2xvcj0iIzAwYjVlZiIgb2Zmc2V0PSIuMDE2Ii8+PHN0b3Agc3RvcC1jb2xvcj0iIzBkOTBkOCIgb2Zmc2V0PSIuMzA4Ii8+PHN0b3Agc3RvcC1jb2xvcj0iIzE2NzVjOCIgb2Zmc2V0PSIuNTc4Ii8+PHN0b3Agc3RvcC1jb2xvcj0iIzFjNjRiZSIgb2Zmc2V0PSIuODE3Ii8+PHN0b3Agc3RvcC1jb2xvcj0iIzFlNWZiYiIgb2Zmc2V0PSIxIi8+PC9saW5lYXJHcmFkaWVudD48L2RlZnM+PHBvbHlsaW5lIGZpbGwtcnVsZT0iZXZlbm9kZCIgZmlsbD0idXJsKCNiKSIgcG9pbnRzPSIwIDM5LjgzMiA0MC42OTIgMzkuODMyIDgwLjUxNyAwIDAgMCAwIDM5LjgzMiIvPjxwYXRoIGZpbGwtcnVsZT0iZXZlbm9kZCIgZmlsbD0iI2ZmZiIgZD0ibTQ3Ljc4Miw3LjQ4OWwtNy45MjUtLjAwNXYxOC44NDVsLTYuOTI0LTE4Ljg0NWgtNi44NjVsLTUuOTEyLDE1Ljc1OWMtLjYzLTMuOTczLTQuNzQtNS4zNDUtNy45NzQtNi4zNzQtMi4xMzUtLjY4Ni00LjQwMS0xLjY5NC00LjM4LTIuODA5LjAxNy0uOTE1LDEuMjE1LTEuNzY1LDMuNTg5LTEuNjM3LDEuNTk1LjA4NCwzLjAwMS4yMTMsNS44LDEuNTYzbDIuNzUzLTQuNzk1Yy0yLjU1NS0xLjMtNi4wODYtMi4xMjEtOC45NzgtMi4xMjRoLS4wMTdjLTMuMzc0LDAtNi4xODUsMS4wOTMtNy45MjgsMi44OTQtMS4yMTQsMS4yNTgtMS44NjksMi44NTYtMS44OTYsNC42MjMtLjA0NCwyLjQzMi44NDgsNC4xNTcsMi43MjEsNS41MzMsMS41ODMsMS4xNiwzLjYwNiwxLjkxMiw1LjM5LDIuNDY1LDIuMjAxLjY4MSwzLjk5NiwxLjI3NCwzLjk3NSwyLjUzOS0uMDE2LjQ1OS0uMTkxLjg4OC0uNTIxLDEuMjM2LS41NDguNTY2LTEuMzkxLjc3OS0yLjU1NS43OTktMi4yNDQuMDQ4LTMuOTEtLjMwMy02LjU2Mi0xLjg3bC0yLjQ0OCw0Ljg2MWMyLjY0NCwxLjUwNiw1Ljc3NiwyLjM4OCw4Ljk3MiwyLjM4OGwuNDExLS4wMDZjMi43ODItLjA1LDUuMDI2LS44NDIsNi44Mi0yLjI4Ni4xMDMtLjA4MS4xOTYtLjE2Ni4yOTEtLjI1bC0uNzk1LDIuMTIzaDcuMmwxLjIwOC0zLjY3NGMxLjI2NS40MzMsMi43MDQuNjcxLDQuMjMyLjY3MSwxLjQ4NywwLDIuODg5LS4yMjksNC4xMzEtLjYzNWwxLjE2NCwzLjYzN2gxMS43NDJ2LTcuNjA3aDIuNTYxYzYuMTg4LDAsOS44NTEtMy4xNTQsOS44NTEtOC40MzYsMC01Ljg4NS0zLjU1Ny04LjU4NS0xMS4xMzItOC41ODVabS0xOC4zMTcsMTYuMTI0Yy0uOTI1LDAtMS43OTItLjE2LTIuNTM5LS40NDNsMi41MTItNy45MjZoLjA0OGwyLjQ2OCw3Ljk0OGMtLjc0Mi4yNjMtMS41ODkuNDIxLTIuNDg4LjQyMVptMTguNzgzLTQuNTUzaC0xLjc0NnYtNi4zODZoMS43NDZjMi4zMjgsMCw0LjE4NS43NzMsNC4xODUsMy4xNTEsMCwyLjQ2MS0xLjg1NywzLjIzNi00LjE4NSwzLjIzNiIvPjxwYXRoIGZpbGw9IiMwMDJhODYiIGQ9Im04MC4yMTcsNy40MDFoMTAuMDYzYzUuNTk1LDAsOC42NzQsMS45MTcsOC42NzQsNi4xNTgsMCwyLjkwMy0xLjUxMyw1LjAxNC00LjMxMSw1LjcsMy4yOS40NTgsNS4yNzgsMi41ODYsNS4yNzgsNS44OTQsMCw1LjAxNC00LjA2NCw3LjAzNy05LjE4NCw3LjAzN2gtMTAuNTIxVjcuNDAxWm0xMy45NjksNi44MjZjMC0yLjE2NC0xLjQ5Ni0yLjk3My00LjI0LTIuOTczaC01LjA0OXY2LjI5OGg0Ljg5MWMzLjIwMiwwLDQuMzk4LTEuMTYxLDQuMzk4LTMuMzI1Wm0xLjAyMSwxMC41MjFjMC0yLjM1Ny0xLjc3Ny0zLjQ2Ni00LjgzOS0zLjQ2NmgtNS40NzF2Ny4wNTVoNS41MDZjMi44MTUsMCw0LjgwNC0uNzc0LDQuODA0LTMuNTg5WiIvPjxwYXRoIGZpbGw9IiMwMDJhODYiIGQ9Im0xMDkuMDUxLDExLjVoLTcuNTgzdi00LjA5OWgxOS44NDZ2NC4wOTloLTcuNTY1djIwLjY5aC00LjY5N1YxMS41WiIvPjxwYXRoIGZpbGw9IiMwMDJhODYiIGQ9Im0xMjUuMTQ4LDcuNDAxaDEwLjUwNGM2LjE5MiwwLDkuMDk2LDMuMTg1LDkuMDk2LDcuODk5LDAsNC4zOTgtMi44MzMsOC4xNDYtOC44NSw4LjE0NmgtNi4wN3Y4Ljc0NGgtNC42OFY3LjQwMVptMTQuOTAyLDcuOTUyYzAtMi41NTEtMS42ODktMy45MjMtNC45NDQtMy45MjNoLTUuMjc4djguMDRoNS40MTljMy4yNzIsMCw0LjgwNC0xLjU4Myw0LjgwNC00LjExN1oiLz48L3N2Zz4=;strokeWidth=1.5;" parent="uZPeagV1LzCzwJO0KJH_-1" vertex="1">
          <mxGeometry x="420" y="4250.55" width="67.25" height="18.55" as="geometry" />
        </mxCell>
        <mxCell id="8XwpJnI2xtcuIQ5Sg1Dp-22" value="" style="shape=image;verticalLabelPosition=bottom;labelBackgroundColor=default;verticalAlign=top;aspect=fixed;imageAspect=0;image=data:image/svg+xml,PHN2ZyB4bWxucz0iaHR0cDovL3d3dy53My5vcmcvMjAwMC9zdmciIHZpZXdCb3g9IjAgMCA0MTIuMzggMjA0IiBkYXRhLW5hbWU9IkxheWVyIDIiIGlkPSJMYXllcl8yIj4mI3hhOyAgPGRlZnM+JiN4YTsgICAgPHN0eWxlPiYjeGE7ICAgICAgLmNscy0xIHsmI3hhOyAgICAgICAgZmlsbDogI2ZmZjsmI3hhOyAgICAgIH0mI3hhOyYjeGE7ICAgICAgLmNscy0xLCAuY2xzLTIgeyYjeGE7ICAgICAgICBmaWxsLXJ1bGU6IGV2ZW5vZGQ7JiN4YTsgICAgICAgIHN0cm9rZS13aWR0aDogMHB4OyYjeGE7ICAgICAgfSYjeGE7JiN4YTsgICAgICAuY2xzLTIgeyYjeGE7ICAgICAgICBmaWxsOiAjMDA5ZWRkOyYjeGE7ICAgICAgfSYjeGE7ICAgIDwvc3R5bGU+JiN4YTsgIDwvZGVmcz4mI3hhOyAgPGcgZGF0YS1uYW1lPSJMYXllciAxIiBpZD0iTGF5ZXJfMS0yIj4mI3hhOyAgICA8Zz4mI3hhOyAgICAgIDxwb2x5bGluZSBwb2ludHM9IjAgMjA0IDIwOC40MSAyMDQgNDEyLjM4IDAgMCAwIDAgMjA0IiBjbGFzcz0iY2xzLTIiLz4mI3hhOyAgICAgIDxwYXRoIGQ9Ik0yNDQuNzMsMzguMzZsLTQwLjU5LS4wMnY5Ni41MmwtMzUuNDYtOTYuNTJoLTM1LjE2bC0zMC4yOCw4MC43MmMtMy4yMi0yMC4zNS0yNC4yOC0yNy4zOC00MC44NC0zMi42NS0xMC45NC0zLjUxLTIyLjU0LTguNjgtMjIuNDMtMTQuMzkuMDktNC42OSw2LjIyLTkuMDQsMTguMzgtOC4zOCw4LjE3LjQzLDE1LjM3LDEuMDksMjkuNzEsOC4wMWwxNC4xLTI0LjU2Yy0xMy4wOS02LjY2LTMxLjE3LTEwLjg3LTQ1Ljk4LTEwLjg4aC0uMDljLTE3LjI4LDAtMzEuNjgsNS42LTQwLjYsMTQuODItNi4yMiw2LjQ0LTkuNTcsMTQuNjMtOS43MSwyMy42OC0uMjMsMTIuNDUsNC4zNCwyMS4yOSwxMy45NCwyOC4zNCw4LjEsNS45NCwxOC40Nyw5Ljc5LDI3LjYsMTIuNjMsMTEuMjcsMy40OSwyMC40Nyw2LjUzLDIwLjM2LDEzLS4wOCwyLjM1LS45OCw0LjU1LTIuNjcsNi4zNC0yLjgxLDIuOS03LjEyLDMuOTktMTMuMDgsNC4xLTExLjUuMjQtMjAuMDMtMS41Ni0zMy42MS05LjU4bC0xMi41NCwyNC45YzEzLjU1LDcuNzEsMjkuNTksMTIuMjIsNDUuOTUsMTIuMjJsMi4xMS0uMDJjMTQuMjUtLjI2LDI1Ljc0LTQuMzIsMzQuOTMtMTEuNzEuNTMtLjQyLDEtLjg0LDEuNDktMS4yOGwtNC4wNywxMC44N2gzNi44OGw2LjE5LTE4LjgyYzYuNDgsMi4yMSwxMy44NSwzLjQ0LDIxLjY4LDMuNDRzMTQuNzktMS4xNywyMS4xNi0zLjI1bDUuOTcsMTguNjRoNjAuMTR2LTM4Ljk3aDEzLjExYzMxLjcxLDAsNTAuNDYtMTYuMTUsNTAuNDYtNDMuMiwwLTMwLjE0LTE4LjIyLTQzLjk3LTU3LjAxLTQzLjk3Wk0xNTAuOTEsMTIwLjk1Yy00Ljc0LDAtOS4xOC0uODMtMTMuMDEtMi4yOGwxMi44Ny00MC41OWguMjRsMTIuNjQsNDAuNzFjLTMuOCwxLjM1LTguMTQsMi4xNi0xMi43NSwyLjE2Wk0yNDcuMTEsOTcuNjJoLTguOTR2LTMyLjcxaDguOTRjMTEuOTMsMCwyMS40NCwzLjk2LDIxLjQ0LDE2LjE0cy05LjUxLDE2LjU3LTIxLjQ0LDE2LjU3IiBjbGFzcz0iY2xzLTEiLz4mI3hhOyAgICA8L2c+JiN4YTsgIDwvZz4mI3hhOzwvc3ZnPg==;" parent="uZPeagV1LzCzwJO0KJH_-1" vertex="1">
          <mxGeometry x="846" y="4295.07" width="51" height="25.26" as="geometry" />
        </mxCell>
        <mxCell id="8XwpJnI2xtcuIQ5Sg1Dp-23" value="&lt;p style=&quot;margin: 0px; font-variant-numeric: normal; font-variant-east-asian: normal; font-variant-alternates: normal; font-kerning: auto; font-optical-sizing: auto; font-feature-settings: normal; font-variation-settings: normal; font-variant-position: normal; font-stretch: normal; line-height: normal;&quot; class=&quot;p1&quot;&gt;&lt;font style=&quot;font-size: 16px;&quot;&gt;Connectivity Core&lt;/font&gt;&lt;/p&gt;" style="text;whiteSpace=wrap;html=1;fontFamily=Helvetica;fontSize=14;fontStyle=1;verticalAlign=middle;fontColor=default;align=left;" parent="uZPeagV1LzCzwJO0KJH_-1" vertex="1">
          <mxGeometry x="854" y="4350" width="144.8" height="14.5" as="geometry" />
        </mxCell>
        <mxCell id="uZPeagV1LzCzwJO0KJH_-68" value="Pandas, PySpark support" style="rounded=1;whiteSpace=wrap;html=1;verticalAlign=middle;spacing=0;labelBackgroundColor=none;fillColor=#FFFFFF;strokeColor=#0170f2;fontColor=#000000;fontSize=13;align=center;fontFamily=Helvetica;strokeWidth=1.5;fontStyle=1" parent="uZPeagV1LzCzwJO0KJH_-1" vertex="1">
          <mxGeometry x="866.9881162216928" y="4392" width="207.57080269304538" height="43.17688848027053" as="geometry" />
        </mxCell>
        <mxCell id="uZPeagV1LzCzwJO0KJH_-69" value="NVIDIA RAPIDS&lt;sup style=&quot;font-size: 7px;&quot;&gt;&lt;font style=&quot;font-size: 7px;&quot;&gt;TM&lt;/font&gt;&lt;/sup&gt;&lt;div&gt;*cuDF, *cuML, and XGBoost&amp;nbsp;&lt;/div&gt;" style="rounded=1;whiteSpace=wrap;html=1;verticalAlign=middle;spacing=0;labelBackgroundColor=none;fillColor=#FFFFFF;strokeColor=#0170f2;fontColor=#000000;fontSize=13;align=center;fontFamily=Helvetica;strokeWidth=1.5;fontStyle=1" parent="uZPeagV1LzCzwJO0KJH_-1" vertex="1">
          <mxGeometry x="866.991629748794" y="4449.257578769506" width="207.5553972280659" height="58.81839031905402" as="geometry" />
        </mxCell>
        <mxCell id="uZPeagV1LzCzwJO0KJH_-70" value="&lt;br&gt;Deployment to AI Core" style="rounded=1;whiteSpace=wrap;html=1;strokeColor=#0170f2;strokeWidth=1.5;fillColor=#FFFFFF;align=center;verticalAlign=top;arcSize=24;spacingTop=0;spacingBottom=0;spacing=-10;labelPosition=center;verticalLabelPosition=middle;spacingRight=0;fontStyle=1;fontSize=13;" parent="uZPeagV1LzCzwJO0KJH_-1" vertex="1">
          <mxGeometry x="864.89" y="4523.44203359507" width="209.67000000000007" height="36.50796640493008" as="geometry" />
        </mxCell>
        <mxCell id="bPM6QwfCQ9yQ2lp3bx2W-0" value="FedML" style="text;html=1;align=center;verticalAlign=middle;resizable=0;points=[];autosize=1;strokeColor=none;fillColor=none;fontStyle=1;fontSize=16;" parent="uZPeagV1LzCzwJO0KJH_-1" vertex="1">
          <mxGeometry x="904" y="4296.75" width="68" height="31" as="geometry" />
        </mxCell>
        <mxCell id="bPM6QwfCQ9yQ2lp3bx2W-1" value="jupyter" style="text;html=1;align=center;verticalAlign=middle;resizable=0;points=[];autosize=1;strokeColor=none;fillColor=none;fontStyle=1;fontSize=16;" parent="uZPeagV1LzCzwJO0KJH_-1" vertex="1">
          <mxGeometry x="972" y="4295.07" width="66" height="31" as="geometry" />
        </mxCell>
        <mxCell id="bPM6QwfCQ9yQ2lp3bx2W-2" value="" style="group" parent="uZPeagV1LzCzwJO0KJH_-1" vertex="1" connectable="0">
          <mxGeometry x="910.5" y="4774" width="238.5" height="98" as="geometry" />
        </mxCell>
        <mxCell id="uZPeagV1LzCzwJO0KJH_-76" value="" style="rounded=0;whiteSpace=wrap;html=1;strokeColor=#eaecee;strokeWidth=1.5;arcSize=16;fillColor=#FFFFFF;perimeterSpacing=0;imageHeight=24;absoluteArcSize=1;points=[];connectable=0;container=0;" parent="bPM6QwfCQ9yQ2lp3bx2W-2" vertex="1">
          <mxGeometry width="227" height="98" as="geometry" />
        </mxCell>
        <mxCell id="uZPeagV1LzCzwJO0KJH_-77" value="&lt;font size=&quot;1&quot; style=&quot;&quot; face=&quot;arial&quot; color=&quot;#1d2d3e&quot;&gt;&lt;b style=&quot;font-size: 12px;&quot;&gt;Legend&lt;/b&gt;&lt;/font&gt;" style="text;html=1;align=left;verticalAlign=top;resizable=0;points=[];autosize=1;strokeColor=none;fillColor=none;fontSize=12;fontColor=default;fontFamily=Helvetica;" parent="bPM6QwfCQ9yQ2lp3bx2W-2" vertex="1">
          <mxGeometry x="16.9982051282052" y="8" width="61" height="26" as="geometry" />
        </mxCell>
        <mxCell id="uZPeagV1LzCzwJO0KJH_-78" value="&lt;div style=&quot;font-size: 10px; line-height: 100%;&quot;&gt;&lt;span style=&quot;font-family: arial; font-size: 10px; background-color: initial;&quot;&gt;&lt;font style=&quot;font-size: 10px;&quot;&gt;Access&lt;/font&gt;&lt;/span&gt;&lt;/div&gt;" style="text;html=1;align=left;verticalAlign=middle;resizable=0;points=[];autosize=1;strokeColor=none;fillColor=none;fontSize=10;fontColor=#1D2D3E;fontFamily=Helvetica;labelPosition=center;verticalLabelPosition=middle;" parent="bPM6QwfCQ9yQ2lp3bx2W-2" vertex="1">
          <mxGeometry x="42" y="33" width="50" height="23" as="geometry" />
        </mxCell>
        <mxCell id="uZPeagV1LzCzwJO0KJH_-79" value="" style="ellipse;whiteSpace=wrap;html=1;aspect=fixed;strokeColor=none;fillColor=#475E75;fontColor=#475E75;" parent="bPM6QwfCQ9yQ2lp3bx2W-2" vertex="1">
          <mxGeometry x="21.36999999999989" y="36.5" width="16" height="16" as="geometry" />
        </mxCell>
        <mxCell id="uZPeagV1LzCzwJO0KJH_-84" value="" style="shape=image;verticalLabelPosition=bottom;verticalAlign=top;imageAspect=0;aspect=fixed;image=data:image/svg+xml,PHN2ZyB4bWxucz0iaHR0cDovL3d3dy53My5vcmcvMjAwMC9zdmciIGZpbGw9Im5vbmUiIHZpZXdCb3g9IjAgMCA0OSA0OSIgaGVpZ2h0PSI0OSIgd2lkdGg9IjQ5Ij4mI3hhOzxjaXJjbGUgc3Ryb2tlLXdpZHRoPSIwLjg1NzE0MyIgc3Ryb2tlPSIjRDVEQUREIiBmaWxsPSJ1cmwoI3BhaW50MF9saW5lYXJfMjYyMl8yMDQ3NSkiIHI9IjIzLjU3MTQiIGN5PSIyNC4wMzQ5IiBjeD0iMjQuNSIvPiYjeGE7PHBhdGggZmlsbD0idXJsKCNwYWludDFfcmFkaWFsXzI2MjJfMjA0NzUpIiBkPSJNMjQuMzkzMSAxMi4yMzcxQzIwLjExMDcgMTIuMjM3MSAxNy4wNjgxIDE1LjcyMzEgMTYuNTYxMSAxOS4zNjI1QzE1LjE4MzYgMTkuNDQ0NCAxMy45NjcyIDE5Ljk2MjEgMTMuMDIyNSAyMC44MzE3QzExLjc0NDUgMjIuMDA4MSAxMS4wODQ0IDIzLjcxNTYgMTEuMDg0NCAyNS41MTYzQzExLjA4NDQgMjcuMTg5NyAxMS41OTIgMjguNzcxNSAxMi43MzE2IDI5Ljk0MDlDMTMuNTg2MSAzMC44MTc4IDE0LjcwNzcgMzEuMzcyNCAxNi4wMTcgMzEuNTk4NEMxNi4xMzc2IDMxLjM1MzUgMTYuMjczNSAzMS4xMTY4IDE2LjQyNTIgMzAuODg5MkwxNi40NDEgMzAuODY1NUwxNi40NTQ4IDMwLjg0NjFDMTYuNzA2OSAzMC40OTAxIDE2Ljk5NDggMzAuMTY2IDE3LjMxNjkgMjkuODc2MUMxNy4xODMxIDI5LjQzMTcgMTcuMTE4IDI4Ljk2NDUgMTcuMTE4IDI4LjQ4MzVDMTcuMTE4IDI3Ljg1NDkgMTcuMjM4NiAyNy4yNDEzIDE3LjQ4NDkgMjYuNjU5MkMxNy43MiAyNi4xMDMzIDE4LjA1MTMgMjUuNjAwMSAxOC40ODI0IDI1LjE2OTFDMTguOTE4IDI0LjczMzQgMTkuNDI1IDI0LjM5MTYgMTkuOTkyNiAyNC4xNTE1QzIwLjU3NDcgMjMuOTA1MiAyMS4xODgyIDIzLjc4NDYgMjEuODE2OCAyMy43ODQ2QzIyLjA3NTkgMjMuNzg0NiAyMi4zMzI0IDIzLjgwNTEgMjIuNTg1MyAyMy44NDY0QzIyLjkwNjUgMjMuNjE3OSAyMy4yNTIyIDIzLjQyNTEgMjMuNjIwNCAyMy4yNjkzQzI0LjI4NTEgMjIuOTg4MSAyNC45ODYzIDIyLjg0OTcgMjUuNzA4OSAyMi44NDk3QzI2LjQzMTYgMjIuODQ5NyAyNy4xMzI3IDIyLjk4ODEgMjcuNzk3NSAyMy4yNjkzQzI4LjQ0MzYgMjMuNTQyNyAyOS4wMTc2IDIzLjkzMjYgMjkuNTA0MyAyNC40MzY1QzMwLjAwODIgMjQuOTIzMiAzMC4zOTgxIDI1LjQ5NzIgMzAuNjcxNSAyNi4xNDMzQzMwLjk1MjcgMjYuODA4MSAzMS4wOTExIDI3LjUwOTMgMzEuMDkxMSAyOC4yMzE5QzMxLjA5MTEgMjguOTI1MiAzMC45NjM3IDI5LjU5ODggMzAuNzA1IDMwLjIzOTVDMzEuMTk2OSAzMC42Mjg4IDMxLjYzNDYgMzEuMDg3NyAzMi4wMTUyIDMxLjYxMjdDMzUuMjc5MiAzMS4wNDI2IDM3Ljk5OTkgMjguMzY4IDM3Ljk5OTkgMjQuMzU5MUMzNy45OTk5IDIwLjM3NTEgMzUuMTUyNiAxNy4zMTM1IDMxLjcyNDcgMTYuOTg5N0MzMC4zNTA3IDE0LjE0ODMgMjcuOCAxMi4yMzcxIDI0LjM5MzEgMTIuMjM3MVoiIGNsaXAtcnVsZT0iZXZlbm9kZCIgZmlsbC1ydWxlPSJldmVub2RkIi8+JiN4YTs8cGF0aCBmaWxsPSJ1cmwoI3BhaW50Ml9yYWRpYWxfMjYyMl8yMDQ3NSkiIGQ9Ik0yOC4zMzY4IDMwLjgwNzhDMjkuMzA4MiAzMS4xODk0IDMwLjA5NzQgMzEuODEzOCAzMC43MDQ1IDMyLjY4MTFDMzEuMzExNiAzMy41NDg0IDMxLjYxNTIgMzQuNTI4NSAzMS42MTUyIDM1LjYyMTNWMzcuMTA0NEMzMS42MTUyIDM3LjMxMjUgMzEuNTM3MSAzNy40ODYgMzEuMzgxIDM3LjYyNDdDMzEuMjQyMiAzNy43NjM1IDMxLjA3NzQgMzcuODMyOSAzMC44ODY2IDM3LjgzMjlIMjkuNDAzNkMyOS4xOTU0IDM3LjgzMjkgMjkuMDEzMyAzNy43NjM1IDI4Ljg1NzIgMzcuNjI0N0MyOC43MTg0IDM3LjQ4NiAyOC42NDkgMzcuMzEyNSAyOC42NDkgMzcuMTA0NEMyOC42NDkgMzYuODk2MiAyOC43MTg0IDM2LjcyMjcgMjguODU3MiAzNi41ODRDMjkuMDEzMyAzNi40Mjc5IDI5LjE5NTQgMzYuMzQ5OCAyOS40MDM2IDM2LjM0OThIMzAuMTMyMVYzNS42MjEzQzMwLjEzMjEgMzUuMTE4MiAzMC4wMzY3IDM0LjY0MTIgMjkuODQ1OSAzNC4xOTAyQzI5LjY1NTEgMzMuNzM5MiAyOS4zODYyIDMzLjM0OSAyOS4wMzkzIDMzLjAxOTRDMjguNzA5NyAzMi42NzI1IDI4LjMxOTUgMzIuNDAzNiAyNy44Njg1IDMyLjIxMjhDMjcuNDM0OCAzMi4wMjIgMjYuOTU3OCAzMS45MjY2IDI2LjQzNzUgMzEuOTI2NkgyNC45ODA0QzI0LjQ2IDMxLjkyNjYgMjMuOTc0NCAzMi4wMjIgMjMuNTIzNCAzMi4yMTI4QzIzLjA4OTcgMzIuNDAzNiAyMi42OTk0IDMyLjY3MjUgMjIuMzUyNSAzMy4wMTk0QzIyLjAyMyAzMy4zNDkgMjEuNzYyOCAzMy43MzkyIDIxLjU3MiAzNC4xOTAyQzIxLjM4MTIgMzQuNjQxMiAyMS4yODU4IDM1LjExODIgMjEuMjg1OCAzNS42MjEzVjM2LjM0OThIMjIuMDE0M0MyMi4yMjI0IDM2LjM0OTggMjIuMzk1OSAzNi40Mjc5IDIyLjUzNDcgMzYuNTg0QzIyLjY3MzQgMzYuNzIyNyAyMi43NDI4IDM2Ljg5NjIgMjIuNzQyOCAzNy4xMDQ0QzIyLjc0MjggMzcuMzEyNSAyMi42NzM0IDM3LjQ4NiAyMi41MzQ3IDM3LjYyNDdDMjIuMzk1OSAzNy43NjM1IDIyLjIyMjQgMzcuODMyOSAyMi4wMTQzIDM3LjgzMjlIMjAuNTMxMkMyMC4zNDA0IDM3LjgzMjkgMjAuMTY3IDM3Ljc2MzUgMjAuMDEwOSAzNy42MjQ3QzE5Ljg3MjEgMzcuNDg2IDE5LjgwMjcgMzcuMzEyNSAxOS44MDI3IDM3LjEwNDRMMTkuODAyNyAzNi4wNTAySDE3LjgyMzRDMTcuNjMyOCAzNi4wNTAyIDE3LjQ2MTYgMzUuOTc5NSAxNy4zMTQ2IDM1Ljg0ODhMMTcuMzA3NSAzNS44NDI1QzE3LjE2ODEgMzUuNzAzMSAxNy4wOTk4IDM1LjUyNzEgMTcuMDk5OCAzNS4zMjY1VjM0LjE4MjdDMTcuMDk5OCAzMy43MzkyIDE3LjE2MjEgMzMuMzIxIDE3LjI4ODEgMzIuOTI5MUwxNy4yODkyIDMyLjkyNTlDMTcuNDI3MiAzMi41MjU2IDE3LjYwNzEgMzIuMTU4NiAxNy44MjkzIDMxLjgyNTNMMTcuODMxOCAzMS44MjE1QzE4LjA2NzggMzEuNDg4MyAxOC4zNDU4IDMxLjE5NjQgMTguNjY1MiAzMC45NDYxQzE4LjkyNDIgMzAuNzMyNCAxOS4yMDU5IDMwLjU1NSAxOS41MTAxIDMwLjQxNEMxOS4wMzk4IDI5Ljg4ODUgMTguODA1NSAyOS4yNDE5IDE4LjgwNTUgMjguNDgzNUMxOC44MDU1IDI4LjA3NDUgMTguODgzMiAyNy42ODUxIDE5LjAzOSAyNy4zMTY3QzE5LjE5MzkgMjYuOTUwNyAxOS40MDYgMjYuNjMyIDE5LjY3NTYgMjYuMzYyM0MxOS45NTc5IDI2LjA4MDEgMjAuMjgzIDI1Ljg2MDkgMjAuNjUwMSAyNS43MDU2QzIxLjAxODQgMjUuNTQ5OCAyMS40MDc4IDI1LjQ3MjEgMjEuODE2OCAyNS40NzIxQzIyLjIyNTkgMjUuNDcyMSAyMi42MTUyIDI1LjU0OTggMjIuOTgzNiAyNS43MDU2TDIzLjAwMDggMjUuNzEzQzIzLjAyNzEgMjUuNjg0OSAyMy4wNTM4IDI1LjY1NzMgMjMuMDgxIDI1LjYzQzIzLjQyOCAyNS4yODMxIDIzLjgyNjkgMjUuMDE0MiAyNC4yNzc5IDI0LjgyMzRDMjQuNzI4OSAyNC42MzI2IDI1LjIwNTkgMjQuNTM3MiAyNS43MDg5IDI0LjUzNzJDMjYuMjEyIDI0LjUzNzIgMjYuNjg5IDI0LjYzMjYgMjcuMTQgMjQuODIzNEMyNy41OTA5IDI1LjAxNDIgMjcuOTgxMiAyNS4yODMxIDI4LjMxMDggMjUuNjNDMjguNjU3NyAyNS45NTk2IDI4LjkyNjYgMjYuMzQ5OSAyOS4xMTc0IDI2LjgwMDlDMjkuMzA4MiAyNy4yNTE5IDI5LjQwMzYgMjcuNzI4OSAyOS40MDM2IDI4LjIzMTlDMjkuNDAzNiAyOC43MzQ5IDI5LjMwODIgMjkuMjEyIDI5LjExNzQgMjkuNjYzQzI4LjkyNjYgMzAuMDk2NiAyOC42NjY0IDMwLjQ3ODIgMjguMzM2OCAzMC44MDc4Wk0yMC4wMzY5IDM0LjA2MDFDMTkuOTgyMiAzNC4yMzAxIDE5LjkzNzIgMzQuNDA0MyAxOS45MDE3IDM0LjU4MjdIMTguNTY3MlYzNC4xODI3QzE4LjU2NzIgMzMuODE1NyAxOC42MzY3IDMzLjQ2OTMgMTguNzc1MiAzMy4xNDJDMTguOTE0NiAzMi44MTI0IDE5LjEwMzkgMzIuNTI5IDE5LjM0MjYgMzIuMjkwM0MxOS41OTYyIDMyLjAzNjcgMTkuODgwMyAzMS44NDEyIDIwLjE5NTMgMzEuNzAyNEMyMC41MjE2IDMxLjU2NDUgMjAuODc0MyAzMS40OTQ5IDIxLjI1NDkgMzEuNDk0OUgyMS44NzA4QzIxLjgzMTUgMzEuNTI1NCAyMS43OTI2IDMxLjU1NjYgMjEuNzU0MSAzMS41ODg0QzIxLjM1NTEgMzEuOTAwNiAyMS4wMDgyIDMyLjI2NDggMjAuNzEzNCAzMi42ODExQzIwLjQzNTggMzMuMDk3NCAyMC4yMTAzIDMzLjU1NzEgMjAuMDM2OSAzNC4wNjAxWk0yNS43MDg5IDI2LjAyMDNDMjUuMTAxOCAyNi4wMjAzIDI0LjU4MTUgMjYuMjM3MSAyNC4xNDc4IDI2LjY3MDhDMjMuNzE0MiAyNy4xMDQ0IDIzLjQ5NzMgMjcuNjI0OCAyMy40OTczIDI4LjIzMTlDMjMuNDk3MyAyOC44MzkgMjMuNzE0MiAyOS4zNTk0IDI0LjE0NzggMjkuNzkzQzI0LjU4MTUgMzAuMjI2NyAyNS4xMDE4IDMwLjQ0MzUgMjUuNzA4OSAzMC40NDM1QzI2LjMxNiAzMC40NDM1IDI2LjgzNjQgMzAuMjI2NyAyNy4yNyAyOS43OTNDMjcuNzAzNyAyOS4zNTk0IDI3LjkyMDUgMjguODM5IDI3LjkyMDUgMjguMjMxOUMyNy45MjA1IDI3LjYyNDggMjcuNzAzNyAyNy4xMDQ0IDI3LjI3IDI2LjY3MDhDMjYuODM2NCAyNi4yMzcxIDI2LjMxNiAyNi4wMjAzIDI1LjcwODkgMjYuMDIwM1pNMjIuMDE0MyAyOC4yMzE5QzIyLjAxNDMgMjguODU5NiAyMi4xNDM2IDI5LjQyMTEgMjIuNDAyMyAyOS45MTYzQzIyLjIyMjMgMjkuOTkwNiAyMi4wMjc1IDMwLjAyNzQgMjEuODE2OCAzMC4wMjc0QzIxLjM5MiAzMC4wMjc0IDIxLjAzMTcgMjkuODc3NiAyMC43MjcyIDI5LjU3MzFDMjAuNDIyOCAyOS4yNjg3IDIwLjI3MjkgMjguOTA4MyAyMC4yNzI5IDI4LjQ4MzVDMjAuMjcyOSAyOC4wNTg3IDIwLjQyMjggMjcuNjk4MyAyMC43MjcyIDI3LjM5MzlDMjEuMDMxNyAyNy4wODk0IDIxLjM5MiAyNi45Mzk2IDIxLjgxNjggMjYuOTM5NkMyMS45NjA1IDI2LjkzOTYgMjIuMDk2OSAyNi45NTY3IDIyLjIyNjIgMjYuOTkxMkMyMi4wODQ5IDI3LjM4NTUgMjIuMDE0MyAyNy43OTkxIDIyLjAxNDMgMjguMjMxOVoiIGNsaXAtcnVsZT0iZXZlbm9kZCIgZmlsbC1ydWxlPSJldmVub2RkIi8+JiN4YTs8ZGVmcz4mI3hhOzxsaW5lYXJHcmFkaWVudCBncmFkaWVudFVuaXRzPSJ1c2VyU3BhY2VPblVzZSIgeTI9IjQ0LjI3OTIiIHgyPSI0MS41NjQ1IiB5MT0iNi44NDc3NSIgeDE9IjQuODUyODciIGlkPSJwYWludDBfbGluZWFyXzI2MjJfMjA0NzUiPiYjeGE7PHN0b3Agc3RvcC1jb2xvcj0id2hpdGUiLz4mI3hhOzxzdG9wIHN0b3AtY29sb3I9IiNFQUVDRUUiIG9mZnNldD0iMSIvPiYjeGE7PC9saW5lYXJHcmFkaWVudD4mI3hhOzxyYWRpYWxHcmFkaWVudCBncmFkaWVudFRyYW5zZm9ybT0idHJhbnNsYXRlKDE1LjI1ODMgMTUuOTk1NCkgcm90YXRlKDQzLjg3NzkpIHNjYWxlKDI1Ljg1MjQgNDguODExNykiIGdyYWRpZW50VW5pdHM9InVzZXJTcGFjZU9uVXNlIiByPSIxIiBjeT0iMCIgY3g9IjAiIGlkPSJwYWludDFfcmFkaWFsXzI2MjJfMjA0NzUiPiYjeGE7PHN0b3Agc3RvcC1jb2xvcj0iIzAxOTVGRiIvPiYjeGE7PHN0b3Agc3RvcC1jb2xvcj0iIzExNDdFOSIgb2Zmc2V0PSIxIi8+JiN4YTs8L3JhZGlhbEdyYWRpZW50PiYjeGE7PHJhZGlhbEdyYWRpZW50IGdyYWRpZW50VHJhbnNmb3JtPSJ0cmFuc2xhdGUoMTUuMjUyMiAxNi4wODc2KSByb3RhdGUoNDMuNTYwMikgc2NhbGUoMjUuODcyNyAyMy41NDcxKSIgZ3JhZGllbnRVbml0cz0idXNlclNwYWNlT25Vc2UiIHI9IjEiIGN5PSIwIiBjeD0iMCIgaWQ9InBhaW50Ml9yYWRpYWxfMjYyMl8yMDQ3NSI+JiN4YTs8c3RvcCBzdG9wLWNvbG9yPSIjMTM0OEZGIi8+JiN4YTs8c3RvcCBzdG9wLWNvbG9yPSIjMDYyMzhEIiBvZmZzZXQ9IjEiLz4mI3hhOzwvcmFkaWFsR3JhZGllbnQ+JiN4YTs8L2RlZnM+JiN4YTs8L3N2Zz4=;points=[[0,0,0,0,0],[0,0.25,0,0,0],[0,0.5,0,0,0],[0,0.75,0,0,0],[0.25,0,0,0,0],[0.5,0,0,0,0],[0.75,0,0,0,0],[1,0,0,0,0],[1,0.25,0,0,0],[1,0.5,0,0,0],[1,0.75,0,0,0]];" parent="bPM6QwfCQ9yQ2lp3bx2W-2" vertex="1">
          <mxGeometry x="121.5" y="36.5" width="16" height="16" as="geometry" />
        </mxCell>
        <mxCell id="uZPeagV1LzCzwJO0KJH_-85" value="&lt;div style=&quot;font-size: 10px; line-height: 100%;&quot;&gt;&lt;span style=&quot;font-family: arial; font-size: 10px; background-color: initial;&quot;&gt;&lt;font style=&quot;font-size: 10px;&quot;&gt;SAP BTP Service&lt;/font&gt;&lt;/span&gt;&lt;/div&gt;" style="text;html=1;align=left;verticalAlign=middle;resizable=0;points=[];autosize=1;strokeColor=none;fillColor=none;fontSize=10;fontColor=#1D2D3E;fontFamily=Helvetica;labelPosition=center;verticalLabelPosition=middle;" parent="bPM6QwfCQ9yQ2lp3bx2W-2" vertex="1">
          <mxGeometry x="142.5" y="33.5" width="96" height="22" as="geometry" />
        </mxCell>
        <mxCell id="uZPeagV1LzCzwJO0KJH_-86" value="" style="endArrow=blockThin;html=1;strokeColor=#000000;bendable=1;rounded=0;endFill=1;endSize=4;strokeWidth=1.5;startSize=4;startArrow=blockThin;startFill=1;entryX=0.04;entryY=0.52;entryDx=0;entryDy=0;entryPerimeter=0;fontColor=default;labelBackgroundColor=#000000;labelBorderColor=none;" parent="bPM6QwfCQ9yQ2lp3bx2W-2" edge="1">
          <mxGeometry width="50" height="50" relative="1" as="geometry">
            <mxPoint x="14" y="71.77999999999975" as="sourcePoint" />
            <mxPoint x="36" y="71.77999999999975" as="targetPoint" />
            <Array as="points" />
          </mxGeometry>
        </mxCell>
        <mxCell id="uZPeagV1LzCzwJO0KJH_-87" value="&lt;div style=&quot;font-size: 10px; line-height: 100%;&quot;&gt;&lt;span style=&quot;font-family: arial; font-size: 10px; background-color: initial;&quot;&gt;&lt;font style=&quot;font-size: 10px;&quot;&gt;Data Federation&lt;/font&gt;&lt;/span&gt;&lt;/div&gt;" style="text;html=1;align=left;verticalAlign=middle;resizable=0;points=[];autosize=1;strokeColor=none;fillColor=none;fontSize=10;fontColor=#1D2D3E;fontFamily=Helvetica;labelPosition=center;verticalLabelPosition=middle;" parent="bPM6QwfCQ9yQ2lp3bx2W-2" vertex="1">
          <mxGeometry x="42" y="60" width="90" height="23" as="geometry" />
        </mxCell>
        <mxCell id="bPM6QwfCQ9yQ2lp3bx2W-3" value="" style="group" parent="uZPeagV1LzCzwJO0KJH_-1" vertex="1" connectable="0">
          <mxGeometry x="1189" y="4231" width="374" height="189.75" as="geometry" />
        </mxCell>
        <mxCell id="uZPeagV1LzCzwJO0KJH_-90" value="" style="rounded=0;whiteSpace=wrap;html=1;strokeColor=none;strokeWidth=1.5;arcSize=16;fillColor=#F5F6F7;perimeterSpacing=0;imageHeight=24;absoluteArcSize=1;points=[];connectable=0;container=0;" parent="bPM6QwfCQ9yQ2lp3bx2W-3" vertex="1">
          <mxGeometry width="374" height="189.75" as="geometry" />
        </mxCell>
        <mxCell id="uZPeagV1LzCzwJO0KJH_-91" value="&lt;h1&gt;Flow&lt;br&gt;&lt;ul style=&quot;font-size: 12px;&quot;&gt;&lt;li&gt;&lt;span style=&quot;text-wrap: nowrap; background-color: initial; font-weight: normal;&quot;&gt;Data Federation &amp;amp; Replication from SAP sources&lt;br&gt;&lt;br&gt;&lt;/span&gt;&lt;/li&gt;&lt;li&gt;&lt;span style=&quot;text-wrap: nowrap; background-color: initial; font-weight: normal;&quot;&gt;Data Federation &amp;amp; Replication from 3rd Party sources&lt;br&gt;&lt;br&gt;&lt;/span&gt;&lt;/li&gt;&lt;li&gt;&lt;span style=&quot;font-weight: normal;&quot;&gt;&lt;span style=&quot;background-color: initial; text-wrap: nowrap;&quot;&gt;Connectivity for Machine Learning&lt;br&gt;&lt;/span&gt;&lt;br&gt;&lt;/span&gt;&lt;/li&gt;&lt;li&gt;&lt;span style=&quot;background-color: initial; text-wrap: nowrap; font-weight: normal;&quot;&gt;Deployment to AI Core&lt;/span&gt;&lt;br&gt;&lt;/li&gt;&lt;/ul&gt;&lt;/h1&gt;" style="text;html=1;strokeColor=none;fillColor=none;spacing=5;spacingTop=-20;whiteSpace=wrap;overflow=hidden;rounded=0;" parent="bPM6QwfCQ9yQ2lp3bx2W-3" vertex="1">
          <mxGeometry x="21" y="12.75" width="332" height="163" as="geometry" />
        </mxCell>
        <mxCell id="uZPeagV1LzCzwJO0KJH_-92" value="&lt;p style=&quot;line-height: 100%; font-size: 12px;&quot;&gt;&lt;b style=&quot;font-size: 12px;&quot;&gt;&lt;font face=&quot;arial black&quot; style=&quot;font-size: 12px;&quot; color=&quot;#ffffff&quot;&gt;1&lt;/font&gt;&lt;/b&gt;&lt;/p&gt;" style="ellipse;whiteSpace=wrap;html=1;aspect=fixed;rotation=0;gradientColor=#0057D2;strokeColor=none;gradientDirection=east;fillColor=#2395FF;rounded=0;pointerEvents=0;fontFamily=Helvetica;fontSize=12;fontColor=default;spacingTop=4;spacingBottom=4;spacingLeft=4;spacingRight=4;verticalAlign=middle;container=0;" parent="bPM6QwfCQ9yQ2lp3bx2W-3" vertex="1">
          <mxGeometry x="21" y="55.75" width="22" height="22" as="geometry" />
        </mxCell>
        <mxCell id="uZPeagV1LzCzwJO0KJH_-93" value="&lt;p style=&quot;line-height: 100%; font-size: 12px;&quot;&gt;&lt;font face=&quot;arial black&quot; color=&quot;#ffffff&quot; style=&quot;font-size: 12px;&quot;&gt;&lt;b style=&quot;font-size: 12px;&quot;&gt;2&lt;/b&gt;&lt;/font&gt;&lt;/p&gt;" style="ellipse;whiteSpace=wrap;html=1;aspect=fixed;rotation=0;gradientColor=#0057D2;strokeColor=none;gradientDirection=east;fillColor=#2395FF;rounded=0;pointerEvents=0;fontFamily=Helvetica;fontSize=12;fontColor=default;spacingTop=4;spacingBottom=4;spacingLeft=4;spacingRight=4;verticalAlign=middle;container=0;" parent="bPM6QwfCQ9yQ2lp3bx2W-3" vertex="1">
          <mxGeometry x="21" y="85.25" width="22" height="22" as="geometry" />
        </mxCell>
        <mxCell id="uZPeagV1LzCzwJO0KJH_-94" value="&lt;p style=&quot;line-height: 100%; font-size: 12px;&quot;&gt;&lt;b style=&quot;font-size: 12px;&quot;&gt;&lt;font face=&quot;arial black&quot; style=&quot;font-size: 12px;&quot; color=&quot;#ffffff&quot;&gt;3&lt;/font&gt;&lt;/b&gt;&lt;/p&gt;" style="ellipse;whiteSpace=wrap;html=1;aspect=fixed;rotation=0;gradientColor=#0057D2;strokeColor=none;gradientDirection=east;fillColor=#2395FF;rounded=0;pointerEvents=0;fontFamily=Helvetica;fontSize=12;fontColor=default;spacingTop=4;spacingBottom=4;spacingLeft=4;spacingRight=4;verticalAlign=middle;container=0;" parent="bPM6QwfCQ9yQ2lp3bx2W-3" vertex="1">
          <mxGeometry x="21" y="114.75" width="22" height="22" as="geometry" />
        </mxCell>
        <mxCell id="uZPeagV1LzCzwJO0KJH_-95" value="&lt;p style=&quot;line-height: 100%; font-size: 12px;&quot;&gt;&lt;b style=&quot;font-size: 12px;&quot;&gt;&lt;font face=&quot;arial black&quot; style=&quot;font-size: 12px;&quot; color=&quot;#ffffff&quot;&gt;4&lt;/font&gt;&lt;/b&gt;&lt;/p&gt;" style="ellipse;whiteSpace=wrap;html=1;aspect=fixed;rotation=0;gradientColor=#0057D2;strokeColor=none;gradientDirection=east;fillColor=#2395FF;rounded=0;pointerEvents=0;fontFamily=Helvetica;fontSize=12;fontColor=default;spacingTop=4;spacingBottom=4;spacingLeft=4;spacingRight=4;verticalAlign=middle;container=0;" parent="bPM6QwfCQ9yQ2lp3bx2W-3" vertex="1">
          <mxGeometry x="21" y="143.75" width="22" height="22" as="geometry" />
        </mxCell>
        <mxCell id="bPM6QwfCQ9yQ2lp3bx2W-8" value="&lt;font face=&quot;arial&quot; color=&quot;#475e75&quot;&gt;This BTP Solution Diagram shows how SAP Federated Machine Learning libraries (FedML) applies a&lt;br&gt;data federation architecture of SAP Datasphere for intelligently sourcing SAP as well 3rd party data for&lt;br&gt;ML experiments done at any ML platform thereby removing the need for replicating or moving data.&amp;nbsp;&lt;/font&gt;" style="text;html=1;align=left;verticalAlign=middle;resizable=0;points=[];autosize=1;strokeColor=none;fillColor=none;fontSize=12;fontColor=#1D2D3E;fontFamily=Helvetica;" parent="uZPeagV1LzCzwJO0KJH_-1" vertex="1">
          <mxGeometry x="65" y="4796.47" width="561" height="55" as="geometry" />
        </mxCell>
        <mxCell id="bPM6QwfCQ9yQ2lp3bx2W-9" value="&lt;font face=&quot;arial&quot; color=&quot;#475e75&quot;&gt;&lt;b&gt;Diagram Level: L1&lt;/b&gt;&lt;/font&gt;" style="text;html=1;align=left;verticalAlign=middle;resizable=0;points=[];autosize=1;strokeColor=none;fillColor=none;fontSize=12;fontColor=#1D2D3E;fontFamily=Helvetica;container=0;" parent="uZPeagV1LzCzwJO0KJH_-1" vertex="1">
          <mxGeometry x="65" y="4774" width="121" height="26" as="geometry" />
        </mxCell>
      </root>
    </mxGraphModel>
  </diagram>
</mxfile>
